{
.appVersion = "3151";
.formatVersion = 3;
axes = (
{
name = Weight;
tag = wght;
},
{
name = Width;
tag = wdth;
},
{
name = Slant;
tag = slnt;
}
);
classes = (
{
code = "zero one two three four five six seven eight nine ";
name = Num;
},
{
code = "zero.canadian one.canadian two.canadian three.canadian four.canadian five.canadian six.canadian seven.canadian eight.canadian nine.canadian 
";
name = Num_can;
},
{

glyphs = (
{
glyphname = idotless;
lastChange = "2023-01-13 15:28:21 +0000";
layers = (
{
layerId = "DE93BBBF-E17B-48DE-A6AB-0C4E62D4ADD4";
shapes = (
{
closed = 1;
nodes = (
(89,0,l),
(203,534,l),
(139,534,l),
(26,0,l)
);
}
);
width = 219;
}
);
note = dotlessi;
unicode = 305;
},
{
glyphname = "acuteFinal-canadian";
lastChange = "2023-01-13 15:29:21 +0000";
layers = (
{
layerId = "DE93BBBF-E17B-48DE-A6AB-0C4E62D4ADD4";
shapes = (
{
closed = 1;
nodes = (
(128,357,l),
(359,714,l),
(303,714,l),
(72,357,l)
);
}
);
width = 307;
}
);
metricRight = "=|";
note = uni141F;
unicode = 5151;
},
{
glyphname = "graveFinal-canadian";
kernLeft = mwestleft;
kernRight = mwestright;
lastChange = "2023-01-13 15:29:21 +0000";
layers = (
{
layerId = "DE93BBBF-E17B-48DE-A6AB-0C4E62D4ADD4";
shapes = (
{
closed = 1;
nodes = (
(283,357,l),
(198,714,l),
(148,714,l),
(232,357,l)
);
}
);
width = 307;
}
);
metricLeft = "=|acuteFinal-canadian";
metricRight = "=|acuteFinal-canadian";
note = uni1420;
unicode = 5152;
},
{
glyphname = "ringBottomhalfFinal-canadian";
kernLeft = mwestleft;
kernRight = mwestright;
lastChange = "2023-01-13 15:28:21 +0000";
layers = (
{
layerId = "DE93BBBF-E17B-48DE-A6AB-0C4E62D4ADD4";
shapes = (
{
closed = 1;
nodes = (
(338,351,o),
(388,401,o),
(407,487,cs),
(455,714,l),
(407,714,l),
(362,498,ls),
(346,425,o),
(313,395,o),
(250,395,cs),
(182,395,o),
(158,434,o),
(173,505,cs),
(218,714,l),
(170,714,l),
(126,507,ls),
(106,409,o),
(151,351,o),
(248,351,cs)
);
}
);
width = 425;
}
);
metricLeft = "ai-canadian";
metricRight = "==|ai-canadian";
note = uni1421;
unicode = 5153;
},
{
glyphname = "ringTophalfFinal-canadian";
lastChange = "2023-01-13 15:28:21 +0000";
layers = (
{
layerId = "DE93BBBF-E17B-48DE-A6AB-0C4E62D4ADD4";
shapes = (
{
closed = 1;
nodes = (
(142,357,l),
(187,573,ls),
(203,646,o),
(236,676,o),
(299,676,cs),
(367,676,o),
(391,637,o),
(376,566,cs),
(331,357,l),
(379,357,l),
(423,564,ls),
(443,662,o),
(398,720,o),
(301,720,cs),
(211,720,o),
(161,670,o),
(142,584,cs),
(94,357,l)
);
}
);
width = 425;
}
);
metricLeft = "ai-canadian";
metricRight = "==|ai-canadian";
note = uni1422;
unicode = 5154;
},
{
glyphname = "ringRighthalfFinal-canadian";
kernLeft = mwestleft;
kernRight = mwestright;
lastChange = "2023-01-13 15:28:21 +0000";
layers = (
{
layerId = "DE93BBBF-E17B-48DE-A6AB-0C4E62D4ADD4";
shapes = (
{
closed = 1;
nodes = (
(162,357,ls),
(306,357,o),
(371,465,o),
(371,577,cs),
(371,662,o),
(319,714,o),
(229,714,cs),
(166,714,l),
(156,670,l),
(224,670,ls),
(290,670,o),
(323,635,o),
(323,575,cs),
(323,505,o),
(291,401,o),
(167,401,cs),
(100,401,l),
(90,357,l)
);
}
);
width = 374;
}
);
metricLeft = "=|t-canadian";
metricWidth = "t-canadian";
note = uni1423;
unicode = 5155;
},
{
glyphname = "ringFinal-canadian";
kernLeft = mwestleft;
kernRight = mwestright;
lastChange = "2023-01-13 15:28:21 +0000";
layers = (
{
layerId = "DE93BBBF-E17B-48DE-A6AB-0C4E62D4ADD4";
shapes = (
{
closed = 1;
nodes = (
(411,372,o),
(486,446,o),
(486,546,cs),
(486,646,o),
(409,720,o),
(309,720,cs),
(208,720,o),
(133,646,o),
(133,546,cs),
(133,446,o),
(207,372,o),
(309,372,cs)
);
},
{
closed = 1;
nodes = (
(231,413,o),
(178,469,o),
(178,546,cs),
(178,623,o),
(232,678,o),
(309,678,cs),
(385,678,o),
(441,623,o),
(441,546,cs),
(441,469,o),
(386,413,o),
(309,413,cs)
);
}
);
width = 489;
}
);
note = uni1424;
unicode = 5156;
},
{
glyphname = "doubleacuteFinal-canadian";
lastChange = "2023-01-13 15:28:21 +0000";
layers = (
{
layerId = "DE93BBBF-E17B-48DE-A6AB-0C4E62D4ADD4";
shapes = (
{
closed = 1;
nodes = (
(127,357,l),
(359,714,l),
(303,714,l),
(72,357,l)
);
},
{
closed = 1;
nodes = (
(263,357,l),
(494,714,l),
(439,714,l),
(208,357,l)
);
}
);
width = 442;
}
);
metricLeft = "acuteFinal-canadian";
metricRight = "=|";
note = uni1425;
unicode = 5157;
},
{
glyphname = "doubleshortverticalstrokesFinal-canadian";
kernLeft = mwestleft;
kernRight = mwestright;
lastChange = "2023-01-13 15:28:21 +0000";
layers = (
{
layerId = "DE93BBBF-E17B-48DE-A6AB-0C4E62D4ADD4";
shapes = (
{
closed = 1;
nodes = (
(142,357,l),
(218,714,l),
(170,714,l),
(94,357,l)
);
},
{
closed = 1;
nodes = (
(264,357,l),
(340,714,l),
(292,714,l),
(216,357,l)
);
}
);
width = 310;
}
);
metricLeft = "pWestCree-canadian";
metricRight = "pWestCree-canadian";
note = uni1426;
unicode = 5158;
},
{
glyphname = "middledotFinal-canadian";
lastChange = "2023-01-13 15:28:21 +0000";
layers = (
{
layerId = "DE93BBBF-E17B-48DE-A6AB-0C4E62D4ADD4";
shapes = (
{
closed = 1;
nodes = (
(161,322,o),
(181,342,o),
(181,367,cs),
(181,392,o),
(161,412,o),
(136,412,cs),
(111,412,o),
(92,392,o),
(92,367,cs),
(92,342,o),
(111,322,o),
(136,322,cs)
);
}
);
width = 220;
}
);
note = uni1427;
unicode = 5159;
},
{
glyphname = "shorthorizontalstrokeFinal-canadian";
kernLeft = mwestleft;
kernRight = mwestright;
lastChange = "2023-01-13 15:29:21 +0000";
layers = (
{
layerId = "DE93BBBF-E17B-48DE-A6AB-0C4E62D4ADD4";
shapes = (
{
closed = 1;
nodes = (
(446,516,l),
(456,563,l),
(136,563,l),
(126,516,l)
);
}
);
width = 456;
}
);
metricRight = "=|";
note = uni1428;
unicode = 5160;
},
{
glyphname = "plusFinal-canadian";
kernLeft = mwestleft;
kernRight = mwestright;
lastChange = "2023-01-13 15:29:21 +0000";
layers = (
{
layerId = "DE93BBBF-E17B-48DE-A6AB-0C4E62D4ADD4";
shapes = (
{
closed = 1;
nodes = (
(282,379,l),
(313,525,l),
(450,525,l),
(459,571,l),
(323,571,l),
(353,714,l),
(307,714,l),
(276,571,l),
(138,571,l),
(128,525,l),
(266,525,l),
(235,379,l)
);
}
);
width = 458;
}
);
metricLeft = "shorthorizontalstrokeFinal-canadian";
metricRight = "shorthorizontalstrokeFinal-canadian";
note = uni1429;
unicode = 5161;
},
{
glyphname = "downtackFinal-canadian";
kernLeft = mwestleft;
kernRight = mwestright;
lastChange = "2023-01-13 15:28:21 +0000";
layers = (
{
layerId = "DE93BBBF-E17B-48DE-A6AB-0C4E62D4ADD4";
shapes = (
{
closed = 1;
nodes = (
(277,357,l),
(343,669,l),
(479,669,l),
(489,714,l),
(168,714,l),
(158,669,l),
(296,669,l),
(229,357,l)
);
}
);
width = 457;
}
);
metricLeft = "shorthorizontalstrokeFinal-canadian";
metricRight = "shorthorizontalstrokeFinal-canadian";
note = uni142A;
unicode = 5162;
},
{
glyphname = "thFinalWoodScree-canadian";
lastChange = "2023-01-13 15:29:21 +0000";
layers = (
{
layerId = "DE93BBBF-E17B-48DE-A6AB-0C4E62D4ADD4";
shapes = (
{
closed = 1;
nodes = (
(280,357,l),
(298,445,l),
(433,445,l),
(442,486,l),
(307,486,l),
(328,585,l),
(463,585,l),
(472,626,l),
(337,626,l),
(356,714,l),
(308,714,l),
(289,626,l),
(152,626,l),
(143,585,l),
(280,585,l),
(259,486,l),
(122,486,l),
(113,445,l),
(251,445,l),
(232,357,l)
);
}
);
width = 461;
}
);
metricLeft = "hyphen-canadian";
metricRight = "hyphen-canadian";
note = uni167E;
unicode = 5758;
},
{
glyphname = "ringSmallFinal-canadian";
kernLeft = mwestleft;
kernRight = mwestright;
lastChange = "2023-01-13 15:28:21 +0000";
layers = (
{
layerId = "DE93BBBF-E17B-48DE-A6AB-0C4E62D4ADD4";
shapes = (
{
closed = 1;
nodes = (
(306,529,o),
(352,570,o),
(352,628,cs),
(352,686,o),
(306,727,o),
(251,727,cs),
(196,727,o),
(152,686,o),
(152,628,cs),
(152,570,o),
(196,529,o),
(251,529,cs)
);
},
{
closed = 1;
nodes = (
(212,564,o),
(188,591,o),
(188,628,cs),
(188,665,o),
(213,693,o),
(252,693,cs),
(290,693,o),
(315,665,o),
(315,628,cs),
(315,591,o),
(290,564,o),
(252,564,cs)
);
}
);
width = 340;
}
);
note = g725;
unicode = 6366;
},
{
glyphname = "raiseddotFinal-canadian";
kernLeft = mwestleft;
kernRight = mwestright;
lastChange = "2023-01-13 15:28:21 +0000";
layers = (
{
layerId = "DE93BBBF-E17B-48DE-A6AB-0C4E62D4ADD4";
shapes = (
{
closed = 1;
nodes = (
(230,637,o),
(249,657,o),
(249,682,cs),
(249,707,o),
(230,727,o),
(205,727,cs),
(179,727,o),
(160,707,o),
(160,682,cs),
(160,657,o),
(179,637,o),
(205,637,cs)
);
}
);
width = 223;
}
);
note = g725;
unicode = 6367;
},
{
glyphname = "plusFinal-canadian.base";
lastChange = "2023-01-13 15:28:21 +0000";
layers = (
{
layerId = "DE93BBBF-E17B-48DE-A6AB-0C4E62D4ADD4";
shapes = (
{
closed = 1;
nodes = (
(200,0,l),
(231,146,l),
(368,146,l),
(378,192,l),
(241,192,l),
(272,335,l),
(225,335,l),
(195,192,l),
(57,192,l),
(47,146,l),
(185,146,l),
(154,0,l)
);
}
);
width = 457;
}
);
metricLeft = "shorthorizontalstrokeFinal-canadian";
metricRight = "shorthorizontalstrokeFinal-canadian";
note = uni1429;
},
{
glyphname = "e-canadian";
kernLeft = ecanleft;
kernRight = ecanright;
lastChange = "2023-01-13 15:29:21 +0000";
layers = (
{
anchors = (
{
name = middle_center_can;
pos = (401,470);
},
{
name = top_center_can;
pos = (454,714);
},
{
name = top_left_can;
pos = (225,714);
},
{
name = top_right_can;
pos = (684,714);
}
);
layerId = "DE93BBBF-E17B-48DE-A6AB-0C4E62D4ADD4";
shapes = (
{
closed = 1;
nodes = (
(320,0,l),
(774,694,l),
(778,714,l),
(137,714,l),
(132,694,l),
(291,0,l)
);
},
{
closed = 1;
nodes = (
(329,71,l),
(198,677,l),
(185,660,l),
(706,660,l),
(692,677,l),
(305,71,l)
);
}
);
width = 714;
}
);
metricRight = "=|";
note = uni1401;
unicode = 5121;
},
{
glyphname = "i-canadian";
kernLeft = icanleft;
kernRight = icanright;
lastChange = "2023-01-13 15:29:21 +0000";
layers = (
{
anchors = (
{
name = middle_center_can;
pos = (397,417);
},
{
name = top_center_can;
pos = (457,714);
},
{
name = top_left_can;
pos = (226,714);
},
{
name = top_right_can;
pos = (685,714);
}
);
layerId = "DE93BBBF-E17B-48DE-A6AB-0C4E62D4ADD4";
shapes = (
{
closed = 1;
nodes = (
(442,714,l),
(-12,20,l),
(-16,0,l),
(625,0,l),
(630,20,l),
(471,714,l)
);
},
{
closed = 1;
nodes = (
(433,643,l),
(564,37,l),
(577,54,l),
(56,54,l),
(70,37,l),
(457,643,l)
);
}
);
width = 714;
}
);
metricLeft = "e-canadian";
metricWidth = "e-canadian";
note = uni1403;
unicode = 5123;
},
{
glyphname = "o-canadian";
kernLeft = ocanleft;
kernRight = ocanright;
lastChange = "2023-01-13 15:28:21 +0000";
layers = (
{
anchors = (
{
name = middle_center_can;
pos = (304,362);
},
{
name = top_center_can;
pos = (467,714);
},
{
name = top_double;
pos = (555,714);
},
{
name = top_left_can;
pos = (212,714);
},
{
name = top_right_can;
pos = (714,714);
}
);
layerId = "DE93BBBF-E17B-48DE-A6AB-0C4E62D4ADD4";
shapes = (
{
closed = 1;
nodes = (
(51,0,l),
(672,343,l),
(678,371,l),
(203,714,l),
(183,714,l),
(31,0,l)
);
},
{
closed = 1;
nodes = (
(225,648,l),
(204,648,l),
(610,354,l),
(613,371,l),
(83,77,l),
(102,70,l)
);
}
);
width = 688;
}
);
metricLeft = "nunavuth-canadian";
note = uni1405;
unicode = 5125;
},
{
glyphname = "eeCarrier-canadian";
lastChange = "2023-01-13 15:28:21 +0000";
layers = (
{
layerId = "DE93BBBF-E17B-48DE-A6AB-0C4E62D4ADD4";
shapes = (
{
closed = 1;
nodes = (
(51,0,l),
(671,342,l),
(678,371,l),
(203,714,l),
(183,714,l),
(31,0,l)
);
},
{
closed = 1;
nodes = (
(224,648,l),
(207,646,l),
(611,354,l),
(615,372,l),
(86,79,l),
(100,70,l)
);
},
{
closed = 1;
nodes = (
(297,264,l),
(338,457,l),
(307,457,l),
(266,264,l)
);
}
);
width = 688;
}
);
metricLeft = "nunavuth-canadian";
metricRight = "o-canadian";
note = uni1408;
unicode = 5128;
},
{
glyphname = "a-canadian";
kernLeft = acanleft;
kernRight = acanright;
lastChange = "2023-01-13 15:28:21 +0000";
layers = (
{
anchors = (
{
name = middle_center_can;
pos = (423,355);
},
{
name = top_center_can;
pos = (418,714);
},
{
name = top_left_can;
pos = (167,714);
},
{
name = top_right_can;
pos = (677,714);
}
);
layerId = "DE93BBBF-E17B-48DE-A6AB-0C4E62D4ADD4";
shapes = (
{
closed = 1;
nodes = (
(685,714,l),
(65,371,l),
(59,343,l),
(533,0,l),
(552.999,0,l),
(704.999,714,l)
);
},
{
closed = 1;
nodes = (
(512,66,l),
(533,66,l),
(127,360,l),
(123,343,l),
(654,637,l),
(634,644,l)
);
}
);
width = 688;
}
);
metricRight = "nunavuth-canadian";
note = uni140A;
unicode = 5130;
},
{
glyphname = "ai-canadian";
lastChange = "2023-01-13 15:28:21 +0000";
layers = (
{
layerId = "DE93BBBF-E17B-48DE-A6AB-0C4E62D4ADD4";
shapes = (
{
closed = 1;
nodes = (
(303,351,o),
(347,384,o),
(373,451,c),
(358,454,l),
(359,387,o),
(396,351,o),
(468,351,cs),
(555,351,o),
(603,399,o),
(625,504,cs),
(670,714,l),
(624,714,l),
(580,504,ls),
(564,427,o),
(531,393,o),
(469,393,cs),
(405,393,o),
(382,429,o),
(398,503,cs),
(443,714,l),
(397,714,l),
(353,506,ls),
(337,428,o),
(302,393,o),
(242,393,cs),
(181,393,o),
(155,431,o),
(170,501,cs),
(216,714,l),
(170,714,l),
(125,503,ls),
(106,410,o),
(149,351,o),
(238,351,cs)
);
}
);
width = 640;
}
);
metricRight = "=|";
note = uni141C;
unicode = 5148;
},
{
glyphname = "ycreew-canadian";
lastChange = "2023-01-13 15:29:21 +0000";
layers = (
{
layerId = "DE93BBBF-E17B-48DE-A6AB-0C4E62D4ADD4";
shapes = (
{
closed = 1;
nodes = (
(434,528,o),
(471,568,o),
(471,624,cs),
(471,681,o),
(435,720,o),
(385,720,cs),
(336,720,o),
(298,681,o),
(298,624,cs),
(298,568,o),
(335,528,o),
(385,528,cs)
);
},
{
closed = 1;
nodes = (
(250,351,o),
(288,391,o),
(288,447,cs),
(288,504,o),
(251,543,o),
(201,543,cs),
(152,543,o),
(114,504,o),
(114,447,cs),
(114,391,o),
(151,351,o),
(201,351,cs)
);
},
{
closed = 1;
nodes = (
(168,380,o),
(145,407,o),
(145,447,cs),
(145,487,o),
(168,514,o),
(201,514,cs),
(234,514,o),
(257,487,o),
(257,447,cs),
(257,407,o),
(234,380,o),
(201,380,cs)
);
},
{
closed = 1;
nodes = (
(351,557,o),
(329,584,o),
(329,624,cs),
(329,664,o),
(352,691,o),
(385,691,cs),
(418,691,o),
(440,664,o),
(440,624,cs),
(440,584,o),
(418,557,o),
(385,557,cs)
);
}
);
width = 461;
}
);
metricRight = "=|";
note = uni141D;
unicode = 5149;
},
{
glyphname = "glottalstop-canadian";
lastChange = "2023-01-13 15:29:21 +0000";
layers = (
{
layerId = "DE93BBBF-E17B-48DE-A6AB-0C4E62D4ADD4";
shapes = (
{
closed = 1;
nodes = (
(408,357,l),
(411,369,l),
(332,714,l),
(316,714,l),
(90,369,l),
(87,357,l)
);
},
{
closed = 1;
nodes = (
(331,671,l),
(304,672,l),
(369,376,l),
(382,394,l),
(130,394,l),
(140,376,l)
);
}
);
width = 448;
}
);
metricRight = "=|";
note = uni141E;
unicode = 5150;
},
{
glyphname = "pe-canadian";
kernLeft = ecanleft;
kernRight = ecanright;
lastChange = "2023-01-13 15:29:21 +0000";
layers = (
{
anchors = (
{
name = middle_center_can;
pos = (401,470);
},
{
name = top_center_can;
pos = (457,714);
},
{
name = top_left_can;
pos = (225,714);
},
{
name = top_right_can;
pos = (684,714);
}
);
layerId = "DE93BBBF-E17B-48DE-A6AB-0C4E62D4ADD4";
shapes = (
{
closed = 1;
nodes = (
(320,0,l),
(774,694,l),
(778,714,l),
(712,714,l),
(299,73,l),
(334,73,l),
(193,714,l),
(137,714,l),
(132,694,l),
(291,0,l)
);
}
);
width = 714;
}
);
metricLeft = "e-canadian";
metricRight = "e-canadian";
note = uni142F;
unicode = 5167;
},
{
glyphname = "pi-canadian";
kernLeft = icanleft;
kernRight = icanright;
lastChange = "2023-01-13 15:29:21 +0000";
layers = (
{
anchors = (
{
name = middle_center_can;
pos = (398,417);
},
{
name = top_center_can;
pos = (457,714);
},
{
name = top_left_can;
pos = (224,714);
},
{
name = top_right_can;
pos = (683,714);
}
);
layerId = "DE93BBBF-E17B-48DE-A6AB-0C4E62D4ADD4";
shapes = (
{
closed = 1;
nodes = (
(442,714,l),
(-12,20,l),
(-16,0,l),
(50,0,l),
(463,641,l),
(428,641,l),
(569,0,l),
(625,0,l),
(630,20,l),
(471,714,l)
);
}
);
width = 714;
}
);
metricLeft = "e-canadian";
metricRight = "e-canadian";
note = uni1431;
unicode = 5169;
},
{
glyphname = "po-canadian";
kernLeft = ocanleft;
kernRight = ocanright;
lastChange = "2023-01-13 15:29:21 +0000";
layers = (
{
anchors = (
{
name = middle_center_can;
pos = (254,364);
},
{
name = top_center_can;
pos = (439,714);
},
{
name = top_double;
pos = (533,714);
},
{
name = top_left_can;
pos = (188,714);
},
{
name = top_right_can;
pos = (683,714);
}
);
layerId = "DE93BBBF-E17B-48DE-A6AB-0C4E62D4ADD4";
name = "Thin Slanted";
shapes = (
{
closed = 1;
nodes = (
(27,0,l),
(641,343,l),
(647,371,l),
(179,714,l),
(159,714,l),
(148,662,l),
(575,349,l),
(582,378,l),
(21,65,l),
(8,0,l)
);
}
);
width = 657;
}
);
metricRight = "o-canadian";
note = uni1433;
unicode = 5171;
},
{
glyphname = "pa-canadian";
kernLeft = acanleft;
kernRight = acanright;
lastChange = "2023-01-13 15:29:21 +0000";
layers = (
{
anchors = (
{
name = middle_center_can;
pos = (315,357);
},
{
name = top_center_can;
pos = (419,714);
},
{
name = top_left_can;
pos = (168,714);
},
{
name = top_right_can;
pos = (669,714);
}
);
layerId = "DE93BBBF-E17B-48DE-A6AB-0C4E62D4ADD4";
shapes = (
{
closed = 1;
nodes = (
(678,714,l),
(65,371,l),
(59,343,l),
(526,0,l),
(546,0,l),
(557,52,l),
(130,365,l),
(124,336,l),
(684,649,l),
(698,714,l)
);
}
);
width = 657;
}
);
metricRight = "=|po-canadian";
note = uni1438;
unicode = 5176;
},
{
glyphname = "p-canadian";
kernLeft = mwestleft;
kernRight = mwestright;
lastChange = "2023-01-13 15:28:21 +0000";
layers = (
{
layerId = "DE93BBBF-E17B-48DE-A6AB-0C4E62D4ADD4";
shapes = (
{
closed = 1;
nodes = (
(373,357,l),
(381,395,l),
(175,548,l),
(168,515,l),
(439,667,l),
(449,714,l),
(436,714,l),
(134,545,l),
(130,527,l),
(360,357,l)
);
}
);
width = 419;
}
);
note = uni1449;
unicode = 5193;
},
{
glyphname = "pWestCree-canadian";
kernLeft = mwestleft;
kernRight = mwestright;
lastChange = "2023-01-13 15:28:21 +0000";
layers = (
{
layerId = "DE93BBBF-E17B-48DE-A6AB-0C4E62D4ADD4";
shapes = (
{
closed = 1;
nodes = (
(142,357,l),
(218,714,l),
(170,714,l),
(94,357,l)
);
}
);
width = 188;
}
);
metricRight = "=|";
note = uni144A;
unicode = 5194;
},
{
color = 6;
glyphname = "hCarrier-canadian";
lastChange = "2023-01-13 15:28:21 +0000";
layers = (
{
layerId = "DE93BBBF-E17B-48DE-A6AB-0C4E62D4ADD4";
shapes = (
{
closed = 1;
nodes = (
(106,189,l),
(136,331,ls),
(146,379,o),
(177,406,o),
(218,406,cs),
(264,406,o),
(283,377,o),
(272,326,cs),
(243,189,l),
(290,189,l),
(321,332,ls),
(336,404,o),
(299,449,o),
(233,449,cs),
(185,449,o),
(143,420,o),
(131,379,c),
(145,374,l),
(182,546,l),
(134,546,l),
(58,189,l)
);
}
);
width = 350;
}
);
metricLeft = "pWestCree-canadian";
note = uni144B;
unicode = 5195;
},
{
glyphname = "te-canadian";
lastChange = "2023-01-13 15:29:21 +0000";
layers = (
{
anchors = (
{
name = middle_center_can;
pos = (380,357);
},
{
name = top_center_can;
pos = (456,714);
},
{
name = top_left_can;
pos = (208,714);
},
{
name = top_right_can;
pos = (705,714);
}
);
layerId = "DE93BBBF-E17B-48DE-A6AB-0C4E62D4ADD4";
shapes = (
{
closed = 1;
nodes = (
(502,-13,o),
(602,82,o),
(644,275,cs),
(737,714,l),
(673,714,l),
(581,279,ls),
(547,119,o),
(469,47,o),
(333,47,cs),
(177,47,o),
(115,130,o),
(152,301,cs),
(240,714,l),
(176,714,l),
(89,304,ls),
(45,100,o),
(137,-13,o),
(329,-13,cs)
);
}
);
width = 714;
}
);
metricRight = "=|";
note = uni144C;
unicode = 5196;
},
{
glyphname = "ti-canadian";
lastChange = "2023-01-13 15:28:21 +0000";
layers = (
{
anchors = (
{
name = middle_center_can;
pos = (380,357);
},
{
name = middle_right_can;
pos = (825,357);
},
{
name = top_center_can;
pos = (456,714);
},
{
name = top_left_can;
pos = (208,714);
},
{
name = top_right_can;
pos = (705,714);
}
);
layerId = "DE93BBBF-E17B-48DE-A6AB-0C4E62D4ADD4";
shapes = (
{
closed = 1;
nodes = (
(88,0,l),
(180,435,ls),
(214,595,o),
(293,667,o),
(428,667,cs),
(584,667,o),
(646,584,o),
(609,413,cs),
(521,0,l),
(585,0,l),
(672,410,ls),
(716,614,o),
(624,727,o),
(432,727,cs),
(259,727,o),
(159,632,o),
(117,439,cs),
(24,0,l)
);
}
);
width = 713;
}
);
metricLeft = "te-canadian";
metricRight = "te-canadian";
note = uni144E;
unicode = 5198;
},
{
glyphname = "to-canadian";
kernLeft = toleft;
lastChange = "2023-01-13 15:28:21 +0000";
layers = (
{
anchors = (
{
name = middle_center_can;
pos = (292,357);
},
{
name = middle_right_can;
pos = (725,357);
},
{
name = top_center_can;
pos = (373,714);
},
{
name = top_double;
pos = (430,714);
},
{
name = top_left_can;
pos = (190,714);
},
{
name = top_right_can;
pos = (609,714);
}
);
layerId = "DE93BBBF-E17B-48DE-A6AB-0C4E62D4ADD4";
shapes = (
{
closed = 1;
nodes = (
(163,0,ls),
(483,0,o),
(569,272,o),
(569,449,cs),
(569,617,o),
(472,714,o),
(298,714,cs),
(161,714,l),
(149,656,l),
(289,656,ls),
(431,656,o),
(505,583,o),
(505,447,cs),
(505,299,o),
(437,58,o),
(170,58,cs),
(22,58,l),
(9,0,l)
);
}
);
width = 606;
}
);
note = uni1450;
unicode = 5200;
},
{
glyphname = "ta-canadian";
kernRight = taright;
lastChange = "2023-01-13 15:28:21 +0000";
layers = (
{
anchors = (
{
name = middle_center_can;
pos = (362,357);
},
{
name = top_center_can;
pos = (433,714);
},
{
name = top_left_can;
pos = (196,714);
},
{
name = top_right_can;
pos = (615,714);
}
);
layerId = "DE93BBBF-E17B-48DE-A6AB-0C4E62D4ADD4";
shapes = (
{
closed = 1;
nodes = (
(493,0,l),
(505,58,l),
(364,58,ls),
(222,58,o),
(149,131,o),
(149,267,cs),
(149,417,o),
(217,656,o),
(483,656,cs),
(632,656,l),
(645,714,l),
(489,714,ls),
(171,714,o),
(85,443,o),
(85,265,cs),
(85,97,o),
(181,0,o),
(355,0,cs)
);
}
);
width = 606;
}
);
metricLeft = "=|to-canadian";
metricRight = "=|to-canadian";
note = uni1455;
unicode = 5205;
},
{
glyphname = "t-canadian";
kernLeft = mwestleft;
kernRight = mwestright;
lastChange = "2023-01-13 15:28:21 +0000";
layers = (
{
layerId = "DE93BBBF-E17B-48DE-A6AB-0C4E62D4ADD4";
shapes = (
{
closed = 1;
nodes = (
(331,357,l),
(341,401,l),
(273,401,ls),
(207,401,o),
(174,436,o),
(174,496,cs),
(174,571,o),
(208,670,o),
(330,670,cs),
(397,670,l),
(407,714,l),
(336,714,ls),
(193,714,o),
(126,609,o),
(126,494,cs),
(126,409,o),
(178,357,o),
(268,357,cs)
);
}
);
width = 374;
}
);
note = uni1466;
unicode = 5222;
},
{
glyphname = "ke-canadian";
lastChange = "2023-01-13 15:28:21 +0000";
layers = (
{
anchors = (
{
name = middle_center_can;
pos = (356,457);
},
{
name = top_center_can;
pos = (389,714);
},
{
name = top_left_can;
pos = (199,714);
},
{
name = top_right_can;
pos = (573,716);
}
);
layerId = "DE93BBBF-E17B-48DE-A6AB-0C4E62D4ADD4";
shapes = (
{
closed = 1;
nodes = (
(460,0,l),
(553,436,ls),
(583,579,o),
(538,727,o),
(369,727,cs),
(186,727,o),
(115,546,o),
(115,415,cs),
(115,291,o),
(188,213,o),
(302,213,cs),
(386,213,o),
(450,258,o),
(483,338,c),
(471,353,l),
(396,0,l)
);
},
{
closed = 1;
nodes = (
(228,268,o),
(177,324,o),
(177,416,cs),
(177,510,o),
(225,671,o),
(364,671,cs),
(450,671,o),
(500,615,o),
(500,522,cs),
(500,426,o),
(452,268,o),
(314,268,cs)
);
}
);
width = 588;
}
);
metricRight = "te-canadian";
note = uni146B;
unicode = 5227;
},
{
glyphname = "ki-canadian";
lastChange = "2023-01-13 15:28:21 +0000";
layers = (
{
anchors = (
{
name = middle_center_can;
pos = (363,457);
},
{
name = top_center_can;
pos = (392,714);
},
{
name = top_left_can;
pos = (208,714);
},
{
name = top_right_can;
pos = (586,714);
}
);
layerId = "DE93BBBF-E17B-48DE-A6AB-0C4E62D4ADD4";
shapes = (
{
closed = 1;
nodes = (
(88,0,l),
(167,374,l),
(156,369,l),
(151,287,o),
(217,213,o),
(321,213,cs),
(500,213,o),
(568,396,o),
(568,522,cs),
(568,649,o),
(494,727,o),
(373,727,cs),
(249,727,o),
(161,645,o),
(130,499,cs),
(24,0,l)
);
},
{
closed = 1;
nodes = (
(233,268,o),
(183,324,o),
(183,417,cs),
(183,509,o),
(230,671,o),
(369,671,cs),
(455,671,o),
(506,616,o),
(506,523,cs),
(506,430,o),
(458,268,o),
(320,268,cs)
);
}
);
width = 588;
}
);
metricLeft = "te-canadian";
metricRight = "=|ke-canadian";
note = uni146D;
unicode = 5229;
},
{
glyphname = "ko-canadian";
lastChange = "2023-01-13 15:28:21 +0000";
layers = (
{
anchors = (
{
name = middle_center_can;
pos = (348,411);
},
{
name = top_center_can;
pos = (390,714);
},
{
name = top_double;
pos = (579,714);
},
{
name = top_left_can;
pos = (201,714);
},
{
name = top_right_can;
pos = (579,714);
}
);
layerId = "DE93BBBF-E17B-48DE-A6AB-0C4E62D4ADD4";
shapes = (
{
closed = 1;
nodes = (
(388,-13,o),
(475,69,o),
(506,215,cs),
(612,714,l),
(548,714,l),
(468,340,l),
(479,345,l),
(484,427,o),
(419,501,o),
(314,501,cs),
(134,501,o),
(67,316,o),
(67,192,cs),
(67,65,o),
(141,-13,o),
(264,-13,cs)
);
},
{
closed = 1;
nodes = (
(180,43,o),
(129,98,o),
(129,191,cs),
(129,284,o),
(178,445,o),
(316,445,cs),
(402,445,o),
(452,390,o),
(452,297,cs),
(452,203,o),
(406,43,o),
(266,43,cs)
);
}
);
width = 588;
}
);
metricLeft = "ke-canadian";
metricRight = "te-canadian";
note = uni146F;
unicode = 5231;
},
{
glyphname = "ka-canadian";
lastChange = "2023-01-13 15:28:21 +0000";
layers = (
{
anchors = (
{
name = middle_center_can;
pos = (353,412);
},
{
name = top_center_can;
pos = (396,714);
},
{
name = top_left_can;
pos = (208,714);
},
{
name = top_right_can;
pos = (586,714);
}
);
layerId = "DE93BBBF-E17B-48DE-A6AB-0C4E62D4ADD4";
shapes = (
{
closed = 1;
nodes = (
(449,-13,o),
(521,168,o),
(521,299,cs),
(521,423,o),
(448,501,o),
(334,501,cs),
(251,501,o),
(187,456,o),
(153,376,c),
(165,361,l),
(240,714,l),
(176,714,l),
(83,278,ls),
(46,101,o),
(123,-13,o),
(269,-13,cs)
);
},
{
closed = 1;
nodes = (
(186,43,o),
(136,99,o),
(136,192,cs),
(136,288,o),
(184,446,o),
(322,446,cs),
(408,446,o),
(458,390,o),
(458,298,cs),
(458,204,o),
(411,43,o),
(272,43,cs)
);
}
);
width = 588;
}
);
metricLeft = "te-canadian";
metricRight = "==|ke-canadian";
note = uni1472;
unicode = 5234;
},
{
glyphname = "k-canadian";
kernLeft = mwestleft;
kernRight = mwestright;
lastChange = "2023-01-13 15:28:21 +0000";
layers = (
{
layerId = "DE93BBBF-E17B-48DE-A6AB-0C4E62D4ADD4";
shapes = (
{
closed = 1;
nodes = (
(319,351,o),
(367,442,o),
(367,517,cs),
(367,580,o),
(329,622,o),
(270,622,cs),
(221,622,o),
(183,591,o),
(165,544,c),
(181,542,l),
(218,714,l),
(170,714,l),
(125.005,502.995,ls),
(109,430,o),
(133,351,o),
(227,351,cs)
);
},
{
closed = 1;
nodes = (
(189,389,o),
(164,416,o),
(164,460,cs),
(164,512,o),
(196,584,o),
(258,584,cs),
(299,584,o),
(324,558,o),
(324,514,cs),
(324,461,o),
(292,389,o),
(229,389,cs)
);
}
);
width = 374;
}
);
note = uni1483;
unicode = 5251;
},
{
glyphname = "kw-canadian";
kernLeft = mwestleft;
kernRight = mwestright;
lastChange = "2023-01-13 15:29:21 +0000";
layers = (
{
layerId = "DE93BBBF-E17B-48DE-A6AB-0C4E62D4ADD4";
shapes = (
{
closed = 1;
nodes = (
(288,351,o),
(337,395,o),
(354,479,cs),
(405,714,l),
(357,714,l),
(319,538,l),
(333,538,l),
(333,586,o),
(297,622,o),
(244,622,cs),
(157,622,o),
(111,531,o),
(111,459,cs),
(111,394,o),
(152,351,o),
(219,351,cs)
);
},
{
closed = 1;
nodes = (
(179,389,o),
(154,415,o),
(154,459,cs),
(154,511,o),
(185,584,o),
(248,584,cs),
(288,584,o),
(314,557,o),
(314,513,cs),
(314,463,o),
(284,389,o),
(219,389,cs)
);
}
);
width = 375;
}
);
metricLeft = "=|k-canadian";
metricRight = "=|k-canadian";
note = uni1484;
unicode = 5252;
},
{
glyphname = "ce-canadian";
kernLeft = celeft;
lastChange = "2023-01-13 15:29:21 +0000";
layers = (
{
anchors = (
{
name = middle_center_can;
pos = (351,434);
},
{
name = top_center_can;
pos = (391,714);
},
{
name = top_left_can;
pos = (202,714);
},
{
name = top_right_can;
pos = (577,714);
}
);
layerId = "DE93BBBF-E17B-48DE-A6AB-0C4E62D4ADD4";
shapes = (
{
closed = 1;
nodes = (
(457,0,l),
(554,456,ls),
(588,617,o),
(515,727,o),
(368,727,cs),
(235,727,o),
(157,648,o),
(122,486,cs),
(104,405,l),
(168,405,l),
(184,483,ls),
(211,612,o),
(269,670,o),
(363,670,cs),
(474,670,o),
(518,591,o),
(491,464,cs),
(393,0,l)
);
}
);
width = 585;
}
);
metricRight = "te-canadian";
note = uni1489;
unicode = 5257;
},
{
glyphname = "ci-canadian";
kernRight = ciright;
lastChange = "2023-01-13 15:28:21 +0000";
layers = (
{
anchors = (
{
name = middle_center_can;
pos = (354,434);
},
{
name = top_center_can;
pos = (397,714);
},
{
name = top_left_can;
pos = (208,714);
},
{
name = top_right_can;
pos = (584,714);
}
);
layerId = "DE93BBBF-E17B-48DE-A6AB-0C4E62D4ADD4";
shapes = (
{
closed = 1;
nodes = (
(88,0,l),
(190,483,ls),
(217,612,o),
(274,670,o),
(369,670,cs),
(481,670,o),
(524,591,o),
(497,464,cs),
(485,405,l),
(548,405,l),
(559,456,ls),
(595,617,o),
(521,727,o),
(374,727,cs),
(241,727,o),
(162,648,o),
(127,486,cs),
(24,0,l)
);
}
);
width = 584;
}
);
metricLeft = "te-canadian";
metricRight = "=|ce-canadian";
note = uni148B;
unicode = 5259;
},
{
glyphname = "co-canadian";
kernLeft = coleft;
lastChange = "2023-01-13 15:29:21 +0000";
layers = (
{
anchors = (
{
name = middle_center_can;
pos = (352,434);
},
{
name = top_center_can;
pos = (390,714);
},
{
name = top_double;
pos = (577,714);
},
{
name = top_left_can;
pos = (202,714);
},
{
name = top_right_can;
pos = (577,714);
}
);
layerId = "DE93BBBF-E17B-48DE-A6AB-0C4E62D4ADD4";
shapes = (
{
closed = 1;
nodes = (
(391,-13,o),
(470,66,o),
(505,228,cs),
(609,714,l),
(545,714,l),
(442,231,ls),
(415,102,o),
(358,44,o),
(263,44,cs),
(151,44,o),
(109,123,o),
(135,250,cs),
(147,309,l),
(84,309,l),
(73,258,ls),
(38,97,o),
(111,-13,o),
(258,-13,cs)
);
}
);
width = 585;
}
);
metricLeft = "ce-canadian";
metricRight = "te-canadian";
note = uni148D;
unicode = 5261;
},
{
glyphname = "ca-canadian";
kernRight = caright;
lastChange = "2023-01-13 15:28:21 +0000";
layers = (
{
anchors = (
{
name = middle_center_can;
pos = (355,434);
},
{
name = top_center_can;
pos = (398,714);
},
{
name = top_left_can;
pos = (208,714);
},
{
name = top_right_can;
pos = (582,714);
}
);
layerId = "DE93BBBF-E17B-48DE-A6AB-0C4E62D4ADD4";
shapes = (
{
closed = 1;
nodes = (
(397,-13,o),
(475,66,o),
(510,228,cs),
(527,309,l),
(464,309,l),
(448,231,ls),
(420,102,o),
(364,44,o),
(269,44,cs),
(158,44,o),
(114,123,o),
(141,250,cs),
(240,714,l),
(176,714,l),
(79,258,ls),
(44,97,o),
(117,-13,o),
(264,-13,cs)
);
}
);
width = 584;
}
);
metricLeft = "te-canadian";
metricRight = "=|ce-canadian";
note = uni1490;
unicode = 5264;
},
{
glyphname = "c-canadian";
kernLeft = mwestleft;
kernRight = mwestright;
lastChange = "2023-01-13 15:28:21 +0000";
layers = (
{
layerId = "DE93BBBF-E17B-48DE-A6AB-0C4E62D4ADD4";
shapes = (
{
closed = 1;
nodes = (
(297,351,o),
(346,393,o),
(362,470,cs),
(369,502,l),
(324,502,l),
(317,468,ls),
(305,417,o),
(275,391,o),
(229,391,cs),
(177,391,o),
(156,423,o),
(169,484,cs),
(218,714,l),
(170,714,l),
(123,489,ls),
(105,405,o),
(144,351,o),
(227,351,cs)
);
}
);
width = 364;
}
);
note = uni14A1;
unicode = 5281;
},
{
glyphname = "thSayisi-canadian";
lastChange = "2023-01-13 15:29:21 +0000";
layers = (
{
layerId = "DE93BBBF-E17B-48DE-A6AB-0C4E62D4ADD4";
shapes = (
{
closed = 1;
nodes = (
(280,351,o),
(326,393,o),
(343,471,cs),
(395,714,l),
(347,714,l),
(295,470,ls),
(284,415,o),
(252,391,o),
(208,391,cs),
(154,391,o),
(134,426,o),
(145,478,cs),
(150,502,l),
(105,502,l),
(101,484,ls),
(84,407,o),
(125,351,o),
(206,351,cs)
);
}
);
width = 365;
}
);
metricLeft = "=|c-canadian";
metricRight = "=|c-canadian";
note = uni14A2;
unicode = 5282;
},
{
glyphname = "me-canadian";
kernLeft = meleft;
lastChange = "2023-01-13 15:28:21 +0000";
layers = (
{
anchors = (
{
name = middle_center_can;
pos = (232,357);
},
{
name = top_center_can;
pos = (341,714);
},
{
name = top_left_can;
pos = (175,714);
},
{
name = top_right_can;
pos = (505,714);
}
);
layerId = "DE93BBBF-E17B-48DE-A6AB-0C4E62D4ADD4";
shapes = (
{
closed = 1;
nodes = (
(385.006,0,l),
(537.006,714,l),
(143,714,l),
(131,656,l),
(461,656,l),
(321,0,l)
);
}
);
width = 520;
}
);
metricRight = "nunavuth-canadian";
note = uni14A3;
unicode = 5283;
},
{
glyphname = "mi-canadian";
kernRight = miright;
lastChange = "2023-01-13 15:29:21 +0000";
layers = (
{
anchors = (
{
name = middle_center_can;
pos = (337,357);
},
{
name = top_center_can;
pos = (380,714);
},
{
name = top_left_can;
pos = (216,714);
},
{
name = top_right_can;
pos = (545,714);
}
);
layerId = "DE93BBBF-E17B-48DE-A6AB-0C4E62D4ADD4";
shapes = (
{
closed = 1;
nodes = (
(95,0,l),
(235,656,l),
(565,656,l),
(577,714,l),
(183,714,l),
(31,0,l)
);
}
);
width = 521;
}
);
metricLeft = "nunavuth-canadian";
metricRight = "=|me-canadian";
note = uni14A5;
unicode = 5285;
},
{
glyphname = "mo-canadian";
kernLeft = moleft;
lastChange = "2023-01-13 15:28:21 +0000";
layers = (
{
anchors = (
{
name = middle_center_can;
pos = (232,357);
},
{
name = top_center_can;
pos = (341,714);
},
{
name = top_double;
pos = (505,714);
},
{
name = top_left_can;
pos = (175,714);
},
{
name = top_right_can;
pos = (505,714);
}
);
layerId = "DE93BBBF-E17B-48DE-A6AB-0C4E62D4ADD4";
shapes = (
{
closed = 1;
nodes = (
(385.006,0,l),
(537.006,714,l),
(473,714,l),
(334,58,l),
(3,58,l),
(-9,0,l)
);
}
);
width = 520;
}
);
metricLeft = "me-canadian";
metricRight = "nunavuth-canadian";
note = uni14A7;
unicode = 5287;
},
{
glyphname = "ma-canadian";
kernRight = maright;
lastChange = "2023-01-13 15:29:21 +0000";
layers = (
{
anchors = (
{
name = middle_center_can;
pos = (337,357);
},
{
name = top_center_can;
pos = (380,714);
},
{
name = top_left_can;
pos = (216,714);
},
{
name = top_right_can;
pos = (545,714);
}
);
layerId = "DE93BBBF-E17B-48DE-A6AB-0C4E62D4ADD4";
shapes = (
{
closed = 1;
nodes = (
(425,0,l),
(438,58,l),
(108,58,l),
(247,714,l),
(183,714,l),
(31,0,l)
);
}
);
width = 521;
}
);
metricLeft = "nunavuth-canadian";
metricRight = "=|me-canadian";
note = uni14AA;
unicode = 5290;
},
{
glyphname = "m-canadian";
kernLeft = mwestleft;
kernRight = mwestright;
lastChange = "2023-01-13 15:28:21 +0000";
layers = (
{
layerId = "DE93BBBF-E17B-48DE-A6AB-0C4E62D4ADD4";
shapes = (
{
closed = 1;
nodes = (
(310,357,l),
(320,401,l),
(151,401,l),
(218,714,l),
(170,714,l),
(94,357,l)
);
}
);
width = 337;
}
);
metricLeft = "pWestCree-canadian";
note = uni14BB;
unicode = 5307;
},
{
glyphname = "mh-canadian";
kernLeft = mwestleft;
kernRight = mwestright;
lastChange = "2023-01-13 15:29:21 +0000";
layers = (
{
layerId = "DE93BBBF-E17B-48DE-A6AB-0C4E62D4ADD4";
shapes = (
{
closed = 1;
nodes = (
(290,357,l),
(366,714,l),
(319,714,l),
(252,401,l),
(83,401,l),
(74,357,l)
);
}
);
width = 336;
}
);
metricLeft = "=|m-canadian";
metricRight = "=|m-canadian";
note = uni14BD;
unicode = 5309;
},
{
glyphname = "mAthapascan-canadian";
lastChange = "2023-01-13 15:28:21 +0000";
layers = (
{
layerId = "DE93BBBF-E17B-48DE-A6AB-0C4E62D4ADD4";
shapes = (
{
closed = 1;
nodes = (
(327,357,l),
(336,397,l),
(157,397,l),
(155,373,l),
(298,500,ls),
(341,539,o),
(365,576,o),
(365,626,cs),
(365,682,o),
(326,720,o),
(265,720,cs),
(198,720,o),
(150,682,o),
(135,594,c),
(179,594,l),
(190,656,o),
(219,682,o),
(262,682,cs),
(299,682,o),
(322,661,o),
(322,625,cs),
(322,584,o),
(303,556,o),
(258,516,cs),
(104,380,l),
(99,357,l)
);
}
);
width = 357;
}
);
note = uni14BE;
unicode = 5310;
},
{
glyphname = "ne-canadian";
kernLeft = neleft;
lastChange = "2023-01-13 15:29:21 +0000";
layers = (
{
anchors = (
{
name = middle_center_can;
pos = (520,254);
},
{
name = top_center_can;
pos = (565,507);
},
{
name = top_left_can;
pos = (152,507);
},
{
name = top_right_can;
pos = (770,507);
}
);
layerId = "DE93BBBF-E17B-48DE-A6AB-0C4E62D4ADD4";
shapes = (
{
closed = 1;
nodes = (
(663,-13,o),
(747,151,o),
(747,287,cs),
(747,409,o),
(670,489,o),
(535,489,cs),
(116,489,l),
(104,431,l),
(455,431,l),
(455,458,l),
(326,423,o),
(285,282,o),
(285,189,cs),
(285,68,o),
(363,-13,o),
(493,-13,cs)
);
},
{
closed = 1;
nodes = (
(400,43,o),
(347,101,o),
(347,190,cs),
(347,292,o),
(403,433,o),
(537,433,cs),
(632,433,o),
(684,375,o),
(684,286,cs),
(684,184,o),
(628,43,o),
(494,43,cs)
);
}
);
width = 816;
}
);
metricRight = "=|ke-canadian";
note = uni14C0;
unicode = 5312;
},
{
glyphname = "ni-canadian";
kernRight = niright;
lastChange = "2023-01-13 15:28:21 +0000";
layers = (
{
anchors = (
{
name = middle_center_can;
pos = (298,254);
},
{
name = top_center_can;
pos = (361,507);
},
{
name = top_left_can;
pos = (156,507);
},
{
name = top_right_can;
pos = (775,507);
}
);
layerId = "DE93BBBF-E17B-48DE-A6AB-0C4E62D4ADD4";
shapes = (
{
closed = 1;
nodes = (
(444,-13,o),
(528,151,o),
(528,287,cs),
(528,357,o),
(496,412,o),
(447,438,c),
(438,431,l),
(791,431,l),
(803,489,l),
(326,489,ls),
(148,489,o),
(66,327,o),
(66,190,cs),
(66,68,o),
(144,-13,o),
(274,-13,cs)
);
},
{
closed = 1;
nodes = (
(181,43,o),
(129,101,o),
(129,190,cs),
(129,292,o),
(185,433,o),
(319,433,cs),
(413,433,o),
(465,375,o),
(465,286,cs),
(465,184,o),
(409,43,o),
(275,43,cs)
);
}
);
width = 815;
}
);
metricLeft = "ke-canadian";
metricRight = "=|ne-canadian";
note = uni14C2;
unicode = 5314;
},
{
glyphname = "no-canadian";
kernLeft = noleft;
lastChange = "2023-01-13 15:28:21 +0000";
layers = (
{
anchors = (
{
name = middle_center_can;
pos = (521,254);
},
{
name = top_center_can;
pos = (571,507);
},
{
name = top_double;
pos = (575,507);
},
{
name = top_left_can;
pos = (152,507);
},
{
name = top_right_can;
pos = (771,507);
}
);
layerId = "DE93BBBF-E17B-48DE-A6AB-0C4E62D4ADD4";
shapes = (
{
closed = 1;
nodes = (
(489,0,ls),
(667,0,o),
(749,162,o),
(749,299,cs),
(749,421,o),
(671,501,o),
(541,501,cs),
(371,501,o),
(287,337,o),
(287,202,cs),
(287,131,o),
(320,77,o),
(369,51,c),
(377,58,l),
(24,58,l),
(12,0,l)
);
},
{
closed = 1;
nodes = (
(402,56,o),
(350,113,o),
(350,203,cs),
(350,304,o),
(406,445,o),
(540,445,cs),
(635,445,o),
(687,388,o),
(687,299,cs),
(687,197,o),
(631,56,o),
(497,56,cs)
);
}
);
width = 815;
}
);
metricLeft = "ne-canadian";
metricRight = "=|ke-canadian";
note = uni14C4;
unicode = 5316;
},
{
glyphname = "na-canadian";
kernRight = naright;
lastChange = "2023-01-13 15:29:21 +0000";
layers = (
{
anchors = (
{
name = middle_center_can;
pos = (299,254);
},
{
name = top_center_can;
pos = (356,507);
},
{
name = top_double;
pos = (501,507);
},
{
name = top_left_can;
pos = (157,507);
},
{
name = top_right_can;
pos = (775,507);
}
);
layerId = "DE93BBBF-E17B-48DE-A6AB-0C4E62D4ADD4";
shapes = (
{
closed = 1;
nodes = (
(699,0,l),
(712,58,l),
(361,58,l),
(360,31,l),
(489,66,o),
(530,207,o),
(530,300,cs),
(530,421,o),
(452,501,o),
(322,501,cs),
(152,501,o),
(69,337,o),
(69,202,cs),
(69,80,o),
(146,0,o),
(280,0,cs)
);
},
{
closed = 1;
nodes = (
(183,56,o),
(131,113,o),
(131,203,cs),
(131,304,o),
(187,445,o),
(321,445,cs),
(416,445,o),
(468,388,o),
(468,299,cs),
(468,197,o),
(412,56,o),
(278,56,cs)
);
}
);
width = 816;
}
);
metricLeft = "ke-canadian";
metricRight = "=|ne-canadian";
note = uni14C7;
unicode = 5319;
},
{
glyphname = "n-canadian";
kernLeft = mwestleft;
kernRight = mwestright;
lastChange = "2023-01-13 15:28:21 +0000";
layers = (
{
layerId = "DE93BBBF-E17B-48DE-A6AB-0C4E62D4ADD4";
shapes = (
{
closed = 1;
nodes = (
(477,449,l),
(486,494,l),
(298,494,l),
(295,468,l),
(354,487,o),
(377,562,o),
(377,609,cs),
(377,676,o),
(335,720,o),
(268,720,cs),
(179,720,o),
(132,637,o),
(132,561,cs),
(132,493,o),
(174,449,o),
(242,449,cs)
);
},
{
closed = 1;
nodes = (
(199,487,o),
(174,516,o),
(174,560,cs),
(174,605,o),
(198,683,o),
(267,683,cs),
(310,683,o),
(335,654,o),
(335,610,cs),
(335,565,o),
(311,487,o),
(242,487,cs)
);
}
);
width = 484;
}
);
metricLeft = "=|k-canadian";
note = uni14D0;
unicode = 5328;
},
{
glyphname = "nh-canadian";
kernLeft = mwestleft;
kernRight = mwestright;
lastChange = "2023-01-13 15:29:21 +0000";
layers = (
{
layerId = "DE93BBBF-E17B-48DE-A6AB-0C4E62D4ADD4";
shapes = (
{
closed = 1;
nodes = (
(356,449,ls),
(449,449,o),
(496,533,o),
(496,610,cs),
(496,677,o),
(453,720,o),
(386,720,cs),
(297,720,o),
(250,637,o),
(250,561,cs),
(250,519,o),
(272,489,o),
(292,477,c),
(298,494,l),
(103,494,l),
(93,449,l)
);
},
{
closed = 1;
nodes = (
(318,487,o),
(293,516,o),
(293,560,cs),
(293,605,o),
(316,683,o),
(385,683,cs),
(428,683,o),
(453,654,o),
(453,610,cs),
(453,565,o),
(430,487,o),
(361,487,cs)
);
}
);
width = 484;
}
);
metricLeft = "=|n-canadian";
metricRight = "=|n-canadian";
note = uni14D2;
unicode = 5330;
},
{
glyphname = "le-canadian";
kernLeft = neleft;
lastChange = "2023-01-13 15:29:21 +0000";
layers = (
{
anchors = (
{
name = middle_center_can;
pos = (520,254);
},
{
name = top_center_can;
pos = (565,507);
},
{
name = top_left_can;
pos = (152,507);
},
{
name = top_right_can;
pos = (770,507);
}
);
layerId = "DE93BBBF-E17B-48DE-A6AB-0C4E62D4ADD4";
shapes = (
{
closed = 1;
nodes = (
(450.008,0,ls),
(672,0,o),
(748,156,o),
(748,291,cs),
(748,412,o),
(670,489,o),
(539,489,cs),
(116,489,l),
(104,430,l),
(526,430,ls),
(629,430,o),
(684,379,o),
(684,288,cs),
(684,186,o),
(633,57,o),
(456,57,cs),
(414,57,l),
(402,0,l)
);
}
);
width = 816;
}
);
metricLeft = "ne-canadian";
metricRight = "=|ke-canadian";
note = uni14D3;
unicode = 5331;
},
{
glyphname = "li-canadian";
kernRight = niright;
lastChange = "2023-01-13 15:29:21 +0000";
layers = (
{
anchors = (
{
name = middle_center_can;
pos = (300,254);
},
{
name = top_center_can;
pos = (363,507);
},
{
name = top_left_can;
pos = (158,507);
},
{
name = top_right_can;
pos = (776,507);
}
);
layerId = "DE93BBBF-E17B-48DE-A6AB-0C4E62D4ADD4";
shapes = (
{
closed = 1;
nodes = (
(310,0,l),
(322,57,l),
(285,57,ls),
(186,57,o),
(131,111,o),
(131,201,cs),
(131,303,o),
(184,430,o),
(362,430,cs),
(791,430,l),
(803,489,l),
(367,489,ls),
(149,489,o),
(68,339,o),
(68,200,cs),
(68,80,o),
(145,0,o),
(271,0,cs)
);
}
);
width = 816;
}
);
metricLeft = "ke-canadian";
metricRight = "=|ne-canadian";
note = uni14D5;
unicode = 5333;
},
{
glyphname = "lo-canadian";
kernLeft = noleft;
lastChange = "2023-01-13 15:29:21 +0000";
layers = (
{
anchors = (
{
name = middle_center_can;
pos = (519,254);
},
{
name = top_center_can;
pos = (569,507);
},
{
name = top_double;
pos = (556,507);
},
{
name = top_left_can;
pos = (152,507);
},
{
name = top_right_can;
pos = (770,507);
}
);
layerId = "DE93BBBF-E17B-48DE-A6AB-0C4E62D4ADD4";
shapes = (
{
closed = 1;
nodes = (
(448,0,ls),
(667,0,o),
(748,150,o),
(748,288,cs),
(748,409,o),
(670,489,o),
(544,489,cs),
(505,489,l),
(494,431,l),
(530,431,ls),
(629,431,o),
(685,378,o),
(685,288,cs),
(685,186,o),
(631,58,o),
(454,58,cs),
(24,58,l),
(12,0,l)
);
}
);
width = 816;
}
);
metricLeft = "ne-canadian";
metricRight = "=|ke-canadian";
note = uni14D7;
unicode = 5335;
},
{
glyphname = "la-canadian";
kernRight = naright;
lastChange = "2023-01-13 15:29:21 +0000";
layers = (
{
anchors = (
{
name = middle_center_can;
pos = (300,254);
},
{
name = top_center_can;
pos = (357,507);
},
{
name = top_left_can;
pos = (158,507);
},
{
name = top_right_can;
pos = (775,507);
}
);
layerId = "DE93BBBF-E17B-48DE-A6AB-0C4E62D4ADD4";
shapes = (
{
closed = 1;
nodes = (
(699,0,l),
(712,58,l),
(289,58,ls),
(187,58,o),
(132,110,o),
(132,201,cs),
(132,303,o),
(182,431,o),
(359,431,cs),
(401,431,l),
(413,489,l),
(365,489,ls),
(143,489,o),
(68,333,o),
(68,198,cs),
(68,77,o),
(146,0,o),
(276,0,cs)
);
}
);
width = 816;
}
);
metricLeft = "ke-canadian";
metricRight = "=|ne-canadian";
note = uni14DA;
unicode = 5338;
},
{
glyphname = "l-canadian";
kernLeft = mwestleft;
kernRight = mwestright;
lastChange = "2023-01-13 15:29:21 +0000";
layers = (
{
layerId = "DE93BBBF-E17B-48DE-A6AB-0C4E62D4ADD4";
shapes = (
{
closed = 1;
nodes = (
(457,357,l),
(466,401,l),
(274,401,ls),
(208,401,o),
(174,435,o),
(174,496,cs),
(174,569,o),
(206,670,o),
(328,670,cs),
(349,670,l),
(358,714,l),
(333,714,ls),
(190,714,o),
(127,608,o),
(127,494,cs),
(127,407,o),
(179,357,o),
(272,357,cs)
);
}
);
width = 483;
}
);
metricLeft = "t-canadian";
metricRight = "m-canadian";
note = uni14EA;
unicode = 5354;
},
{
glyphname = "lWestCree-canadian";
kernLeft = mwestleft;
kernRight = mwestright;
lastChange = "2023-01-13 15:28:21 +0000";
layers = (
{
layerId = "DE93BBBF-E17B-48DE-A6AB-0C4E62D4ADD4";
shapes = (
{
closed = 1;
nodes = (
(336,357,l),
(342,387,l),
(158,466,l),
(152,444,l),
(371,521,l),
(376,545,l),
(190,621,l),
(185,598,l),
(404,679,l),
(412,714,l),
(401,714,l),
(151,623,l),
(147,603,l),
(336,526,l),
(340,545,l),
(118,468,l),
(114,448,l),
(325,357,l)
);
}
);
width = 382;
}
);
metricRight = "=|";
note = uni14EB;
unicode = 5355;
},
{
glyphname = "mediall-canadian";
lastChange = "2023-01-13 15:29:21 +0000";
layers = (
{
layerId = "DE93BBBF-E17B-48DE-A6AB-0C4E62D4ADD4";
shapes = (
{
closed = 1;
nodes = (
(525,-13,l),
(534,30,l),
(129,202,l),
(123,171,l),
(599,337,l),
(606,370,l),
(200,532,l),
(194,504,l),
(671,675,l),
(682,727,l),
(662,727,l),
(140,539,l),
(134,508,l),
(541,345,l),
(546,370,l),
(70,205,l),
(64,175,l),
(506,-13,l)
);
}
);
width = 657;
}
);
metricRight = "=|";
note = uni14EC;
unicode = 5356;
},
{
glyphname = "se-canadian";
kernRight = seright;
lastChange = "2023-01-13 15:28:21 +0000";
layers = (
{
anchors = (
{
name = top_left_can;
pos = (212,714);
},
{
name = top_right_can;
pos = (519,714);
}
);
layerId = "DE93BBBF-E17B-48DE-A6AB-0C4E62D4ADD4";
shapes = (
{
closed = 1;
nodes = (
(400,0,l),
(469,325,l),
(433,325,ls),
(258,325,o),
(180,419,o),
(221,608,cs),
(244,714,l),
(180,714,l),
(157,604,ls),
(113,395,o),
(215,267,o),
(419,267,cs),
(441,267,l),
(398,292,l),
(336,0,l)
);
}
);
width = 535;
}
);
note = uni14ED;
unicode = 5357;
},
{
glyphname = "si-canadian";
kernLeft = sileft;
lastChange = "2023-01-13 15:29:21 +0000";
layers = (
{
anchors = (
{
name = top_left_can;
pos = (215,714);
},
{
name = top_right_can;
pos = (523,714);
}
);
layerId = "DE93BBBF-E17B-48DE-A6AB-0C4E62D4ADD4";
shapes = (
{
closed = 1;
nodes = (
(95,0,l),
(157,293,l),
(106,267,l),
(149,267,ls),
(347,267,o),
(481,373,o),
(529,599,cs),
(554,714,l),
(490,714,l),
(467,606,ls),
(426,418,o),
(316,325,o),
(153,325,cs),
(100,325,l),
(31,0,l)
);
}
);
width = 534;
}
);
metricLeft = "=|se-canadian";
metricRight = "=|se-canadian";
note = uni14EF;
unicode = 5359;
},
{
glyphname = "so-canadian";
kernRight = soright;
lastChange = "2023-01-13 15:28:21 +0000";
layers = (
{
anchors = (
{
name = top_double;
pos = (520,714);
},
{
name = top_left_can;
pos = (212,714);
},
{
name = top_right_can;
pos = (520,714);
}
);
layerId = "DE93BBBF-E17B-48DE-A6AB-0C4E62D4ADD4";
shapes = (
{
closed = 1;
nodes = (
(92,0,l),
(116,108,ls),
(156,296,o),
(266,389,o),
(430,389,cs),
(483,389,l),
(552,714,l),
(488,714,l),
(425,421,l),
(476,447,l),
(433,447,ls),
(236,447,o),
(102,341,o),
(53,115,cs),
(28,0,l)
);
}
);
width = 535;
}
);
metricLeft = "se-canadian";
metricRight = "se-canadian";
note = uni14F1;
unicode = 5361;
},
{
glyphname = "sa-canadian";
kernLeft = saleft;
kernRight = saright;
lastChange = "2023-01-13 15:28:21 +0000";
layers = (
{
anchors = (
{
name = top_left_can;
pos = (216,714);
},
{
name = top_right_can;
pos = (523,714);
}
);
layerId = "DE93BBBF-E17B-48DE-A6AB-0C4E62D4ADD4";
shapes = (
{
closed = 1;
nodes = (
(403,0,l),
(426,110,ls),
(471,319,o),
(368,447,o),
(164,447,cs),
(142,447,l),
(185,422,l),
(247,714,l),
(184,714,l),
(114,389,l),
(151,389,ls),
(325,389,o),
(403,295,o),
(362,106,cs),
(339,0,l)
);
}
);
width = 535;
}
);
metricLeft = "=|se-canadian";
metricRight = "=|se-canadian";
note = uni14F4;
unicode = 5364;
},
{
glyphname = "s-canadian";
kernLeft = mwestleft;
kernRight = mwestright;
lastChange = "2023-01-13 15:28:21 +0000";
layers = (
{
layerId = "DE93BBBF-E17B-48DE-A6AB-0C4E62D4ADD4";
shapes = (
{
closed = 1;
nodes = (
(311,357,l),
(323,413,ls),
(347,524,o),
(291,593,o),
(181,593,cs),
(166,593,l),
(186,566,l),
(218,714,l),
(170,714,l),
(136,552,l),
(167,552,ls),
(256,552,o),
(295,506,o),
(276,415,cs),
(263,357,l)
);
}
);
width = 357;
}
);
metricRight = "=|";
note = uni1505;
unicode = 5381;
},
{
color = 6;
glyphname = "sAthapascan-canadian";
lastChange = "2023-01-13 15:28:21 +0000";
layers = (
{
layerId = "DE93BBBF-E17B-48DE-A6AB-0C4E62D4ADD4";
shapes = (
{
closed = 1;
nodes = (
(278.993,183,o),
(321,230,o),
(321,290,cs),
(321,329,o),
(301,356,o),
(261,372,cs),
(200,394,ls),
(171,405,o),
(160,423,o),
(160,447,cs),
(160,487,o),
(188,515,o),
(244,515,cs),
(295,515,o),
(320,491,o),
(311,444,c),
(354,444,l),
(365,507,o),
(323,552,o),
(246,552,cs),
(159,552,o),
(117,503,o),
(117,444,cs),
(117,403,o),
(143,374,o),
(176,361,cs),
(237,339,ls),
(268,327,o),
(278,311,o),
(278,287,cs),
(278,247,o),
(250,220,o),
(194,220,cs),
(136,220,o),
(114,245,o),
(123,294,c),
(80,294,l),
(68,229,o),
(106,183,o),
(193,183,cs)
);
}
);
width = 383;
}
);
metricRight = "=|";
note = uni1506;
unicode = 5382;
},
{
glyphname = "sw-canadian";
kernLeft = mwestleft;
kernRight = mwestright;
lastChange = "2023-01-13 15:28:21 +0000";
layers = (
{
layerId = "DE93BBBF-E17B-48DE-A6AB-0C4E62D4ADD4";
shapes = (
{
closed = 1;
nodes = (
(142,357,l),
(153,412,ls),
(174,510,o),
(223,552,o),
(316,552,cs),
(352,552,l),
(387,714,l),
(339,714,l),
(308,569,l),
(340,593,l),
(309,593,ls),
(197,593,o),
(131,535,o),
(107,417,cs),
(94,357,l)
);
}
);
width = 357;
}
);
metricLeft = "=|s-canadian";
metricRight = "=|s-canadian";
note = uni1507;
unicode = 5383;
},
{
glyphname = "sBlackfoot-canadian";
lastChange = "2023-01-13 15:29:21 +0000";
layers = (
{
layerId = "DE93BBBF-E17B-48DE-A6AB-0C4E62D4ADD4";
shapes = (
{
closed = 1;
nodes = (
(318,357,l),
(328,401,l),
(243,401,ls),
(182,401,o),
(158,432,o),
(172,499,cs),
(218,714,l),
(170,714,l),
(125,499,ls),
(105,409,o),
(146,357,o),
(237,357,cs)
);
}
);
width = 345;
}
);
metricLeft = "ai-canadian";
metricRight = "m-canadian";
note = uni1508;
unicode = 5384;
},
{
glyphname = "moosecreesk-canadian";
kernLeft = mwestleft;
kernRight = mwestright;
lastChange = "2023-01-13 15:28:21 +0000";
layers = (
{
layerId = "DE93BBBF-E17B-48DE-A6AB-0C4E62D4ADD4";
shapes = (
{
closed = 1;
nodes = (
(302,225,o),
(346,331,o),
(346,435,cs),
(346,538,o),
(300,592,o),
(191,592,cs),
(172,592,l),
(187,569,l),
(218,714,l),
(171,714,l),
(136,552,l),
(183,552,ls),
(279,552,o),
(306,512,o),
(302,419,c),
(312,424,l),
(307,463,o),
(279,495,o),
(227,495,cs),
(137,495,o),
(94,406,o),
(94,335,cs),
(94,269,o),
(135,225,o),
(204,225,cs)
);
},
{
closed = 1;
nodes = (
(161,262,o),
(137,291,o),
(137,335,cs),
(137,387,o),
(168,459,o),
(231,459,cs),
(273,459,o),
(297,432,o),
(297,388,cs),
(297,332,o),
(263,262,o),
(205,262,cs)
);
}
);
width = 384;
}
);
metricRight = "=|";
note = uni1509;
unicode = 5385;
},
{
glyphname = "skwNaskapi-canadian";
kernLeft = mwestleft;
kernRight = mwestright;
lastChange = "2023-01-13 15:29:21 +0000";
layers = (
{
layerId = "DE93BBBF-E17B-48DE-A6AB-0C4E62D4ADD4";
shapes = (
{
closed = 1;
nodes = (
(295,225,o),
(341,314,o),
(341,389,cs),
(341,453,o),
(304,495,o),
(245,495,cs),
(199,495,o),
(159,466,o),
(142,417,c),
(158,429,l),
(188,511,o),
(239,552,o),
(325,552,cs),
(379,552,l),
(413,714,l),
(365,714,l),
(334,568,l),
(361,592,l),
(327,592,ls),
(156,592,o),
(97,437,o),
(97,340,cs),
(97,270,o),
(136,225,o),
(204,225,cs)
);
},
{
closed = 1;
nodes = (
(163,262,o),
(140,291,o),
(140,335,cs),
(140,387,o),
(170,459,o),
(232,459,cs),
(274,459,o),
(298,432,o),
(298,388,cs),
(298,332,o),
(265,262,o),
(207,262,cs)
);
}
);
width = 386;
}
);
metricLeft = "=|moosecreesk-canadian";
metricRight = "=|moosecreesk-canadian";
note = uni150A;
unicode = 5386;
},
{
glyphname = "swNaskapi-canadian";
lastChange = "2023-01-13 15:29:21 +0000";
layers = (
{
layerId = "DE93BBBF-E17B-48DE-A6AB-0C4E62D4ADD4";
shapes = (
{
closed = 1;
nodes = (
(292,184,l),
(303,236,ls),
(327,347,o),
(277,413,o),
(167,413,cs),
(146,413,l),
(162,388,l),
(193,531,l),
(146,531,l),
(112,373,l),
(152,373,ls),
(241,373,o),
(275,332,o),
(256,237,cs),
(244,184,l)
);
},
{
closed = 1;
nodes = (
(276,65,o),
(294,84,o),
(294,108,cs),
(294,131,o),
(276,150,o),
(252,150,cs),
(229,150,o),
(209,131,o),
(209,108,cs),
(209,84,o),
(229,65,o),
(252,65,cs)
);
},
{
closed = 1;
nodes = (
(210,564,o),
(228,583,o),
(228,606,cs),
(228,631,o),
(210,649,o),
(186,649,cs),
(162,649,o),
(143,631,o),
(143,606,cs),
(143,583,o),
(162,564,o),
(186,564,cs)
);
}
);
width = 389;
}
);
metricRight = "=|";
note = uni150B;
unicode = 5387;
},
{
glyphname = "spwaNaskapi-canadian";
lastChange = "2023-01-13 15:29:21 +0000";
layers = (
{
layerId = "DE93BBBF-E17B-48DE-A6AB-0C4E62D4ADD4";
shapes = (
{
closed = 1;
nodes = (
(546,0,l),
(557,52,l),
(130,365,l),
(124,336,l),
(684,649,l),
(698,714,l),
(678,714,l),
(65,371,l),
(59,343,l),
(526,0,l)
);
},
{
closed = 1;
nodes = (
(224,506,o),
(242,526,o),
(242,549,cs),
(242,574,o),
(224,593,o),
(199,593,cs),
(176,593,o),
(156,574,o),
(156,549,cs),
(156,526,o),
(176,506,o),
(199,506,cs)
);
},
{
closed = 1;
nodes = (
(419,618,l),
(428,661,ls),
(444,738,o),
(410,786,o),
(336,786,cs),
(314,786,l),
(337,766,l),
(358,866,l),
(312,866,l),
(287,748,l),
(317,748,ls),
(375,748,o),
(395,720,o),
(382,659,cs),
(373,618,l)
);
},
{
closed = 1;
nodes = (
(616,724,o),
(635,743,o),
(635,767,cs),
(635,791,o),
(616,810,o),
(592,810,cs),
(568,810,o),
(549,791,o),
(549,767,cs),
(549,743,o),
(568,724,o),
(592,724,cs)
);
}
);
width = 657;
}
);
metricRight = "pa-canadian";
metricWidth = "pa-canadian";
note = uni150C;
unicode = 5388;
},
{
glyphname = "she-canadian";
kernRight = caright;
lastChange = "2023-01-13 15:28:21 +0000";
layers = (
{
anchors = (
{
name = top_left_can;
pos = (384,714);
},
{
name = top_right_can;
pos = (788,714);
}
);
layerId = "DE93BBBF-E17B-48DE-A6AB-0C4E62D4ADD4";
shapes = (
{
closed = 1;
nodes = (
(743,-13,o),
(822,74,o),
(854,233,cs),
(870,309,l),
(807,309,l),
(791,234,ls),
(764,107,o),
(711,44,o),
(619,44,cs),
(521,44,o),
(481,111,o),
(502,249,cs),
(535,457,ls),
(562,632,o),
(497,727,o),
(360,727,cs),
(233,727,o),
(154,640,o),
(122,481,cs),
(106,405,l),
(170,405,l),
(185,480,ls),
(212,607,o),
(265,670,o),
(357,670,cs),
(455,670,o),
(495,602,o),
(474,465,cs),
(441,258,ls),
(413,82,o),
(479,-13,o),
(617,-13,cs)
);
}
);
width = 928;
}
);
metricRight = "=|";
note = uni1510;
unicode = 5392;
},
{
glyphname = "shi-canadian";
kernLeft = coleft;
lastChange = "2023-01-13 15:29:21 +0000";
layers = (
{
anchors = (
{
name = top_left_can;
pos = (344,714);
},
{
name = top_right_can;
pos = (748,714);
}
);
layerId = "DE93BBBF-E17B-48DE-A6AB-0C4E62D4ADD4";
shapes = (
{
closed = 1;
nodes = (
(375,-13,o),
(443,67,o),
(490,239,cs),
(550,466,ls),
(588,609,o),
(635,670,o),
(728,670,cs),
(825,670,o),
(870,602,o),
(840,462,cs),
(828,405,l),
(892,405,l),
(902,454,ls),
(938,623,o),
(867,727,o),
(729,727,cs),
(603,727,o),
(535,647,o),
(489,475,cs),
(428,247,ls),
(390,105,o),
(343,44,o),
(250,44,cs),
(153,44,o),
(108,111,o),
(138,252,cs),
(150,309,l),
(86,309,l),
(76,260,ls),
(39,90,o),
(110,-13,o),
(249,-13,cs)
);
}
);
width = 930;
}
);
metricLeft = "she-canadian";
metricRight = "she-canadian";
note = uni1511;
unicode = 5393;
},
{
glyphname = "sho-canadian";
lastChange = "2023-01-13 15:29:21 +0000";
layers = (
{
anchors = (
{
name = top_center_can;
pos = (531,507);
},
{
name = top_left_can;
pos = (336,507);
},
{
name = top_right_can;
pos = (725,507);
}
);
layerId = "DE93BBBF-E17B-48DE-A6AB-0C4E62D4ADD4";
shapes = (
{
closed = 1;
nodes = (
(298,43,l),
(183,43,o),
(119,87,o),
(119,161,cs),
(119,234,o),
(164,297,o),
(259,297,cs),
(408,297,o),
(523,134,o),
(696,134,cs),
(822,134,o),
(895,220,o),
(895,329,cs),
(895,434,o),
(808,501,o),
(665,501,c),
(654,446,l),
(769,445,o),
(833,401,o),
(833,328,cs),
(833,255,o),
(788,192,o),
(692,192,cs),
(543,192,o),
(429,354,o),
(255,354,cs),
(129,354,o),
(57,268,o),
(57,160,cs),
(57,55,o),
(144,-12,o),
(286,-13,c)
);
}
);
width = 952;
}
);
metricLeft = "ke-canadian";
metricRight = "=|ke-canadian";
note = uni1513;
unicode = 5395;
},
{
glyphname = "sha-canadian";
lastChange = "2023-01-13 15:29:21 +0000";
layers = (
{
anchors = (
{
name = top_center_can;
pos = (533,507);
},
{
name = top_left_can;
pos = (337,507);
},
{
name = top_right_can;
pos = (727,507);
}
);
layerId = "DE93BBBF-E17B-48DE-A6AB-0C4E62D4ADD4";
shapes = (
{
closed = 1;
nodes = (
(738,-15,o),
(869,55,o),
(869,203,cs),
(869,293,o),
(806,354,o),
(700,354,cs),
(545,354,o),
(392,192,o),
(260,192,cs),
(188,192,o),
(146,229,o),
(146,289,cs),
(146,398,o),
(241,446,o),
(363,446,c),
(374,501,l),
(216,504,o),
(84,434,o),
(84,286,cs),
(84,196,o),
(148,134,o),
(253,134,cs),
(409,134,o),
(561,297,o),
(693,297,cs),
(766,297,o),
(807,260,o),
(807,200,cs),
(807,91,o),
(713,42,o),
(590,43,c),
(578,-13,l)
);
}
);
width = 953;
}
);
metricLeft = "ke-canadian";
metricRight = "=|ke-canadian";
note = uni1515;
unicode = 5397;
},
{
glyphname = "sh-canadian";
kernLeft = mwestleft;
kernRight = mwestright;
lastChange = "2023-01-13 15:29:21 +0000";
layers = (
{
layerId = "DE93BBBF-E17B-48DE-A6AB-0C4E62D4ADD4";
shapes = (
{
closed = 1;
nodes = (
(610,296,o),
(710,356,o),
(710,472,cs),
(710,541,o),
(661,589,o),
(580,589,cs),
(466,589,o),
(367,479,o),
(268,479,cs),
(215,479,o),
(184,507,o),
(184,553,cs),
(184,637,o),
(256,681,o),
(356,678,c),
(365,722,l),
(237,727,o),
(136,667,o),
(136,550,cs),
(136,481,o),
(185,433,o),
(266,433,cs),
(381,433,o),
(480,544,o),
(578,544,cs),
(631,544,o),
(662,515,o),
(662,470,cs),
(662,387,o),
(592,341,o),
(491,344,c),
(483,301,l)
);
}
);
width = 733;
}
);
metricLeft = "t-canadian";
metricRight = "=|";
note = uni1525;
unicode = 5413;
},
{
glyphname = "ye-canadian";
kernLeft = yeleft;
lastChange = "2023-01-13 15:28:21 +0000";
layers = (
{
anchors = (
{
name = middle_right_can;
pos = (656,357);
},
{
name = top_left_can;
pos = (182,714);
},
{
name = top_right_can;
pos = (556,714);
}
);
layerId = "DE93BBBF-E17B-48DE-A6AB-0C4E62D4ADD4";
shapes = (
{
closed = 1;
nodes = (
(435,0,l),
(504,321,l),
(139,321,l),
(141,289,l),
(592,684,l),
(553,726,l),
(59,290,l),
(54,264,l),
(428,264,l),
(372,0,l)
);
}
);
width = 569;
}
);
note = uni1526;
unicode = 5414;
},
{
glyphname = "yi-canadian";
kernRight = yiright;
lastChange = "2023-01-13 15:28:21 +0000";
layers = (
{
anchors = (
{
name = top_left_can;
pos = (220,714);
},
{
name = top_right_can;
pos = (595,714);
}
);
layerId = "DE93BBBF-E17B-48DE-A6AB-0C4E62D4ADD4";
shapes = (
{
closed = 1;
nodes = (
(93,0,l),
(150,264,l),
(524,264,l),
(529,290,l),
(212,726,l),
(165,692,l),
(461,290,l),
(463,321,l),
(98,321,l),
(30,0,l)
);
}
);
width = 569;
}
);
metricRight = "=|ye-canadian";
metricWidth = "ye-canadian";
note = uni1528;
unicode = 5416;
},
{
glyphname = "yo-canadian";
kernLeft = yoleft;
lastChange = "2023-01-13 15:28:21 +0000";
layers = (
{
anchors = (
{
name = middle_right_can;
pos = (656,357);
},
{
name = top_double;
pos = (556,714);
},
{
name = top_left_can;
pos = (181,714);
},
{
name = top_right_can;
pos = (556,714);
}
);
layerId = "DE93BBBF-E17B-48DE-A6AB-0C4E62D4ADD4";
shapes = (
{
closed = 1;
nodes = (
(452,22,l),
(156,424,l),
(154,393,l),
(519,393,l),
(587,714,l),
(523,714,l),
(467,450,l),
(93,450,l),
(87,424,l),
(405,-12,l)
);
}
);
width = 569;
}
);
metricLeft = "ye-canadian";
metricWidth = "ye-canadian";
note = uni152A;
unicode = 5418;
},
{
glyphname = "ya-canadian";
kernRight = yaright;
lastChange = "2023-01-13 15:29:21 +0000";
layers = (
{
anchors = (
{
name = top_left_can;
pos = (213,714);
},
{
name = top_right_can;
pos = (587,714);
}
);
layerId = "DE93BBBF-E17B-48DE-A6AB-0C4E62D4ADD4";
shapes = (
{
closed = 1;
nodes = (
(558,424,l),
(563,450,l),
(189,450,l),
(245,714,l),
(181,714,l),
(113,393,l),
(478,393,l),
(475,425,l),
(24,30,l),
(64,-12,l)
);
}
);
width = 569;
}
);
metricRight = "=|ye-canadian";
metricWidth = "ye-canadian";
note = uni152D;
unicode = 5421;
},
{
glyphname = "y-canadian";
kernLeft = mwestleft;
kernRight = mwestright;
lastChange = "2023-01-13 15:28:21 +0000";
layers = (
{
layerId = "DE93BBBF-E17B-48DE-A6AB-0C4E62D4ADD4";
shapes = (
{
closed = 1;
nodes = (
(371,565,l),
(374,582,l),
(191,582,l),
(219,714,l),
(172,714,l),
(135,542,l),
(319,542,l),
(313,569,l),
(99,379,l),
(128,348,l)
);
}
);
width = 346;
}
);
note = uni153E;
unicode = 5438;
},
{
glyphname = "biblecreey-canadian";
lastChange = "2023-01-13 15:29:21 +0000";
layers = (
{
layerId = "DE93BBBF-E17B-48DE-A6AB-0C4E62D4ADD4";
shapes = (
{
closed = 1;
nodes = (
(131,357,l),
(266,661,l),
(239,661,l),
(273,357,l),
(300,357,l),
(464,661,l),
(435,661,l),
(443,357,l),
(484,357,l),
(487,370,l),
(479,714,l),
(448,714,l),
(282,407,l),
(309,407,l),
(275,714,l),
(244,714,l),
(89,370,l),
(86,357,l)
);
}
);
width = 522;
}
);
metricRight = "=|";
note = uni153F;
unicode = 5439;
},
{
glyphname = "yWestCree-canadian";
lastChange = "2023-01-13 15:29:21 +0000";
layers = (
{
layerId = "DE93BBBF-E17B-48DE-A6AB-0C4E62D4ADD4";
shapes = (
{
closed = 1;
nodes = (
(244,200,l),
(275,346,l),
(412,346,l),
(421,391,l),
(285,391,l),
(315,535,l),
(268,535,l),
(238,391,l),
(100,391,l),
(90,346,l),
(228,346,l),
(197,200,l)
);
}
);
width = 458;
}
);
metricLeft = "shorthorizontalstrokeFinal-canadian";
metricRight = "shorthorizontalstrokeFinal-canadian";
note = uni1540;
unicode = 5440;
},
{
glyphname = "re-canadian";
kernRight = niright;
lastChange = "2023-01-13 15:28:21 +0000";
layers = (
{
anchors = (
{
name = top_center_can;
pos = (355,507);
},
{
name = top_left_can;
pos = (167,507);
},
{
name = top_right_can;
pos = (819,507);
}
);
layerId = "DE93BBBF-E17B-48DE-A6AB-0C4E62D4ADD4";
shapes = (
{
closed = 1;
nodes = (
(399,-13,o),
(480,65,o),
(515,225,cs),
(559,431,l),
(836,431,l),
(848,489,l),
(508,489,l),
(453,228,ls),
(425,102,o),
(368,44,o),
(275,44,cs),
(164,44,o),
(115,113,o),
(142,239,cs),
(196,489,l),
(132,489,l),
(80,246,ls),
(46,87,o),
(121,-13,o),
(271,-13,cs)
);
}
);
width = 860;
}
);
metricRight = "=|ne-canadian";
note = uni1542;
unicode = 5442;
},
{
glyphname = "reRCree-canadian";
kernLeft = neleft;
lastChange = "2023-01-13 15:28:21 +0000";
layers = (
{
anchors = (
{
name = top_center_can;
pos = (616,507);
},
{
name = top_left_can;
pos = (152,507);
},
{
name = top_right_can;
pos = (804,507);
}
);
layerId = "DE93BBBF-E17B-48DE-A6AB-0C4E62D4ADD4";
shapes = (
{
closed = 1;
nodes = (
(660,-13,o),
(742,65,o),
(776,225,cs),
(832,489,l),
(768,489,l),
(713,228,ls),
(685,102,o),
(628,44,o),
(535,44,cs),
(424,44,o),
(375,113,o),
(402,239,cs),
(456,489,l),
(116,489,l),
(104,431,l),
(381,431,l),
(341,246,ls),
(307,87,o),
(383,-13,o),
(532,-13,cs)
);
}
);
width = 860;
}
);
metricLeft = "ne-canadian";
metricRight = "=|re-canadian";
note = uni1543;
unicode = 5443;
},
{
glyphname = "leWestCree-canadian";
kernLeft = noleft;
lastChange = "2023-01-13 15:28:21 +0000";
layers = (
{
anchors = (
{
name = top_center_can;
pos = (616,507);
},
{
name = top_left_can;
pos = (151,507);
},
{
name = top_right_can;
pos = (804,507);
}
);
layerId = "DE93BBBF-E17B-48DE-A6AB-0C4E62D4ADD4";
shapes = (
{
closed = 1;
nodes = (
(352,0,l),
(407,260,ls),
(434,386,o),
(492,445,o),
(585,445,cs),
(696,445,o),
(744,376,o),
(718,250,cs),
(664,0,l),
(728,0,l),
(780,243,ls),
(814,402,o),
(738,501,o),
(589,501,cs),
(461,501,o),
(379,424,o),
(345,264,cs),
(301,58,l),
(24,58,l),
(12,0,l)
);
}
);
width = 860;
}
);
metricLeft = "ne-canadian";
metricRight = "=|re-canadian";
note = uni1544;
unicode = 5444;
},
{
glyphname = "ri-canadian";
kernRight = naright;
lastChange = "2023-01-13 15:28:21 +0000";
layers = (
{
anchors = (
{
name = top_center_can;
pos = (356,507);
},
{
name = top_left_can;
pos = (168,507);
},
{
name = top_right_can;
pos = (820,507);
}
);
layerId = "DE93BBBF-E17B-48DE-A6AB-0C4E62D4ADD4";
shapes = (
{
closed = 1;
nodes = (
(92,0,l),
(147,260,ls),
(174,386,o),
(232,445,o),
(331,445,cs),
(436,445,o),
(484,375,o),
(458,250,cs),
(404,0,l),
(744,0,l),
(756,58,l),
(479,58,l),
(519,243,ls),
(553,402,o),
(477,501,o),
(334,501,cs),
(200,501,o),
(118,424,o),
(84,264,cs),
(28,0,l)
);
}
);
width = 860;
}
);
metricLeft = "re-canadian";
metricRight = "=|ne-canadian";
note = uni1546;
unicode = 5446;
},
{
glyphname = "ro-canadian";
lastChange = "2023-01-13 15:29:21 +0000";
layers = (
{
anchors = (
{
name = top_center_can;
pos = (332,714);
}
);
layerId = "DE93BBBF-E17B-48DE-A6AB-0C4E62D4ADD4";
shapes = (
{
closed = 1;
nodes = (
(94,0,l),
(156,293,l),
(122,264,l),
(241,264,ls),
(426,264,o),
(526,379,o),
(526,528,cs),
(526,641,o),
(450,714,o),
(326,714,cs),
(183,714,l),
(171,656,l),
(316,656,ls),
(410,656,o),
(464,607,o),
(464,526,cs),
(464,410,o),
(386,322,o),
(248,322,cs),
(99,322,l),
(31,0,l)
);
}
);
width = 539;
}
);
metricLeft = "nunavuth-canadian";
note = uni1548;
unicode = 5448;
},
{
glyphname = "loWestCree-canadian";
lastChange = "2023-01-13 15:28:21 +0000";
layers = (
{
anchors = (
{
name = top_center_can;
pos = (361,714);
},
{
name = top_left_can;
pos = (216,714);
}
);
layerId = "DE93BBBF-E17B-48DE-A6AB-0C4E62D4ADD4";
shapes = (
{
closed = 1;
nodes = (
(186,0,ls),
(371,0,o),
(471,115,o),
(471,264,cs),
(471,376,o),
(395,450,o),
(271,450,cs),
(161,450,l),
(185,419,l),
(247,714,l),
(183,714,l),
(115,392,l),
(261,392,ls),
(355,392,o),
(409,343,o),
(409,262,cs),
(409,146,o),
(331,58,o),
(193,58,cs),
(44,58,l),
(32,0,l)
);
}
);
width = 540;
}
);
metricLeft = "nunavuth-canadian";
metricRight = "ro-canadian";
note = uni154A;
unicode = 5450;
},
{
glyphname = "ra-canadian";
lastChange = "2023-01-13 15:28:21 +0000";
layers = (
{
anchors = (
{
name = top_center_can;
pos = (406,714);
},
{
name = top_right_can;
pos = (524,714);
}
);
layerId = "DE93BBBF-E17B-48DE-A6AB-0C4E62D4ADD4";
shapes = (
{
closed = 1;
nodes = (
(404,0,l),
(472,322,l),
(327,322,ls),
(233,322,o),
(179,371,o),
(179,452,cs),
(179,568,o),
(257,656,o),
(395,656,cs),
(544,656,l),
(556,714,l),
(402,714,ls),
(217,714,o),
(117,599,o),
(117,450,cs),
(117,338,o),
(193,264,o),
(317,264,cs),
(427,264,l),
(403,295,l),
(340,0,l)
);
}
);
width = 540;
}
);
metricLeft = "=|ro-canadian";
metricRight = "nunavuth-canadian";
note = uni154B;
unicode = 5451;
},
{
glyphname = "laWestCree-canadian";
lastChange = "2023-01-13 15:29:21 +0000";
layers = (
{
anchors = (
{
name = top_center_can;
pos = (525,714);
}
);
layerId = "DE93BBBF-E17B-48DE-A6AB-0C4E62D4ADD4";
shapes = (
{
closed = 1;
nodes = (
(404,0,l),
(416,58,l),
(272,58,ls),
(178,58,o),
(124,107,o),
(124,188,cs),
(124,304,o),
(202,392,o),
(339,392,cs),
(488,392,l),
(557,714,l),
(493,714,l),
(431,421,l),
(466,450,l),
(347,450,ls),
(161,450,o),
(61,335,o),
(61,186,cs),
(61,73,o),
(138,0,o),
(262,0,cs)
);
}
);
width = 540;
}
);
metricLeft = "=|ro-canadian";
metricRight = "nunavuth-canadian";
note = uni154D;
unicode = 5453;
},
{
glyphname = "r-canadian";
kernLeft = mwestleft;
kernRight = mwestright;
lastChange = "2023-01-13 15:29:21 +0000";
layers = (
{
layerId = "DE93BBBF-E17B-48DE-A6AB-0C4E62D4ADD4";
shapes = (
{
closed = 1;
nodes = (
(284,357,l),
(320,527,l),
(251,527,ls),
(203,527,o),
(181,546,o),
(181,583,cs),
(181,637,o),
(210,674,o),
(281,674,cs),
(351,674,l),
(360,714,l),
(289,714,ls),
(193,714,o),
(137,667,o),
(137,582,cs),
(137,525,o),
(175,487,o),
(243,487,cs),
(291,487,l),
(268,507,l),
(237,357,l)
);
}
);
width = 330;
}
);
metricLeft = "=|k-canadian";
note = uni1550;
unicode = 5456;
},
{
glyphname = "rWestCree-canadian";
kernLeft = mwestleft;
kernRight = mwestright;
lastChange = "2023-01-13 15:29:21 +0000";
layers = (
{
layerId = "DE93BBBF-E17B-48DE-A6AB-0C4E62D4ADD4";
shapes = (
{
closed = 1;
nodes = (
(170,714,l),
(164,684,l),
(349,605,l),
(354,627,l),
(135,550,l),
(131,526,l),
(316,450,l),
(321,473,l),
(102,392,l),
(94,357,l),
(105,357,l),
(355,448,l),
(360,468,l),
(171,545,l),
(167,526,l),
(388,603,l),
(393,623,l),
(181,714,l)
);
}
);
width = 383;
}
);
metricLeft = "=|lWestCree-canadian";
metricRight = "=|lWestCree-canadian";
note = uni1551;
unicode = 5457;
},
{
glyphname = "rMedial-canadian";
lastChange = "2023-01-13 15:29:21 +0000";
layers = (
{
layerId = "DE93BBBF-E17B-48DE-A6AB-0C4E62D4ADD4";
shapes = (
{
closed = 1;
nodes = (
(43,-13,l),
(565,175,l),
(571,206,l),
(164,369,l),
(159,344,l),
(635,509,l),
(641,539,l),
(199,727,l),
(180,727,l),
(171,684,l),
(576,512,l),
(582,543,l),
(106,377,l),
(99,344,l),
(505,182,l),
(511,210,l),
(34,39,l),
(23,-13,l)
);
}
);
width = 657;
}
);
metricLeft = "mediall-canadian";
metricRight = "mediall-canadian";
note = uni1552;
unicode = 5458;
},
{
glyphname = "fe-canadian";
kernLeft = ecanleft;
kernRight = ecanright;
lastChange = "2023-01-13 15:29:21 +0000";
layers = (
{
layerId = "DE93BBBF-E17B-48DE-A6AB-0C4E62D4ADD4";
shapes = (
{
closed = 1;
nodes = (
(331,0,l),
(817,694,l),
(821,714,l),
(764,714,l),
(319,68,l),
(332,68,l),
(236,380,l),
(204,376,l),
(227,348,o),
(259,333,o),
(300,333,cs),
(431,333,o),
(488,477,o),
(488,573,cs),
(488,664,o),
(436,727,o),
(346,727,cs),
(214,727,o),
(157,589,o),
(157,484,cs),
(157,447,o),
(164,411,o),
(178,371,cs),
(302,0,l)
);
},
{
closed = 1;
nodes = (
(244,380,o),
(211,420,o),
(211,489,cs),
(211,555,o),
(244,677,o),
(343,677,cs),
(401,677,o),
(435,636,o),
(435,571,cs),
(435,502,o),
(402,380,o),
(301,380,cs)
);
}
);
width = 757;
}
);
metricRight = "e-canadian";
note = uni1553;
unicode = 5459;
},
{
glyphname = "fi-canadian";
kernLeft = icanleft;
kernRight = icanright;
lastChange = "2023-01-13 15:29:21 +0000";
layers = (
{
anchors = (
{
name = top_center_can;
pos = (465,714);
},
{
name = top_left_can;
pos = (228,714);
},
{
name = top_right_can;
pos = (733,714);
}
);
layerId = "DE93BBBF-E17B-48DE-A6AB-0C4E62D4ADD4";
shapes = (
{
closed = 1;
nodes = (
(362,-13,o),
(414,131,o),
(414,225,cs),
(414,318,o),
(362,382,o),
(279,382,cs),
(251,382,o),
(222,372,o),
(196,351,c),
(231,347,l),
(462,646,l),
(444,647,l),
(621,0,l),
(670,0,l),
(674,20,l),
(480,714,l),
(451,714,l),
(160,347,ls),
(113,287,o),
(84,218,o),
(84,142,cs),
(84,49,o),
(138,-13,o),
(226,-13,cs)
);
},
{
closed = 1;
nodes = (
(170,37,o),
(138,77,o),
(138,145,cs),
(138,212,o),
(171,334,o),
(270,334,cs),
(329,334,o),
(361,292,o),
(361,225,cs),
(361,156,o),
(328,37,o),
(228,37,cs)
);
}
);
width = 758;
}
);
metricLeft = "fe-canadian";
metricRight = "e-canadian";
note = uni1555;
unicode = 5461;
},
{
glyphname = "fo-canadian";
kernLeft = ocanleft;
kernRight = ocanright;
lastChange = "2023-01-13 15:28:21 +0000";
layers = (
{
anchors = (
{
name = top_center_can;
pos = (324,714);
}
);
layerId = "DE93BBBF-E17B-48DE-A6AB-0C4E62D4ADD4";
shapes = (
{
closed = 1;
nodes = (
(67,0,l),
(679,343,l),
(685,371,l),
(429,667,ls),
(396,705,o),
(357,727,o),
(307,727,cs),
(176,727,o),
(122,585,o),
(120,491,cs),
(118,395,o),
(172,331,o),
(258,331,cs),
(378,331,o),
(443,451,o),
(444,557,cs),
(445,588,o),
(440,615,o),
(431,637,c),
(410,608,l),
(623,360,l),
(627,374,l),
(59,57,l),
(47,0,l)
);
},
{
closed = 1;
nodes = (
(205,380,o),
(173,422,o),
(174,493,cs),
(175,562,o),
(208,677,o),
(306,677,cs),
(364,677,o),
(397,635,o),
(396,566,cs),
(395,495,o),
(363,380,o),
(264,380,cs)
);
}
);
width = 695;
}
);
metricRight = "o-canadian";
note = uni1557;
unicode = 5463;
},
{
glyphname = "fa-canadian";
kernLeft = acanleft;
kernRight = acanright;
lastChange = "2023-01-13 15:28:21 +0000";
layers = (
{
anchors = (
{
name = top_center_can;
pos = (571,714);
}
);
layerId = "DE93BBBF-E17B-48DE-A6AB-0C4E62D4ADD4";
shapes = (
{
closed = 1;
nodes = (
(544,0,l),
(554,48,l),
(121,366,l),
(119,349,l),
(438,611,l),
(422,645,l),
(386,598,o),
(369,533,o),
(369,484,cs),
(369,393,o),
(424,330,o),
(513,330,cs),
(640,330,o),
(696,473,o),
(696,569,cs),
(696,665,o),
(642,727,o),
(556,727,cs),
(514,727,o),
(475,711,o),
(436,678,cs),
(65,371,l),
(59,343,l),
(524,0,l)
);
},
{
closed = 1;
nodes = (
(453,380,o),
(420,420,o),
(420,488,cs),
(420,555,o),
(454,677,o),
(553,677,cs),
(611,677,o),
(644,636,o),
(644,570,cs),
(644,502,o),
(611,380,o),
(511,380,cs)
);
}
);
width = 695;
}
);
metricRight = "=|fo-canadian";
note = uni1559;
unicode = 5465;
},
{
glyphname = "f-canadian";
kernLeft = mwestleft;
kernRight = mwestright;
lastChange = "2023-01-13 15:28:21 +0000";
layers = (
{
layerId = "DE93BBBF-E17B-48DE-A6AB-0C4E62D4ADD4";
shapes = (
{
closed = 1;
nodes = (
(368,357,l),
(375,390,l),
(165,544,l),
(163,529,l),
(313,655,l),
(313,687,l),
(294,667,o),
(281,627,o),
(281,598,cs),
(281,553,o),
(309,522,o),
(351,522,cs),
(414,522,o),
(443,591,o),
(443,643,cs),
(443,691,o),
(417,720,o),
(375,720,cs),
(352,720,o),
(330,712,o),
(306,692,cs),
(128,544,l),
(125,527,l),
(355,357,l)
);
},
{
closed = 1;
nodes = (
(327,552,o),
(312,570,o),
(312,600,cs),
(312,641,o),
(334,690,o),
(373,690,cs),
(397,690,o),
(411,673,o),
(411,643,cs),
(411,602,o),
(390,552,o),
(352,552,cs)
);
}
);
width = 424;
}
);
note = uni155D;
unicode = 5469;
},
{
glyphname = "the-canadian";
lastChange = "2023-01-13 15:29:21 +0000";
layers = (
{
anchors = (
{
name = middle_right_can;
pos = (839,357);
},
{
name = top_center_can;
pos = (466,714);
},
{
name = top_left_can;
pos = (212,714);
},
{
name = top_right_can;
pos = (720,714);
}
);
layerId = "DE93BBBF-E17B-48DE-A6AB-0C4E62D4ADD4";
shapes = (
{
closed = 1;
nodes = (
(511,-13,o),
(611,82,o),
(653,275,cs),
(746,714,l),
(682,714,l),
(590,278,ls),
(555,119,o),
(477,46,o),
(337,46,cs),
(153,46,o),
(119,154,o),
(151,301,cs),
(182,448,l),
(158,435,l),
(165,379,o),
(206,327,o),
(277,327,cs),
(408,327,o),
(462,469,o),
(465,566,cs),
(467,662,o),
(415,727,o),
(325,727,cs),
(226,727,o),
(164,656,o),
(138,537,cs),
(90,309,ls),
(51,126,o),
(113,-13,o),
(336,-13,cs)
);
},
{
closed = 1;
nodes = (
(220,377,o),
(188,418,o),
(188,486,cs),
(188,553,o),
(221,677,o),
(321,677,cs),
(378,677,o),
(411,636,o),
(411,570,cs),
(411,501,o),
(379,377,o),
(278,377,cs)
);
}
);
width = 723;
}
);
metricLeft = "te-canadian";
metricRight = "te-canadian";
note = uni155E;
unicode = 5470;
},
{
glyphname = "theNCree-canadian";
lastChange = "2023-01-13 15:28:21 +0000";
layers = (
{
layerId = "DE93BBBF-E17B-48DE-A6AB-0C4E62D4ADD4";
shapes = (
{
closed = 1;
nodes = (
(511,-13,o),
(612,83,o),
(654,280,cs),
(700,500,ls),
(729,636,o),
(675,727,o),
(569,727,cs),
(437,727,o),
(380,587,o),
(380,483,cs),
(380,399,o),
(424,327,o),
(516,327,cs),
(570,327,o),
(617,357,o),
(642,407,c),
(622,426,l),
(591,278,ls),
(557,118,o),
(478,46,o),
(335,46,cs),
(174,46,o),
(116,133,o),
(152,302,cs),
(240,714,l),
(176,714,l),
(89,304,ls),
(45,101,o),
(137,-13,o),
(333,-13,cs)
);
},
{
closed = 1;
nodes = (
(466,377,o),
(434,418,o),
(434,486,cs),
(434,553,o),
(467,677,o),
(566,677,cs),
(623,677,o),
(656,636,o),
(656,570,cs),
(656,501,o),
(623,377,o),
(523,377,cs)
);
}
);
width = 722;
}
);
metricLeft = "te-canadian";
metricRight = "te-canadian";
note = uni155F;
unicode = 5471;
},
{
glyphname = "thi-canadian";
lastChange = "2023-01-13 15:28:21 +0000";
layers = (
{
anchors = (
{
name = top_center_can;
pos = (460,714);
}
);
layerId = "DE93BBBF-E17B-48DE-A6AB-0C4E62D4ADD4";
shapes = (
{
closed = 1;
nodes = (
(333,-13,o),
(390,127,o),
(390,231,cs),
(390,315,o),
(346,387,o),
(254,387,cs),
(200,387,o),
(153,357,o),
(128,307,c),
(148,288,l),
(179,436,ls),
(213,596,o),
(292,668,o),
(435,668,cs),
(596,668,o),
(654,581,o),
(618,412,cs),
(530,0,l),
(594,0,l),
(681,410,ls),
(724,613,o),
(633,727,o),
(437,727,cs),
(259,727,o),
(158,631,o),
(116,434,cs),
(70,214,ls),
(41,78,o),
(95,-13,o),
(201,-13,cs)
);
},
{
closed = 1;
nodes = (
(147,37,o),
(114,78,o),
(114,144,cs),
(114,213,o),
(147,337,o),
(247,337,cs),
(304,337,o),
(336,296,o),
(336,228,cs),
(336,161,o),
(303,37,o),
(204,37,cs)
);
}
);
width = 722;
}
);
metricLeft = "te-canadian";
metricRight = "te-canadian";
note = uni1560;
unicode = 5472;
},
{
glyphname = "thiNCree-canadian";
lastChange = "2023-01-13 15:28:21 +0000";
layers = (
{
anchors = (
{
name = top_center_can;
pos = (460,714);
}
);
layerId = "DE93BBBF-E17B-48DE-A6AB-0C4E62D4ADD4";
shapes = (
{
closed = 1;
nodes = (
(544,-13,o),
(606,58,o),
(632,177,cs),
(680,405,ls),
(719,588,o),
(657,727,o),
(434,727,cs),
(259,727,o),
(159,632,o),
(117,439,cs),
(24,0,l),
(88,0,l),
(180,436,ls),
(214,595,o),
(293,668,o),
(433,668,cs),
(617,668,o),
(651,560,o),
(619,413,cs),
(588,266,l),
(612,279,l),
(605,335,o),
(564,387,o),
(493,387,cs),
(362,387,o),
(308,245,o),
(305,148,cs),
(303,52,o),
(355,-13,o),
(445,-13,cs)
);
},
{
closed = 1;
nodes = (
(392,37,o),
(359,78,o),
(359,144,cs),
(359,213,o),
(392,337,o),
(492,337,cs),
(550,337,o),
(582,296,o),
(582,228,cs),
(582,161,o),
(549,37,o),
(449,37,cs)
);
}
);
width = 722;
}
);
metricLeft = "te-canadian";
metricRight = "te-canadian";
note = uni1561;
unicode = 5473;
},
{
glyphname = "tho-canadian";
lastChange = "2023-01-13 15:29:21 +0000";
layers = (
{
anchors = (
{
name = top_center_can;
pos = (410,714);
}
);
layerId = "DE93BBBF-E17B-48DE-A6AB-0C4E62D4ADD4";
shapes = (
{
closed = 1;
nodes = (
(231,0,ls),
(533,0,o),
(636,250,o),
(636,445,cs),
(636,617,o),
(539,727,o),
(387,727,cs),
(214,727,o),
(129,593,o),
(129,458,cs),
(129,366,o),
(181,304,o),
(267,304,cs),
(390,304,o),
(451,438,o),
(451,542,cs),
(451,633,o),
(398,690,o),
(313,686,c),
(310,664,l),
(326,674,o),
(352,679,o),
(383,679,cs),
(500,679,o),
(574,594,o),
(574,451,cs),
(574,306,o),
(513,58,o),
(236,58,cs),
(72,58,l),
(60,0,l)
);
},
{
closed = 1;
nodes = (
(214,353,o),
(182,393,o),
(182,459,cs),
(182,525,o),
(216,655,o),
(315,655,cs),
(371,655,o),
(402,615,o),
(402,550,cs),
(402,483,o),
(369,353,o),
(270,353,cs)
);
}
);
width = 674;
}
);
metricRight = "to-canadian";
note = uni1564;
unicode = 5476;
},
{
glyphname = "tha-canadian";
lastChange = "2023-01-13 15:29:21 +0000";
layers = (
{
anchors = (
{
name = top_center_can;
pos = (468,714);
}
);
layerId = "DE93BBBF-E17B-48DE-A6AB-0C4E62D4ADD4";
shapes = (
{
closed = 1;
nodes = (
(514,0,l),
(526,58,l),
(374,58,ls),
(228,58,o),
(149,135,o),
(149,276,cs),
(149,422,o),
(227,678,o),
(442,678,cs),
(482,678,o),
(522,669,o),
(551,652,c),
(530,683,l),
(402,701,o),
(331,569,o),
(331,455,cs),
(331,364,o),
(382,304,o),
(468,304,cs),
(590,304,o),
(656,434,o),
(656,544,cs),
(656,658,o),
(577,726,o),
(445,726,cs),
(188,726,o),
(86,454,o),
(86,271,cs),
(86,102,o),
(186,0,o),
(360,0,cs)
);
},
{
closed = 1;
nodes = (
(415,353,o),
(382,393,o),
(382,459,cs),
(382,525,o),
(416,655,o),
(515,655,cs),
(571,655,o),
(603,615,o),
(603,550,cs),
(603,483,o),
(569,353,o),
(470,353,cs)
);
}
);
width = 676;
}
);
metricLeft = "=|theCarrier-canadian";
metricRight = "=|tho-canadian";
note = uni1566;
unicode = 5478;
},
{
glyphname = "th-canadian";
kernLeft = mwestleft;
kernRight = mwestright;
lastChange = "2023-01-13 15:28:21 +0000";
layers = (
{
layerId = "DE93BBBF-E17B-48DE-A6AB-0C4E62D4ADD4";
shapes = (
{
closed = 1;
nodes = (
(341,357,l),
(350,397,l),
(274,397,ls),
(204,397,o),
(169,433,o),
(169,497,cs),
(169,566,o),
(207,688,o),
(308,688,cs),
(326,688,o),
(346,683,o),
(361,675,c),
(343,696,l),
(276,701,o),
(249,632,o),
(249,585,cs),
(249,539,o),
(276,509,o),
(318,509,cs),
(384,509,o),
(411,584,o),
(411,629,cs),
(411,685,o),
(373,720,o),
(306,720,cs),
(178,720,o),
(126,585,o),
(126,494,cs),
(126,408,o),
(178,357,o),
(265,357,cs)
);
},
{
closed = 1;
nodes = (
(293,539,o),
(279,556,o),
(279,585,cs),
(279,617,o),
(294,676,o),
(339,676,cs),
(365,676,o),
(380,659,o),
(380,630,cs),
(380,599,o),
(365,539,o),
(319,539,cs)
);
}
);
width = 395;
}
);
metricLeft = "t-canadian";
note = uni156A;
unicode = 5482;
},
{
glyphname = "tthe-canadian";
lastChange = "2023-01-13 15:28:21 +0000";
layers = (
{
anchors = (
{
name = middle_right_can;
pos = (825,357);
},
{
name = top_center_can;
pos = (456,714);
},
{
name = top_left_can;
pos = (208,714);
},
{
name = top_right_can;
pos = (705,714);
}
);
layerId = "DE93BBBF-E17B-48DE-A6AB-0C4E62D4ADD4";
shapes = (
{
closed = 1;
nodes = (
(501,-13,o),
(602,79,o),
(644,278,cs),
(737,714,l),
(675,714,l),
(582,279,ls),
(548,119,o),
(470,47,o),
(332,47,cs),
(176,47,o),
(114,130,o),
(151,301,cs),
(238,714,l),
(176,714,l),
(89,304,ls),
(45,100,o),
(137,-13,o),
(329,-13,cs)
);
},
{
closed = 1;
nodes = (
(417,405,l),
(483,714,l),
(430,714,l),
(364,405,l)
);
}
);
width = 713;
}
);
metricLeft = "te-canadian";
metricRight = "te-canadian";
note = uni156B;
unicode = 5483;
},
{
glyphname = "tthi-canadian";
lastChange = "2023-01-13 15:28:21 +0000";
layers = (
{
layerId = "DE93BBBF-E17B-48DE-A6AB-0C4E62D4ADD4";
shapes = (
{
closed = 1;
nodes = (
(86,0,l),
(179,435,ls),
(213,595,o),
(291,667,o),
(429,667,cs),
(584,667,o),
(647,584,o),
(610,413,cs),
(523,0,l),
(585,0,l),
(672,410,ls),
(716,614,o),
(624,727,o),
(432,727,cs),
(260,727,o),
(159,635,o),
(117,436,cs),
(24,0,l)
);
},
{
closed = 1;
nodes = (
(331,0,l),
(397,309,l),
(344,309,l),
(278,0,l)
);
}
);
width = 713;
}
);
metricLeft = "te-canadian";
metricRight = "te-canadian";
note = uni156C;
unicode = 5484;
},
{
glyphname = "ttho-canadian";
lastChange = "2023-01-13 15:28:21 +0000";
layers = (
{
anchors = (
{
name = top_center_can;
pos = (408,714);
},
{
name = top_left_can;
pos = (210,714);
},
{
name = top_right_can;
pos = (629,714);
}
);
layerId = "DE93BBBF-E17B-48DE-A6AB-0C4E62D4ADD4";
shapes = (
{
closed = 1;
nodes = (
(184.009,0,ls),
(504,0,o),
(590,272,o),
(590,449,cs),
(590,617,o),
(493,714,o),
(318,714,cs),
(182,714,l),
(170,656,l),
(310,656,ls),
(452,656,o),
(526,583,o),
(526,447,cs),
(526,299,o),
(458,58,o),
(191,58,cs),
(42,58,l),
(30,0,l)
);
},
{
closed = 1;
nodes = (
(336,331,l),
(347,384,l),
(112,384,l),
(101,331,l)
);
}
);
width = 627;
}
);
metricRight = "to-canadian";
note = uni156D;
unicode = 5485;
},
{
glyphname = "ttha-canadian";
lastChange = "2023-01-13 15:28:21 +0000";
layers = (
{
anchors = (
{
name = top_center_can;
pos = (424,714);
},
{
name = top_left_can;
pos = (199,714);
},
{
name = top_right_can;
pos = (611,714);
}
);
layerId = "DE93BBBF-E17B-48DE-A6AB-0C4E62D4ADD4";
shapes = (
{
closed = 1;
nodes = (
(493,0,l),
(505,58,l),
(364,58,ls),
(222,58,o),
(149,131,o),
(149,267,cs),
(149,417,o),
(217,656,o),
(483,656,cs),
(632,656,l),
(645,714,l),
(490,714,ls),
(171,714,o),
(85,443,o),
(85,265,cs),
(85,97,o),
(181,0,o),
(356,0,cs)
);
},
{
closed = 1;
nodes = (
(561,331,l),
(573,384,l),
(338,384,l),
(326,331,l)
);
}
);
width = 627;
}
);
metricLeft = "=|to-canadian";
metricRight = "=|ttho-canadian";
note = uni156E;
unicode = 5486;
},
{
glyphname = "tth-canadian";
lastChange = "2023-01-13 15:28:21 +0000";
layers = (
{
layerId = "DE93BBBF-E17B-48DE-A6AB-0C4E62D4ADD4";
shapes = (
{
closed = 1;
nodes = (
(288,506,l),
(271,506,l),
(339,371,l),
(378,391,l),
(306,530,l),
(298,513,l),
(462,569,l),
(449,607,l),
(293,554,l),
(306,546,l),
(342,714,l),
(299,714,l),
(263,545,l),
(279,553,l),
(139,607,l),
(124,569,l),
(259,517,l),
(257,534,l),
(133,400,l),
(163,371,l)
);
},
{
closed = 1;
nodes = (
(692,506,l),
(675,506,l),
(743,371,l),
(782,391,l),
(710,530,l),
(702,513,l),
(866,568,l),
(853,607,l),
(697,554,l),
(710,546,l),
(746,714,l),
(702,714,l),
(667,545,l),
(683,553,l),
(542,607,l),
(528,569,l),
(663,517,l),
(661,534,l),
(536,400,l),
(567,371,l)
);
}
);
width = 852;
}
);
metricRight = "=|";
note = uni156F;
unicode = 5487;
},
{
glyphname = "tye-canadian";
lastChange = "2023-01-13 15:28:21 +0000";
layers = (
{
layerId = "DE93BBBF-E17B-48DE-A6AB-0C4E62D4ADD4";
shapes = (
{
closed = 1;
nodes = (
(502,-13,o),
(602,82,o),
(644,277,cs),
(737,714,l),
(675,714,l),
(583,284,ls),
(549,120,o),
(470,47,o),
(332,47,cs),
(176,47,o),
(114,130,o),
(150,301,cs),
(238.009,714,l),
(176,714,l),
(89,304,ls),
(45,101,o),
(137,-13,o),
(330,-13,cs)
);
},
{
closed = 1;
nodes = (
(477,426,o),
(522,469,o),
(541,558,cs),
(574,714,l),
(537,714,l),
(505,564,ls),
(490,495,o),
(459,464,o),
(405,464,cs),
(349,464,o),
(330,495,o),
(345,566,cs),
(376,714,l),
(338,714,l),
(307,565,ls),
(289,477,o),
(325,426,o),
(404,426,cs)
);
}
);
width = 713;
}
);
metricLeft = "te-canadian";
metricRight = "te-canadian";
note = uni1570;
unicode = 5488;
},
{
glyphname = "tyi-canadian";
lastChange = "2023-01-13 15:28:21 +0000";
layers = (
{
layerId = "DE93BBBF-E17B-48DE-A6AB-0C4E62D4ADD4";
shapes = (
{
closed = 1;
nodes = (
(86.009,0,l),
(178,430,ls),
(212,594,o),
(291,667,o),
(429,667,cs),
(585,667,o),
(647,584,o),
(611,413,cs),
(523,0,l),
(585,0,l),
(672,410,ls),
(716,613,o),
(624,727,o),
(431,727,cs),
(259,727,o),
(159,632,o),
(117,437,cs),
(24,0,l)
);
},
{
closed = 1;
nodes = (
(224,0,l),
(256,150,ls),
(271,219,o),
(302,250,o),
(356,250,cs),
(412,250,o),
(431,219,o),
(416,148,cs),
(385,0,l),
(422,0,l),
(454,149,ls),
(472,237,o),
(436,288,o),
(356,288,cs),
(283,288,o),
(239,245,o),
(220,156,cs),
(187,0,l)
);
}
);
width = 713;
}
);
metricLeft = "te-canadian";
metricRight = "te-canadian";
note = uni1571;
unicode = 5489;
},
{
glyphname = "tyo-canadian";
lastChange = "2023-01-13 15:28:21 +0000";
layers = (
{
layerId = "DE93BBBF-E17B-48DE-A6AB-0C4E62D4ADD4";
shapes = (
{
closed = 1;
nodes = (
(184,0,ls),
(505,0,o),
(591,272,o),
(591,449,cs),
(591,617,o),
(493,714,o),
(318,714,cs),
(183,714,l),
(171,656,l),
(310,656,ls),
(452,656,o),
(527,583,o),
(527,447,cs),
(527,292,o),
(452,58,o),
(190,58,cs),
(44,58,l),
(32,0,l)
);
},
{
closed = 1;
nodes = (
(166,217,ls),
(284,217,o),
(335,296,o),
(337,381,cs),
(338,453,o),
(294,497,o),
(217,497,cs),
(137,497,l),
(129,458,l),
(208,458,ls),
(266,458,o),
(297,430,o),
(296,380,cs),
(296,320,o),
(262,256,o),
(171,256,cs),
(86,256,l),
(77,217,l)
);
}
);
width = 628;
}
);
metricLeft = "nunavuth-canadian";
metricRight = "theCarrier-canadian";
note = uni1572;
unicode = 5490;
},
{
glyphname = "tya-canadian";
lastChange = "2023-01-13 15:28:21 +0000";
layers = (
{
layerId = "DE93BBBF-E17B-48DE-A6AB-0C4E62D4ADD4";
shapes = (
{
closed = 1;
nodes = (
(492,0,l),
(504,58,l),
(366,58,ls),
(224,58,o),
(149,131,o),
(149,267,cs),
(149,422,o),
(225,656,o),
(486,656,cs),
(632,656,l),
(644,714,l),
(493,714,ls),
(172,714,o),
(85,442,o),
(85,265,cs),
(85,97,o),
(183,0,o),
(358,0,cs)
);
},
{
closed = 1;
nodes = (
(539,217,l),
(547,256,l),
(469,256,ls),
(411,256,o),
(380,284,o),
(380,334,cs),
(381,394,o),
(415,458,o),
(506,458,cs),
(590,458,l),
(598,497,l),
(510,497,ls),
(392,497,o),
(341,418,o),
(340,333,cs),
(338,261,o),
(383,217,o),
(460,217,cs)
);
}
);
width = 628;
}
);
metricLeft = "=|theCarrier-canadian";
metricRight = "nunavuth-canadian";
note = uni1573;
unicode = 5491;
},
{
glyphname = "heNunavik-canadian";
lastChange = "2023-01-13 15:28:21 +0000";
layers = (
{
layerId = "DE93BBBF-E17B-48DE-A6AB-0C4E62D4ADD4";
shapes = (
{
closed = 1;
nodes = (
(453,0,l),
(731,198,l),
(698,246,l),
(451,70,l),
(472,54,l),
(553,436,ls),
(583,576,o),
(538,727,o),
(369,727,cs),
(186,727,o),
(115,545,o),
(115,415,cs),
(115,291,o),
(188,213,o),
(302,213,cs),
(386,213,o),
(451,259,o),
(484,338,c),
(466,327,l),
(396,0,l)
);
},
{
closed = 1;
nodes = (
(228,268,o),
(177,324,o),
(177,416,cs),
(177,509,o),
(225,671,o),
(364,671,cs),
(450,671,o),
(500,615,o),
(500,522,cs),
(500,426,o),
(452,268,o),
(314,268,cs)
);
}
);
width = 771;
}
);
metricLeft = "ke-canadian";
note = uni1574;
unicode = 5492;
},
{
glyphname = "hiNunavik-canadian";
lastChange = "2023-01-13 15:29:21 +0000";
layers = (
{
anchors = (
{
name = top_center_can;
pos = (581,714);
}
);
layerId = "DE93BBBF-E17B-48DE-A6AB-0C4E62D4ADD4";
shapes = (
{
closed = 1;
nodes = (
(272,0,l),
(352,376,l),
(340,369,l),
(336,287,o),
(402,213,o),
(505,213,cs),
(684,213,o),
(752,398,o),
(752,522,cs),
(752,649,o),
(678,727,o),
(557,727,cs),
(433,727,o),
(345,645,o),
(314,499,cs),
(219,51,l),
(243,57,l),
(62,239,l),
(20,198,l),
(215,0,l)
);
},
{
closed = 1;
nodes = (
(417,268,o),
(368,324,o),
(368,417,cs),
(368,509,o),
(414,671,o),
(553,671,cs),
(640,671,o),
(690,616,o),
(690,523,cs),
(690,430,o),
(643,268,o),
(504,268,cs)
);
}
);
width = 771;
}
);
metricLeft = "=|heNunavik-canadian";
metricRight = "=|ke-canadian";
note = uni1575;
unicode = 5493;
},
{
glyphname = "hoNunavik-canadian";
lastChange = "2023-01-13 15:28:21 +0000";
layers = (
{
anchors = (
{
name = top_center_can;
pos = (391,714);
},
{
name = top_right_can;
pos = (580,714);
}
);
layerId = "DE93BBBF-E17B-48DE-A6AB-0C4E62D4ADD4";
shapes = (
{
closed = 1;
nodes = (
(387,-13,o),
(475,69,o),
(506,215,cs),
(601,663,l),
(577,657,l),
(757,475,l),
(799,516,l),
(605,714,l),
(548,714,l),
(468,338,l),
(479,345,l),
(484,427,o),
(418,501,o),
(314,501,cs),
(135,501,o),
(67,316,o),
(67,192,cs),
(67,65,o),
(141,-13,o),
(263,-13,cs)
);
},
{
closed = 1;
nodes = (
(180,43,o),
(129,98,o),
(129,191,cs),
(129,284,o),
(177,446,o),
(316,446,cs),
(402,446,o),
(452,390,o),
(452,297,cs),
(452,205,o),
(405,43,o),
(266,43,cs)
);
}
);
width = 771;
}
);
metricLeft = "ke-canadian";
metricRight = "heNunavik-canadian";
note = uni1577;
unicode = 5495;
},
{
glyphname = "haNunavik-canadian";
lastChange = "2023-01-13 15:29:21 +0000";
layers = (
{
anchors = (
{
name = top_center_can;
pos = (580,714);
},
{
name = top_left_can;
pos = (391,714);
}
);
layerId = "DE93BBBF-E17B-48DE-A6AB-0C4E62D4ADD4";
shapes = (
{
closed = 1;
nodes = (
(633,-13,o),
(705,169,o),
(705,299,cs),
(705,423,o),
(632,501,o),
(517,501,cs),
(433,501,o),
(369,455,o),
(336,376,c),
(354,387,l),
(423,714,l),
(367,714,l),
(88,516,l),
(121,468,l),
(369,644,l),
(348,660,l),
(267,278,ls),
(237,138,o),
(282,-13,o),
(451,-13,cs)
);
},
{
closed = 1;
nodes = (
(370,43,o),
(319,99,o),
(319,192,cs),
(319,288,o),
(368,446,o),
(506,446,cs),
(592,446,o),
(642,390,o),
(642,298,cs),
(642,205,o),
(595,43,o),
(456,43,cs)
);
}
);
width = 772;
}
);
metricLeft = "=|heNunavik-canadian";
metricRight = "=|ke-canadian";
note = uni1579;
unicode = 5497;
},
{
glyphname = "hNunavik-canadian";
kernLeft = mwestleft;
kernRight = mwestright;
lastChange = "2023-01-13 15:28:21 +0000";
layers = (
{
layerId = "DE93BBBF-E17B-48DE-A6AB-0C4E62D4ADD4";
shapes = (
{
closed = 1;
nodes = (
(410,351,o),
(459,443,o),
(459,517,cs),
(459,580,o),
(421,622,o),
(363,622,cs),
(323,622,o),
(290,603,o),
(270,569,c),
(277,560,l),
(310,714,l),
(266,714,l),
(126,615,l),
(149,583,l),
(277,674,l),
(258,693,l),
(217,501,ls),
(199,420,o),
(235,351,o),
(318,351,cs)
);
},
{
closed = 1;
nodes = (
(281,389,o),
(255,414,o),
(255,460,cs),
(255,518,o),
(288,584,o),
(350,584,cs),
(391,584,o),
(417,558,o),
(417,514,cs),
(417,455,o),
(383,389,o),
(321,389,cs)
);
}
);
width = 466;
}
);
metricRight = "k-canadian";
note = uni157B;
unicode = 5499;
},
{
color = 4;
glyphname = "nunavuth-canadian";
lastChange = "2023-01-13 15:28:21 +0000";
layers = (
{
layerId = "DE93BBBF-E17B-48DE-A6AB-0C4E62D4ADD4";
shapes = (
{
closed = 1;
nodes = (
(95,0,l),
(168,342,l),
(556,342,l),
(483,0,l),
(547,0,l),
(699,714,l),
(635,714,l),
(568,399,l),
(181,399,l),
(247,714,l),
(183,714,l),
(31,0,l)
);
}
);
width = 682;
}
);
metricRight = "=|";
note = uni157C;
unicode = 5500;
},
{
glyphname = "tlhe-canadian";
lastChange = "2023-01-13 15:28:21 +0000";
layers = (
{
anchors = (
{
name = top_center_can;
pos = (396,714);
}
);
layerId = "DE93BBBF-E17B-48DE-A6AB-0C4E62D4ADD4";
shapes = (
{
closed = 1;
nodes = (
(125,0,l),
(324,275,l),
(279,251,l),
(289,250,o),
(300,250,o),
(310,250,cs),
(384,250,o),
(446,284,o),
(483,347,c),
(479,362,l),
(402,0,l),
(465,0,l),
(564,465,ls),
(594,607,o),
(531,727,o),
(375,727,cs),
(213,727,o),
(124,586,o),
(124,444,cs),
(124,354,o),
(172,286,o),
(249,264,c),
(57,0,l)
);
},
{
closed = 1;
nodes = (
(237,306,o),
(186,362,o),
(186,450,cs),
(186,548,o),
(246,671,o),
(371,671,cs),
(461,671,o),
(509,618,o),
(509,533,cs),
(509,431,o),
(447,306,o),
(320,306,cs)
);
}
);
width = 593;
}
);
metricRight = "te-canadian";
note = uni1586;
unicode = 5510;
},
{
glyphname = "tlhi-canadian";
lastChange = "2023-01-13 15:29:21 +0000";
layers = (
{
layerId = "DE93BBBF-E17B-48DE-A6AB-0C4E62D4ADD4";
shapes = (
{
closed = 1;
nodes = (
(88,0,l),
(171,390,l),
(150,381,l),
(167,308,o),
(229,257,o),
(313,252,c),
(282,277,l),
(365,0,l),
(433,0,l),
(356,256,l),
(494,266,o),
(575,405,o),
(575,530,cs),
(575,648,o),
(498,727,o),
(374,727,cs),
(251,727,o),
(163,649,o),
(131,502,cs),
(25,0,l)
);
},
{
closed = 1;
nodes = (
(240,306,o),
(188,359,o),
(188,446,cs),
(188,546,o),
(248,671,o),
(374,671,cs),
(462,671,o),
(512,617,o),
(512,532,cs),
(512,432,o),
(452,306,o),
(327,306,cs)
);
}
);
width = 595;
}
);
metricLeft = "te-canadian";
metricRight = "=|tlhe-canadian";
note = uni1587;
unicode = 5511;
},
{
glyphname = "tlho-canadian";
lastChange = "2023-01-13 15:29:21 +0000";
layers = (
{
anchors = (
{
name = top_center_can;
pos = (416,714);
}
);
layerId = "DE93BBBF-E17B-48DE-A6AB-0C4E62D4ADD4";
shapes = (
{
closed = 1;
nodes = (
(392,-13,o),
(479,65,o),
(511,212,cs),
(618,714,l),
(554,714,l),
(472,324,l),
(492,333,l),
(475,406,o),
(413,457,o),
(329,462,c),
(360,437,l),
(277,714,l),
(209,714,l),
(286,458,l),
(149,448,o),
(68,309,o),
(68,184,cs),
(68,66,o),
(144,-13,o),
(268,-13,cs)
);
},
{
closed = 1;
nodes = (
(181,43,o),
(130,97,o),
(130,182,cs),
(130,282,o),
(190,408,o),
(315,408,cs),
(402,408,o),
(454,355,o),
(454,268,cs),
(454,168,o),
(394,43,o),
(269,43,cs)
);
}
);
width = 594;
}
);
metricLeft = "tlhe-canadian";
metricRight = "te-canadian";
note = uni1588;
unicode = 5512;
},
{
glyphname = "tlha-canadian";
lastChange = "2023-01-13 15:28:21 +0000";
layers = (
{
layerId = "DE93BBBF-E17B-48DE-A6AB-0C4E62D4ADD4";
shapes = (
{
closed = 1;
nodes = (
(428,-13,o),
(517,128,o),
(517,270,cs),
(517,360,o),
(469,428,o),
(392,450,c),
(584,714,l),
(516,714,l),
(317,439,l),
(362,463,l),
(352,464,o),
(341,464,o),
(331,464,cs),
(257,464,o),
(195,430,o),
(158,367,c),
(162,352,l),
(239,714,l),
(176,714,l),
(77,249,ls),
(47,107,o),
(110,-13,o),
(266,-13,cs)
);
},
{
closed = 1;
nodes = (
(181,43,o),
(132,96,o),
(132,181,cs),
(132,283,o),
(195,408,o),
(321,408,cs),
(404,408,o),
(455,352,o),
(455,264,cs),
(455,166,o),
(395,43,o),
(271,43,cs)
);
}
);
width = 593;
}
);
metricLeft = "te-canadian";
note = uni1589;
unicode = 5513;
},
{
glyphname = "reWestCree-canadian";
lastChange = "2023-01-13 15:29:21 +0000";
layers = (
{
layerId = "DE93BBBF-E17B-48DE-A6AB-0C4E62D4ADD4";
shapes = (
{
closed = 1;
nodes = (
(450,0,l),
(727,198,l),
(694,245,l),
(447,69,l),
(468,55,l),
(553,456,ls),
(587,617,o),
(515,727,o),
(368,727,cs),
(235,727,o),
(157,648,o),
(122,486,cs),
(104,405,l),
(168,405,l),
(184,483,ls),
(211,612,o),
(268,670,o),
(363,670,cs),
(474,670,o),
(518,591,o),
(491,464,cs),
(393,0,l)
);
}
);
width = 767;
}
);
metricLeft = "ce-canadian";
metricRight = "heNunavik-canadian";
note = uni158A;
unicode = 5514;
},
{
glyphname = "riWestCree-canadian";
lastChange = "2023-01-13 15:29:21 +0000";
layers = (
{
layerId = "DE93BBBF-E17B-48DE-A6AB-0C4E62D4ADD4";
shapes = (
{
closed = 1;
nodes = (
(271,0,l),
(373,483,ls),
(400,612,o),
(457,670,o),
(553,670,cs),
(664,670,o),
(709,590,o),
(680,464,cs),
(668,405,l),
(732,405,l),
(743,456,ls),
(778,617,o),
(704,727,o),
(557,727,cs),
(424,727,o),
(346,648,o),
(311,486,cs),
(219,52,l),
(243,59,l),
(64,241,l),
(20,198,l),
(214,0,l)
);
}
);
width = 768;
}
);
metricLeft = "=|heNunavik-canadian";
metricRight = "=|ce-canadian";
note = uni158B;
unicode = 5515;
},
{
glyphname = "roWestCree-canadian";
lastChange = "2023-01-13 15:28:21 +0000";
layers = (
{
layerId = "DE93BBBF-E17B-48DE-A6AB-0C4E62D4ADD4";
shapes = (
{
closed = 1;
nodes = (
(391,-13,o),
(470,66,o),
(505,228,cs),
(597,662,l),
(573,655,l),
(751,473,l),
(795,516,l),
(602,714,l),
(545,714,l),
(442,231,ls),
(415,102,o),
(358,44,o),
(263,44,cs),
(151,44,o),
(107,124,o),
(135,250,cs),
(148,309,l),
(84,309,l),
(73,258,ls),
(38,97,o),
(111,-13,o),
(258,-13,cs)
);
}
);
width = 767;
}
);
metricLeft = "ce-canadian";
metricRight = "heNunavik-canadian";
note = uni158C;
unicode = 5516;
},
{
glyphname = "raWestCree-canadian";
lastChange = "2023-01-13 15:29:21 +0000";
layers = (
{
layerId = "DE93BBBF-E17B-48DE-A6AB-0C4E62D4ADD4";
shapes = (
{
closed = 1;
nodes = (
(580,-13,o),
(658,66,o),
(693,228,cs),
(711,309,l),
(647,309,l),
(631,231,ls),
(604,102,o),
(547,44,o),
(452,44,cs),
(341,44,o),
(297,123,o),
(324,250,cs),
(422,714,l),
(365,714,l),
(88,516,l),
(121,469,l),
(368,645,l),
(347,659,l),
(262,258,ls),
(228,97,o),
(300,-13,o),
(447,-13,cs)
);
}
);
width = 767;
}
);
metricLeft = "=|heNunavik-canadian";
metricRight = "=|ce-canadian";
note = uni158D;
unicode = 5517;
},
{
glyphname = "ng-canadian";
kernLeft = mwestleft;
kernRight = mwestright;
lastChange = "2023-01-13 15:29:21 +0000";
layers = (
{
layerId = "DE93BBBF-E17B-48DE-A6AB-0C4E62D4ADD4";
shapes = (
{
closed = 1;
nodes = (
(553,225,o),
(603,270,o),
(622,353,cs),
(627,376,l),
(582,376,l),
(576,350,ls),
(563,293,o),
(532,265,o),
(484,265,cs),
(433,265,o),
(412,297,o),
(425,356,cs),
(454,494,l),
(308,494,l),
(312,474,l),
(357,498,o),
(378,562,o),
(378,606,cs),
(379,674,o),
(337,720,o),
(268,720,cs),
(180,720,o),
(134,638,o),
(133,565,cs),
(131,495,o),
(174,449,o),
(244,449,cs),
(414,449,l),
(401,468,l),
(379,363,ls),
(361,280,o),
(402,225,o),
(481,225,cs)
);
},
{
closed = 1;
nodes = (
(200,487,o),
(175,516,o),
(176,562,cs),
(176,608,o),
(200,683,o),
(268,683,cs),
(311,683,o),
(336,653,o),
(335,607,cs),
(335,562,o),
(311,487,o),
(243,487,cs)
);
}
);
width = 649;
}
);
metricLeft = "n-canadian";
metricRight = "c-canadian";
note = uni1595;
unicode = 5525;
},
{
glyphname = "nng-canadian";
kernLeft = mwestleft;
kernRight = mwestright;
lastChange = "2023-01-13 15:28:21 +0000";
layers = (
{
layerId = "DE93BBBF-E17B-48DE-A6AB-0C4E62D4ADD4";
shapes = (
{
closed = 1;
nodes = (
(841,225,o),
(890,270,o),
(908,353,cs),
(913,376,l),
(868,376,l),
(862,350,ls),
(849,293,o),
(818,265,o),
(771,265,cs),
(719,265,o),
(698,297,o),
(711,356,cs),
(741,494,l),
(597,494,l),
(599,474,l),
(645,498,o),
(666,565,o),
(666,609,cs),
(666,676,o),
(624,720,o),
(556,720,cs),
(467,720,o),
(420,637,o),
(420,561,cs),
(420,525,o),
(433,496,o),
(457,477,c),
(466,494,l),
(309,494,l),
(310,474,l),
(357,499,o),
(377,566,o),
(377,608,cs),
(377,676,o),
(335,720,o),
(268,720,cs),
(179,720,o),
(132,637,o),
(132,561,cs),
(132,493,o),
(174,449,o),
(242,449,cs),
(684,449,l),
(665,363,ls),
(647,280,o),
(689,225,o),
(768,225,cs)
);
},
{
closed = 1;
nodes = (
(199,487,o),
(174,516,o),
(174,560,cs),
(174,605,o),
(198,683,o),
(267,683,cs),
(310,683,o),
(335,654,o),
(335,610,cs),
(335,565,o),
(311,487,o),
(242,487,cs)
);
},
{
closed = 1;
nodes = (
(488,487,o),
(463,516,o),
(463,560,cs),
(463,605,o),
(487,683,o),
(556,683,cs),
(598,683,o),
(623,654,o),
(623,610,cs),
(623,565,o),
(600,487,o),
(530,487,cs)
);
}
);
width = 935;
}
);
metricLeft = "n-canadian";
metricRight = "c-canadian";
note = uni1596;
unicode = 5526;
},
{
glyphname = "sheSayisi-canadian";
lastChange = "2023-01-13 15:29:21 +0000";
layers = (
{
anchors = (
{
name = middle_right_can;
pos = (704,357);
},
{
name = top_center_can;
pos = (397,714);
}
);
layerId = "DE93BBBF-E17B-48DE-A6AB-0C4E62D4ADD4";
shapes = (
{
closed = 1;
nodes = (
(466,0,l),
(561,447,ls),
(593,600,o),
(542,727,o),
(380,727,cs),
(184,727,o),
(109,523,o),
(109,384,cs),
(109,279,o),
(158,214,o),
(246,214,cs),
(335,214,o),
(391,283,o),
(417,425,c),
(377,425,l),
(356,318,o),
(318,269,o),
(256,269,cs),
(200,269,o),
(170,310,o),
(170,383,cs),
(170,486,o),
(222,671,o),
(375,671,cs),
(493,671,o),
(524,575,o),
(497,449,cs),
(402,0,l)
);
}
);
width = 594;
}
);
metricLeft = "ke-canadian";
metricRight = "te-canadian";
note = uni1597;
unicode = 5527;
},
{
glyphname = "shiSayisi-canadian";
lastChange = "2023-01-13 15:29:21 +0000";
layers = (
{
layerId = "DE93BBBF-E17B-48DE-A6AB-0C4E62D4ADD4";
shapes = (
{
closed = 1;
nodes = (
(88,0,l),
(190,483,ls),
(216,607,o),
(279,671,o),
(373,671,cs),
(463,671,o),
(513,617,o),
(513,523,cs),
(513,443,o),
(470,269,o),
(366,269,cs),
(298,269,o),
(269,326,o),
(293,425,c),
(253,425,l),
(220,300,o),
(269,214,o),
(369,214,cs),
(516,214,o),
(574,413,o),
(574,523,cs),
(574,649,o),
(500,727,o),
(375,727,cs),
(247,727,o),
(160,644,o),
(129,493,cs),
(24,0,l)
);
}
);
width = 594;
}
);
metricLeft = "te-canadian";
metricRight = "=|ke-canadian";
note = uni1598;
unicode = 5528;
},
{
glyphname = "shoSayisi-canadian";
lastChange = "2023-01-13 15:28:21 +0000";
layers = (
{
anchors = (
{
name = top_center_can;
pos = (394,714);
},
{
name = top_left_can;
pos = (201,714);
},
{
name = top_right_can;
pos = (586,714);
}
);
layerId = "DE93BBBF-E17B-48DE-A6AB-0C4E62D4ADD4";
shapes = (
{
closed = 1;
nodes = (
(395,-13,o),
(480,70,o),
(512,221,cs),
(617,714,l),
(553,714,l),
(450,231,ls),
(424,107,o),
(362,43,o),
(268,43,cs),
(178,43,o),
(129,97,o),
(129,191,cs),
(129,271,o),
(171,445,o),
(275,445,cs),
(343,445,o),
(372,388,o),
(348,289,c),
(389,289,l),
(421,414,o),
(372,500,o),
(272,500,cs),
(125,500,o),
(67,301,o),
(67,191,cs),
(67,65,o),
(141,-13,o),
(266,-13,cs)
);
}
);
width = 593;
}
);
metricLeft = "ke-canadian";
metricRight = "te-canadian";
note = uni1599;
unicode = 5529;
},
{
glyphname = "shaSayisi-canadian";
lastChange = "2023-01-13 15:28:21 +0000";
layers = (
{
layerId = "DE93BBBF-E17B-48DE-A6AB-0C4E62D4ADD4";
shapes = (
{
closed = 1;
nodes = (
(457,-13,o),
(532,191,o),
(532,330,cs),
(532,435,o),
(483,500,o),
(396,500,cs),
(307,500,o),
(251,431,o),
(224,289,c),
(264,289,l),
(286,396,o),
(324,445,o),
(385,445,cs),
(441,445,o),
(471,404,o),
(471,331,cs),
(471,228,o),
(419,43,o),
(267,43,cs),
(148,43,o),
(117,139,o),
(144,265,cs),
(240,714,l),
(176,714,l),
(81,267,ls),
(48,114,o),
(99,-13,o),
(262,-13,cs)
);
}
);
width = 593;
}
);
metricLeft = "te-canadian";
metricRight = "=|ke-canadian";
note = uni159A;
unicode = 5530;
},
{
glyphname = "theWoodScree-canadian";
lastChange = "2023-01-13 15:28:21 +0000";
layers = (
{
layerId = "DE93BBBF-E17B-48DE-A6AB-0C4E62D4ADD4";
shapes = (
{
closed = 1;
nodes = (
(672,-13,o),
(756,151,o),
(756,284,cs),
(756,407,o),
(676,489,o),
(548,489,cs),
(126,489,l),
(115,434,l),
(465,434,l),
(466,459,l),
(337,424,o),
(295,285,o),
(295,194,cs),
(295,71,o),
(374,-13,o),
(499,-13,cs)
);
},
{
closed = 1;
nodes = (
(412,43,o),
(357,104,o),
(357,196,cs),
(357,299,o),
(418,433,o),
(548,433,cs),
(639,433,o),
(694,374,o),
(694,283,cs),
(694,182,o),
(635,43,o),
(501,43,cs)
);
},
{
closed = 1;
nodes = (
(833,659,l),
(844,714,l),
(174,714,l),
(163,659,l)
);
}
);
width = 829;
}
);
note = uni159B;
unicode = 5531;
},
{
glyphname = "thiWoodScree-canadian";
kernRight = niright;
lastChange = "2023-01-13 15:29:21 +0000";
layers = (
{
layerId = "DE93BBBF-E17B-48DE-A6AB-0C4E62D4ADD4";
shapes = (
{
closed = 1;
nodes = (
(448,-13,o),
(532,151,o),
(532,284,cs),
(532,355,o),
(501,411,o),
(452,439,c),
(442,434,l),
(795,434,l),
(806,489,l),
(334,489,ls),
(157,489,o),
(71,334,o),
(71,194,cs),
(71,71,o),
(150,-13,o),
(275,-13,cs)
);
},
{
closed = 1;
nodes = (
(188,43,o),
(133,104,o),
(133,196,cs),
(133,299,o),
(194,433,o),
(324,433,cs),
(415,433,o),
(470,374,o),
(470,283,cs),
(470,182,o),
(411,43,o),
(277,43,cs)
);
},
{
closed = 1;
nodes = (
(843,659,l),
(854,714,l),
(185,714,l),
(173,659,l)
);
}
);
width = 829;
}
);
metricLeft = "theWoodScree-canadian";
metricRight = "theWoodScree-canadian";
note = uni159C;
unicode = 5532;
},
{
glyphname = "thoWoodScree-canadian";
lastChange = "2023-01-13 15:28:21 +0000";
layers = (
{
layerId = "DE93BBBF-E17B-48DE-A6AB-0C4E62D4ADD4";
shapes = (
{
closed = 1;
nodes = (
(495,0,ls),
(672,0,o),
(758,155,o),
(758,295,cs),
(758,418,o),
(679,501,o),
(553,501,cs),
(381,501,o),
(297,338,o),
(297,205,cs),
(297,134,o),
(327,78,o),
(377,49,c),
(387,55,l),
(34,55,l),
(22,0,l)
);
},
{
closed = 1;
nodes = (
(413,56,o),
(359,115,o),
(359,206,cs),
(359,307,o),
(417,445,o),
(552,445,cs),
(641,445,o),
(695,385,o),
(695,293,cs),
(695,190,o),
(634,56,o),
(505,56,cs)
);
},
{
closed = 1;
nodes = (
(832,659,l),
(844,714,l),
(174,714,l),
(163,659,l)
);
}
);
width = 829;
}
);
metricLeft = "theWoodScree-canadian";
metricRight = "theWoodScree-canadian";
note = uni159D;
unicode = 5533;
},
{
glyphname = "thaWoodScree-canadian";
lastChange = "2023-01-13 15:29:21 +0000";
layers = (
{
layerId = "DE93BBBF-E17B-48DE-A6AB-0C4E62D4ADD4";
shapes = (
{
closed = 1;
nodes = (
(703,0,l),
(714,55,l),
(364,55,l),
(362,30,l),
(492,65,o),
(534,203,o),
(534,295,cs),
(534,418,o),
(454,501,o),
(330,501,cs),
(156,501,o),
(73,338,o),
(73,205,cs),
(73,82,o),
(152,0,o),
(281,0,cs)
);
},
{
closed = 1;
nodes = (
(189,56,o),
(135,115,o),
(135,206,cs),
(135,307,o),
(193,445,o),
(328,445,cs),
(417,445,o),
(471,385,o),
(471,293,cs),
(471,190,o),
(411,56,o),
(281,56,cs)
);
},
{
closed = 1;
nodes = (
(842,659,l),
(854,714,l),
(184,714,l),
(172,659,l)
);
}
);
width = 829;
}
);
metricLeft = "theWoodScree-canadian";
metricRight = "theWoodScree-canadian";
note = uni159E;
unicode = 5534;
},
{
glyphname = "thWoodScree-canadian";
lastChange = "2023-01-13 15:29:21 +0000";
layers = (
{
layerId = "DE93BBBF-E17B-48DE-A6AB-0C4E62D4ADD4";
shapes = (
{
closed = 1;
nodes = (
(467,357,l),
(476,399,l),
(288,399,l),
(285,375,l),
(345,394,o),
(368,470,o),
(368,516,cs),
(368,583,o),
(325,628,o),
(258,628,cs),
(169,628,o),
(122,544,o),
(122,469,cs),
(122,400,o),
(165,357,o),
(233,357,cs)
);
},
{
closed = 1;
nodes = (
(190,394,o),
(165,423,o),
(165,467,cs),
(165,512,o),
(189,590,o),
(258,590,cs),
(300,590,o),
(325,561,o),
(325,517,cs),
(325,473,o),
(302,394,o),
(232,394,cs)
);
},
{
closed = 1;
nodes = (
(538,700,l),
(547,742,l),
(181,742,l),
(171,700,l)
);
}
);
width = 513;
}
);
metricRight = "=|";
note = uni159F;
unicode = 5535;
},
{
glyphname = "lhi-canadian";
kernRight = niright;
lastChange = "2023-01-13 15:29:21 +0000";
layers = (
{
anchors = (
{
name = top_center_can;
pos = (578,714);
},
{
name = top_right_can;
pos = (666,714);
}
);
layerId = "DE93BBBF-E17B-48DE-A6AB-0C4E62D4ADD4";
shapes = (
{
closed = 1;
nodes = (
(310,0,l),
(322,57,l),
(285,57,ls),
(186,57,o),
(131,111,o),
(131,201,cs),
(131,303,o),
(184,430,o),
(362,430,cs),
(791,430,l),
(802,483,l),
(681,747,l),
(625,721,l),
(743,463,l),
(759,489,l),
(367,489,ls),
(149,489,o),
(68,339,o),
(68,200,cs),
(68,80,o),
(145,0,o),
(271,0,cs)
);
}
);
width = 816;
}
);
metricLeft = "ke-canadian";
metricRight = "=|ne-canadian";
note = uni15A0;
unicode = 5536;
},
{
glyphname = "lho-canadian";
kernLeft = noleft;
lastChange = "2023-01-13 15:29:21 +0000";
layers = (
{
anchors = (
{
name = top_center_can;
pos = (452,507);
},
{
name = top_right_can;
pos = (567,507);
}
);
layerId = "DE93BBBF-E17B-48DE-A6AB-0C4E62D4ADD4";
shapes = (
{
closed = 1;
nodes = (
(191,-232,l),
(73,25,l),
(56,0,l),
(448,0,ls),
(667,0,o),
(748,149,o),
(748,288,cs),
(748,408,o),
(670,488,o),
(544,488,cs),
(505,488,l),
(494,431,l),
(530,431,ls),
(629,431,o),
(685,377,o),
(685,288,cs),
(685,186,o),
(632,58,o),
(454,58,cs),
(24,58,l),
(13,6,l),
(134,-258,l)
);
}
);
width = 817;
}
);
metricLeft = "ne-canadian";
metricRight = "=|ke-canadian";
note = uni15A2;
unicode = 5538;
},
{
glyphname = "lha-canadian";
kernRight = naright;
lastChange = "2023-01-13 15:29:21 +0000";
layers = (
{
anchors = (
{
name = top_center_can;
pos = (478,507);
},
{
name = top_left_can;
pos = (362,507);
}
);
layerId = "DE93BBBF-E17B-48DE-A6AB-0C4E62D4ADD4";
shapes = (
{
closed = 1;
nodes = (
(700,6,l),
(712,58,l),
(289,58,ls),
(187,58,o),
(132,110,o),
(132,201,cs),
(132,303,o),
(182,431,o),
(359,431,cs),
(401,431,l),
(413,489,l),
(365,489,ls),
(143,489,o),
(68,333,o),
(68,198,cs),
(68,77,o),
(146,0,o),
(276,0,cs),
(654,0,l),
(640,25,l),
(423,-220,l),
(467,-258,l)
);
}
);
width = 816;
}
);
metricLeft = "ke-canadian";
metricRight = "=|ne-canadian";
note = uni15A4;
unicode = 5540;
},
{
glyphname = "lh-canadian";
kernLeft = mwestleft;
kernRight = mwestright;
lastChange = "2023-01-13 15:28:21 +0000";
layers = (
{
layerId = "DE93BBBF-E17B-48DE-A6AB-0C4E62D4ADD4";
shapes = (
{
closed = 1;
nodes = (
(475,362,l),
(484,401,l),
(274,401,ls),
(208,401,o),
(174,435,o),
(174,496,cs),
(174,569,o),
(206,670,o),
(328,670,cs),
(349,670,l),
(358,714,l),
(333,714,ls),
(190,714,o),
(127,608,o),
(127,494,cs),
(127,407,o),
(179,357,o),
(272,357,cs),
(446,357,l),
(432,384,l),
(313,246,l),
(348,215,l)
);
}
);
width = 518;
}
);
metricLeft = "t-canadian";
metricRight = "=|";
note = uni15A6;
unicode = 5542;
},
{
glyphname = "theThCree-canadian";
lastChange = "2023-01-13 15:28:21 +0000";
layers = (
{
anchors = (
{
name = top_left_can;
pos = (181,714);
},
{
name = top_right_can;
pos = (556,714);
}
);
layerId = "DE93BBBF-E17B-48DE-A6AB-0C4E62D4ADD4";
shapes = (
{
closed = 1;
nodes = (
(398,121,l),
(372,0,l),
(435,0,l),
(461,121,l),
(545,121,l),
(554,163,l),
(470,163,l),
(504,321,l),
(149,321,l),
(157,302,l),
(592,684,l),
(553,726,l),
(59,290,l),
(54,264,l),
(428,264,l),
(407,163,l),
(154,163,l),
(146,121,l)
);
}
);
width = 608;
}
);
metricLeft = "ye-canadian";
note = uni15A7;
unicode = 5543;
},
{
glyphname = "thiThCree-canadian";
kernRight = yiright;
lastChange = "2023-01-13 15:28:21 +0000";
layers = (
{
anchors = (
{
name = top_left_can;
pos = (253,714);
},
{
name = top_right_can;
pos = (627,714);
}
);
layerId = "DE93BBBF-E17B-48DE-A6AB-0C4E62D4ADD4";
shapes = (
{
closed = 1;
nodes = (
(132,0,l),
(159,121,l),
(411,121,l),
(420,163,l),
(167,163,l),
(189,264,l),
(563,264,l),
(568,290,l),
(251,726,l),
(204,692,l),
(492,298,l),
(505,321,l),
(137,321,l),
(104,163,l),
(20,163,l),
(11,121,l),
(94,121,l),
(69,0,l)
);
}
);
width = 608;
}
);
metricLeft = "=|theThCree-canadian";
metricRight = "=|ye-canadian";
note = uni15A8;
unicode = 5544;
},
{
glyphname = "thoThCree-canadian";
kernLeft = yoleft;
lastChange = "2023-01-13 15:29:21 +0000";
layers = (
{
anchors = (
{
name = top_left_can;
pos = (181,714);
},
{
name = top_right_can;
pos = (556,714);
}
);
layerId = "DE93BBBF-E17B-48DE-A6AB-0C4E62D4ADD4";
shapes = (
{
closed = 1;
nodes = (
(451,22,l),
(164,416,l),
(151,393,l),
(519,393,l),
(552,551,l),
(637,551,l),
(645,593,l),
(561,593,l),
(587,714,l),
(523,714,l),
(497,593,l),
(244,593,l),
(236,551,l),
(488,551,l),
(467,450,l),
(93,450,l),
(87,424,l),
(405,-12,l)
);
}
);
width = 609;
}
);
metricLeft = "ye-canadian";
metricRight = "theThCree-canadian";
note = uni15AA;
unicode = 5546;
},
{
glyphname = "thaThCree-canadian";
kernRight = yaright;
lastChange = "2023-01-13 15:29:21 +0000";
layers = (
{
anchors = (
{
name = top_left_can;
pos = (253,714);
},
{
name = top_right_can;
pos = (627,714);
}
);
layerId = "DE93BBBF-E17B-48DE-A6AB-0C4E62D4ADD4";
shapes = (
{
closed = 1;
nodes = (
(598,424,l),
(603,450,l),
(228,450,l),
(249,551,l),
(502,551,l),
(510,593,l),
(258,593,l),
(284,714,l),
(220,714,l),
(194,593,l),
(111,593,l),
(102,551,l),
(185,551,l),
(152,393,l),
(508,393,l),
(500,412,l),
(63,30,l),
(103,-12,l)
);
}
);
width = 609;
}
);
metricLeft = "=|theThCree-canadian";
metricRight = "=|ye-canadian";
note = uni15AC;
unicode = 5548;
},
{
glyphname = "thThCree-canadian";
kernLeft = mwestleft;
kernRight = mwestright;
lastChange = "2023-01-13 15:29:21 +0000";
layers = (
{
layerId = "DE93BBBF-E17B-48DE-A6AB-0C4E62D4ADD4";
shapes = (
{
closed = 1;
nodes = (
(184,634,l),
(164,542,l),
(341,542,l),
(333,561,l),
(128,379,l),
(157,348,l),
(399,565,l),
(403,582,l),
(220,582,l),
(231,634,l),
(354,634,l),
(360,661,l),
(236,661,l),
(248,714,l),
(200,714,l),
(189,661,l),
(147,661,l),
(141,634,l)
);
}
);
width = 374;
}
);
metricRight = "y-canadian";
note = uni15AE;
unicode = 5550;
},
{
glyphname = "bAivilik-canadian";
lastChange = "2023-01-13 15:28:21 +0000";
layers = (
{
layerId = "DE93BBBF-E17B-48DE-A6AB-0C4E62D4ADD4";
shapes = (
{
closed = 1;
nodes = (
(456,-13,o),
(529,168,o),
(529,299,cs),
(529,423,o),
(456,501,o),
(342,501,cs),
(259,501,o),
(198,456,o),
(166,386,c),
(175,376,l),
(247,714,l),
(183,714,l),
(32,0,l),
(93,0,l),
(123,143,l),
(115,131,l),
(125,42,o),
(186,-13,o),
(281,-13,cs)
);
},
{
closed = 1;
nodes = (
(194,43,o),
(144,99,o),
(144,192,cs),
(144,288,o),
(192,446,o),
(330,446,cs),
(417,446,o),
(467,390,o),
(467,298,cs),
(467,204,o),
(420,43,o),
(281,43,cs)
);
}
);
width = 596;
}
);
metricLeft = "nunavuth-canadian";
metricRight = "=|ke-canadian";
note = uni15AF;
unicode = 5551;
},
{
glyphname = "eBlackfoot-canadian";
lastChange = "2023-01-13 15:28:21 +0000";
layers = (
{
layerId = "DE93BBBF-E17B-48DE-A6AB-0C4E62D4ADD4";
shapes = (
{
closed = 1;
nodes = (
(95,0,l),
(187,433,l),
(212,390,o),
(258,365,o),
(316,365,cs),
(438,365,o),
(507,476,o),
(507,574,cs),
(507,663,o),
(449,727,o),
(358,727,cs),
(313,727,o),
(270,710,o),
(238,681,c),
(245,714,l),
(183,714,l),
(31,0,l)
);
}
);
width = 489;
}
);
metricLeft = "nunavuth-canadian";
note = uni15B0;
unicode = 5552;
},
{
glyphname = "iBlackfoot-canadian";
lastChange = "2023-01-13 15:28:21 +0000";
layers = (
{
layerId = "DE93BBBF-E17B-48DE-A6AB-0C4E62D4ADD4";
shapes = (
{
closed = 1;
nodes = (
(225,-13,o),
(268,4,o),
(299,33,c),
(292,0,l),
(354,0,l),
(506,714,l),
(442,714,l),
(350,281,l),
(326,324,o),
(280,349,o),
(222,349,cs),
(100,349,o),
(30,238,o),
(30,140,cs),
(30,51,o),
(89,-13,o),
(179,-13,cs)
);
}
);
width = 489;
}
);
metricLeft = "=|eBlackfoot-canadian";
metricRight = "nunavuth-canadian";
note = uni15B1;
unicode = 5553;
},
{
glyphname = "oBlackfoot-canadian";
lastChange = "2023-01-13 15:28:21 +0000";
layers = (
{
layerId = "DE93BBBF-E17B-48DE-A6AB-0C4E62D4ADD4";
shapes = (
{
closed = 1;
nodes = (
(356,-13,o),
(427,95,o),
(427,196,cs),
(427,285,o),
(369,349,o),
(280,349,cs),
(235,349,o),
(191,332,o),
(160,302,c),
(247,714,l),
(183,714,l),
(31,0,l),
(93,0,l),
(106,62,l),
(129,15,o),
(176,-13,o),
(236,-13,cs)
);
}
);
width = 489;
}
);
metricLeft = "nunavuth-canadian";
metricRight = "eBlackfoot-canadian";
note = uni15B2;
unicode = 5554;
},
{
glyphname = "aBlackfoot-canadian";
lastChange = "2023-01-13 15:29:21 +0000";
layers = (
{
layerId = "DE93BBBF-E17B-48DE-A6AB-0C4E62D4ADD4";
shapes = (
{
closed = 1;
nodes = (
(353,0,l),
(505,714,l),
(443,714,l),
(430,652,l),
(407,699,o),
(361,727,o),
(300,727,cs),
(180,727,o),
(110,619,o),
(110,518,cs),
(110,429,o),
(168,365,o),
(256,365,cs),
(302,365,o),
(345,382,o),
(377,412,c),
(289,0,l)
);
}
);
width = 488;
}
);
metricLeft = "=|eBlackfoot-canadian";
metricRight = "nunavuth-canadian";
note = uni15B3;
unicode = 5555;
},
{
glyphname = "weBlackfoot-canadian";
lastChange = "2023-01-13 15:28:21 +0000";
layers = (
{
layerId = "DE93BBBF-E17B-48DE-A6AB-0C4E62D4ADD4";
shapes = (
{
closed = 1;
nodes = (
(95,0,l),
(165,330,l),
(527,330,l),
(538,385,l),
(177,385,l),
(235,659,l),
(597,659,l),
(608,714,l),
(183,714,l),
(31,0,l)
);
}
);
width = 571;
}
);
metricLeft = "nunavuth-canadian";
note = uni15B4;
unicode = 5556;
},
{
glyphname = "wiBlackfoot-canadian";
lastChange = "2023-01-13 15:28:21 +0000";
layers = (
{
layerId = "DE93BBBF-E17B-48DE-A6AB-0C4E62D4ADD4";
shapes = (
{
closed = 1;
nodes = (
(436,0,l),
(588,714,l),
(524,714,l),
(454,384,l),
(92,384,l),
(81,329,l),
(442,329,l),
(384,55,l),
(22,55,l),
(11,0,l)
);
}
);
width = 571;
}
);
metricLeft = "=|weBlackfoot-canadian";
metricRight = "nunavuth-canadian";
note = uni15B5;
unicode = 5557;
},
{
glyphname = "woBlackfoot-canadian";
lastChange = "2023-01-13 15:28:21 +0000";
layers = (
{
layerId = "DE93BBBF-E17B-48DE-A6AB-0C4E62D4ADD4";
shapes = (
{
closed = 1;
nodes = (
(457,0,l),
(468,55,l),
(107,55,l),
(165,329,l),
(527,329,l),
(538,384,l),
(177,384,l),
(247,714,l),
(183,714,l),
(31,0,l)
);
}
);
width = 571;
}
);
metricLeft = "nunavuth-canadian";
metricRight = "weBlackfoot-canadian";
note = uni15B6;
unicode = 5558;
},
{
glyphname = "waBlackfoot-canadian";
lastChange = "2023-01-13 15:28:21 +0000";
layers = (
{
layerId = "DE93BBBF-E17B-48DE-A6AB-0C4E62D4ADD4";
shapes = (
{
closed = 1;
nodes = (
(436,0,l),
(588,714,l),
(162,714,l),
(151,659,l),
(512,659,l),
(454,385,l),
(93,385,l),
(81,330,l),
(442,330,l),
(372,0,l)
);
}
);
width = 571;
}
);
metricLeft = "=|weBlackfoot-canadian";
metricRight = "nunavuth-canadian";
note = uni15B7;
unicode = 5559;
},
{
glyphname = "neBlackfoot-canadian";
lastChange = "2023-01-13 15:28:21 +0000";
layers = (
{
layerId = "DE93BBBF-E17B-48DE-A6AB-0C4E62D4ADD4";
shapes = (
{
closed = 1;
nodes = (
(95,0,l),
(237,664,l),
(283,664,l),
(267,702,l),
(261,673,ls),
(229,524,o),
(304,422,o),
(450,422,cs),
(579,422,o),
(667,500,o),
(697,650,cs),
(711,714,l),
(648,714,l),
(635,653,ls),
(612,536,o),
(550,478,o),
(453,478,cs),
(347,478,o),
(298,550,o),
(322,662,cs),
(333,714,l),
(183,714,l),
(31,0,l)
);
}
);
width = 657;
}
);
metricLeft = "nunavuth-canadian";
note = uni15B8;
unicode = 5560;
},
{
glyphname = "niBlackfoot-canadian";
lastChange = "2023-01-13 15:29:21 +0000";
layers = (
{
layerId = "DE93BBBF-E17B-48DE-A6AB-0C4E62D4ADD4";
shapes = (
{
closed = 1;
nodes = (
(57,0,l),
(70,61,ls),
(93,178,o),
(156,236,o),
(252,236,cs),
(359,236,o),
(408,164,o),
(384,52,cs),
(373,0,l),
(522,0,l),
(674,714,l),
(610,714,l),
(469,50,l),
(422,50,l),
(439,12,l),
(445,41,ls),
(477,190,o),
(402,292,o),
(255,292,cs),
(126,292,o),
(39,214,o),
(8,64,cs),
(-6,0,l)
);
}
);
width = 657;
}
);
metricLeft = "=|neBlackfoot-canadian";
metricRight = "nunavuth-canadian";
note = uni15B9;
unicode = 5561;
},
{
glyphname = "noBlackfoot-canadian";
lastChange = "2023-01-13 15:29:21 +0000";
layers = (
{
layerId = "DE93BBBF-E17B-48DE-A6AB-0C4E62D4ADD4";
shapes = (
{
closed = 1;
nodes = (
(181,0,l),
(192,55,ls),
(218,177,o),
(275,236,o),
(372,236,cs),
(479,236,o),
(531,163,o),
(506,45,cs),
(497,0,l),
(560,0,l),
(567,37,ls),
(598,191,o),
(522,293,o),
(377,293,cs),
(247,293,o),
(163,212,o),
(129,54,cs),
(120,13,l),
(153,50,l),
(106,50,l),
(247,714,l),
(183,714,l),
(31,0,l)
);
}
);
width = 658;
}
);
metricLeft = "nunavuth-canadian";
metricRight = "neBlackfoot-canadian";
note = uni15BA;
unicode = 5562;
},
{
glyphname = "naBlackfoot-canadian";
lastChange = "2023-01-13 15:29:21 +0000";
layers = (
{
layerId = "DE93BBBF-E17B-48DE-A6AB-0C4E62D4ADD4";
shapes = (
{
closed = 1;
nodes = (
(522,0,l),
(674,714,l),
(525,714,l),
(513,659,ls),
(488,537,o),
(431,478,o),
(334,478,cs),
(226,478,o),
(175,551,o),
(200,669,cs),
(209,714,l),
(146,714,l),
(139,677,ls),
(108,523,o),
(184,421,o),
(329,421,cs),
(458,421,o),
(543,502,o),
(577,660,cs),
(585,701,l),
(553,664,l),
(600,664,l),
(458,0,l)
);
}
);
width = 657;
}
);
metricLeft = "=|neBlackfoot-canadian";
metricRight = "nunavuth-canadian";
note = uni15BB;
unicode = 5563;
},
{
glyphname = "keBlackfoot-canadian";
lastChange = "2023-01-13 15:28:21 +0000";
layers = (
{
layerId = "DE93BBBF-E17B-48DE-A6AB-0C4E62D4ADD4";
shapes = (
{
closed = 1;
nodes = (
(95,0,l),
(233,645,l),
(207,645,l),
(323,267,l),
(354,267,l),
(685,714,l),
(611,714,l),
(336,339,l),
(357,337,l),
(242,714,l),
(183,714,l),
(31,0,l)
);
}
);
width = 615;
}
);
metricLeft = "nunavuth-canadian";
note = uni15BC;
unicode = 5564;
},
{
glyphname = "kiBlackfoot-canadian";
lastChange = "2023-01-13 15:28:21 +0000";
layers = (
{
layerId = "DE93BBBF-E17B-48DE-A6AB-0C4E62D4ADD4";
shapes = (
{
closed = 1;
nodes = (
(53,0,l),
(328,375,l),
(307,377,l),
(421,0,l),
(480,0,l),
(632,714,l),
(568,714,l),
(431,69,l),
(456,69,l),
(340,447,l),
(309,447,l),
(-22,0,l)
);
}
);
width = 615;
}
);
metricLeft = "=|keBlackfoot-canadian";
metricRight = "nunavuth-canadian";
note = uni15BD;
unicode = 5565;
},
{
glyphname = "koBlackfoot-canadian";
lastChange = "2023-01-13 15:28:21 +0000";
layers = (
{
layerId = "DE93BBBF-E17B-48DE-A6AB-0C4E62D4ADD4";
shapes = (
{
closed = 1;
nodes = (
(92,0,l),
(380,382,l),
(347,387,l),
(468,0,l),
(533,0,l),
(392,447,l),
(360,447,l),
(82,69,l),
(110,69,l),
(247,714,l),
(183,714,l),
(31,0,l)
);
}
);
width = 615;
}
);
metricLeft = "nunavuth-canadian";
metricRight = "keBlackfoot-canadian";
note = uni15BE;
unicode = 5566;
},
{
glyphname = "kaBlackfoot-canadian";
lastChange = "2023-01-13 15:28:21 +0000";
layers = (
{
layerId = "DE93BBBF-E17B-48DE-A6AB-0C4E62D4ADD4";
shapes = (
{
closed = 1;
nodes = (
(480,1,l),
(632,715,l),
(572,715,l),
(284,332,l),
(317,328,l),
(196,715,l),
(130,715,l),
(271,268,l),
(303,268,l),
(581,646,l),
(554,646,l),
(416,1,l)
);
}
);
width = 615;
}
);
metricLeft = "=|keBlackfoot-canadian";
metricRight = "nunavuth-canadian";
note = uni15BF;
unicode = 5567;
},
{
color = 9;
glyphname = "heSayisi-canadian";
lastChange = "2023-01-13 15:28:21 +0000";
layers = (
{
anchors = (
{
name = top_right_can;
pos = (646,714);
}
);
layerId = "DE93BBBF-E17B-48DE-A6AB-0C4E62D4ADD4";
shapes = (
{
closed = 1;
nodes = (
(526,0,l),
(678,714,l),
(614,714,l),
(512,234,l),
(526,233,l),
(581,542,o),
(513,727,o),
(340,727,cs),
(227,727,o),
(152,649,o),
(118,499,cs),
(107,451,o),
(101,406,o),
(100,352,c),
(161,352,l),
(163,400,o),
(168,443,o),
(177,483,cs),
(204,606,o),
(261,670,o),
(346,670,cs),
(513,670,o),
(554,435,o),
(462,0,c)
);
}
);
width = 661;
}
);
metricRight = "nunavuth-canadian";
note = uni15C0;
unicode = 5568;
},
{
color = 9;
glyphname = "hiSayisi-canadian";
lastChange = "2023-01-13 15:29:21 +0000";
layers = (
{
layerId = "DE93BBBF-E17B-48DE-A6AB-0C4E62D4ADD4";
shapes = (
{
closed = 1;
nodes = (
(95,0,l),
(189,441,o),
(319,670,o),
(474,670,cs),
(569,670,o),
(609,587,o),
(579,449,cs),
(572,412,o),
(561,383,o),
(548,352,c),
(609,352,l),
(624,388,o),
(635,420,o),
(642,450,cs),
(676,619,o),
(616,727,o),
(489,727,cs),
(339,727,o),
(211,562,o),
(140,272,c),
(152,271,l),
(247,714,l),
(183,714,l),
(31,0,l)
);
}
);
width = 662;
}
);
metricLeft = "nunavuth-canadian";
metricRight = "=|heSayisi-canadian";
note = uni15C1;
unicode = 5569;
},
{
color = 9;
glyphname = "hoSayisi-canadian";
lastChange = "2023-01-13 15:29:21 +0000";
layers = (
{
anchors = (
{
name = top_center_can;
pos = (427,714);
},
{
name = top_left_can;
pos = (207,714);
},
{
name = top_right_can;
pos = (647,714);
}
);
layerId = "DE93BBBF-E17B-48DE-A6AB-0C4E62D4ADD4";
shapes = (
{
closed = 1;
nodes = (
(371,-13,o),
(499,152,o),
(570,442,c),
(558,443,l),
(463,0,l),
(527,0,l),
(679,714,l),
(615,714,l),
(521,273,o),
(391,44,o),
(236,44,cs),
(141,44,o),
(101,127,o),
(131,265,cs),
(138,302,o),
(149,331,o),
(162,362,c),
(101,362,l),
(86,326,o),
(75,294,o),
(68,264,cs),
(34,95,o),
(94,-13,o),
(221,-13,cs)
);
}
);
width = 662;
}
);
metricLeft = "heSayisi-canadian";
metricRight = "nunavuth-canadian";
note = uni15C2;
unicode = 5570;
},
{
color = 9;
glyphname = "haSayisi-canadian";
lastChange = "2023-01-13 15:28:21 +0000";
layers = (
{
layerId = "DE93BBBF-E17B-48DE-A6AB-0C4E62D4ADD4";
shapes = (
{
closed = 1;
nodes = (
(482,-13,o),
(557,65,o),
(591,215,cs),
(602,263,o),
(608,308,o),
(609,362,c),
(548,362,l),
(546,314,o),
(541,271,o),
(532,231,cs),
(505,108,o),
(448,44,o),
(363,44,cs),
(196,44,o),
(155,279,o),
(247,714,c),
(183,714,l),
(31,0,l),
(95,0,l),
(197,480,l),
(183,481,l),
(128,172,o),
(196,-13,o),
(369,-13,cs)
);
}
);
width = 661;
}
);
metricLeft = "nunavuth-canadian";
metricRight = "=|heSayisi-canadian";
note = uni15C3;
unicode = 5571;
},
{
color = 9;
glyphname = "ghuCarrier-canadian";
lastChange = "2023-01-13 15:29:21 +0000";
layers = (
{
layerId = "DE93BBBF-E17B-48DE-A6AB-0C4E62D4ADD4";
shapes = (
{
closed = 1;
nodes = (
(320,0,l),
(774,694,l),
(778,714,l),
(718,714,l),
(556,462,l),
(584,477,l),
(221,477,l),
(243,462,l),
(189,714,l),
(137,714,l),
(132,694,l),
(291,0,l)
);
},
{
closed = 1;
nodes = (
(553,427,l),
(543,440,l),
(306,70,l),
(330,66,l),
(248,441,l),
(232,427,l)
);
}
);
width = 714;
}
);
metricLeft = "e-canadian";
metricRight = "e-canadian";
note = uni15C4;
unicode = 5572;
},
{
color = 9;
glyphname = "ghoCarrier-canadian";
lastChange = "2023-01-13 15:29:21 +0000";
layers = (
{
layerId = "DE93BBBF-E17B-48DE-A6AB-0C4E62D4ADD4";
shapes = (
{
closed = 1;
nodes = (
(44,0,l),
(206,252,l),
(178,237,l),
(541,237,l),
(519,252,l),
(573,0,l),
(625,0,l),
(630,20,l),
(471,714,l),
(442,714,l),
(-12,20,l),
(-16,0,l)
);
},
{
closed = 1;
nodes = (
(527,303,l),
(218,304,l),
(228,275,l),
(459,628,l),
(423,631,l),
(505,272,l)
);
}
);
width = 714;
}
);
metricLeft = "e-canadian";
metricRight = "e-canadian";
note = uni15C5;
unicode = 5573;
},
{
color = 9;
glyphname = "gheCarrier-canadian";
lastChange = "2023-01-13 15:29:21 +0000";
layers = (
{
anchors = (
{
name = middle_center_can;
pos = (104,363);
}
);
layerId = "DE93BBBF-E17B-48DE-A6AB-0C4E62D4ADD4";
shapes = (
{
closed = 1;
nodes = (
(27,0,l),
(640,342,l),
(647,371,l),
(179,714,l),
(160,714,l),
(150,667,l),
(299,558,l),
(293,596,l),
(194,132,l),
(214,168,l),
(20,60,l),
(8,0,l)
);
},
{
closed = 1;
nodes = (
(337,568,l),
(318,550,l),
(594,346,l),
(596,377,l),
(240,179,l),
(250,159,l)
);
}
);
width = 657;
}
);
metricLeft = "po-canadian";
metricRight = "o-canadian";
note = uni15C6;
unicode = 5574;
},
{
color = 9;
glyphname = "ghaCarrier-canadian";
lastChange = "2023-01-13 15:29:21 +0000";
layers = (
{
layerId = "DE93BBBF-E17B-48DE-A6AB-0C4E62D4ADD4";
shapes = (
{
closed = 1;
nodes = (
(545,0,l),
(555,47,l),
(405,156,l),
(411,118,l),
(510,582,l),
(490,546,l),
(684,654,l),
(697,714,l),
(677,714,l),
(64,372,l),
(58,343,l),
(525,0,l)
);
},
{
closed = 1;
nodes = (
(387,164,l),
(113,366,l),
(112,339,l),
(464,535,l),
(453,551,l),
(368,151,l)
);
}
);
width = 656;
}
);
metricLeft = "=|o-canadian";
metricRight = "=|po-canadian";
note = uni15C9;
unicode = 5577;
},
{
color = 9;
glyphname = "ruCarrier-canadian";
lastChange = "2023-01-13 15:29:21 +0000";
layers = (
{
layerId = "DE93BBBF-E17B-48DE-A6AB-0C4E62D4ADD4";
shapes = (
{
closed = 1;
nodes = (
(320,0,l),
(774,694,l),
(778,714,l),
(718,714,l),
(653,615,l),
(683,629,l),
(188,629,l),
(210,614,l),
(188,714,l),
(137,714,l),
(132,694,l),
(291,0,l)
);
},
{
closed = 1;
nodes = (
(651,577,l),
(639,591,l),
(306,71,l),
(330,68,l),
(215,592,l),
(199,577,l)
);
}
);
width = 714;
}
);
metricLeft = "e-canadian";
metricRight = "e-canadian";
note = uni15CA;
unicode = 5578;
},
{
color = 9;
glyphname = "roCarrier-canadian";
lastChange = "2023-01-13 15:29:21 +0000";
layers = (
{
layerId = "DE93BBBF-E17B-48DE-A6AB-0C4E62D4ADD4";
shapes = (
{
closed = 1;
nodes = (
(442,714,l),
(-12,20,l),
(-16,0,l),
(45,0,l),
(109,99,l),
(80,85,l),
(574,85,l),
(552,100,l),
(574,0,l),
(625,0,l),
(630,20,l),
(471,714,l)
);
},
{
closed = 1;
nodes = (
(112,137,l),
(123,123,l),
(456,643,l),
(432,646,l),
(548,122,l),
(563,137,l)
);
}
);
width = 714;
}
);
metricLeft = "e-canadian";
metricRight = "e-canadian";
note = uni15CB;
unicode = 5579;
},
{
color = 9;
glyphname = "reCarrier-canadian";
lastChange = "2023-01-13 15:29:21 +0000";
layers = (
{
layerId = "DE93BBBF-E17B-48DE-A6AB-0C4E62D4ADD4";
shapes = (
{
closed = 1;
nodes = (
(26,0,l),
(640,343,l),
(646,371,l),
(178,714,l),
(159,714,l),
(149,668,l),
(222,615,l),
(214,654,l),
(91,74,l),
(112,109,l),
(19,57,l),
(7,0,l)
);
},
{
closed = 1;
nodes = (
(259,622,l),
(240,603,l),
(590,346,l),
(591,376,l),
(139,123,l),
(148,104,l)
);
}
);
width = 656;
}
);
metricLeft = "po-canadian";
metricRight = "o-canadian";
note = uni15CC;
unicode = 5580;
},
{
color = 9;
glyphname = "reeCarrier-canadian";
lastChange = "2023-01-13 15:29:21 +0000";
layers = (
{
layerId = "DE93BBBF-E17B-48DE-A6AB-0C4E62D4ADD4";
shapes = (
{
closed = 1;
nodes = (
(26,0,l),
(640,343,l),
(646,371,l),
(178,714,l),
(159,714,l),
(150,674,l),
(220,622,l),
(214,658,l),
(90,69,l),
(108,104,l),
(18,53,l),
(7,0,l)
);
},
{
closed = 1;
nodes = (
(256,632,l),
(235,614,l),
(601,347,l),
(603,376,l),
(132,114,l),
(142,94,l)
);
},
{
closed = 1;
nodes = (
(281,266,l),
(322,456,l),
(288,456,l),
(247,266,l)
);
}
);
width = 656;
}
);
metricLeft = "po-canadian";
metricRight = "o-canadian";
note = uni15CD;
unicode = 5581;
},
{
color = 9;
glyphname = "riCarrier-canadian";
lastChange = "2023-01-13 15:29:21 +0000";
layers = (
{
layerId = "DE93BBBF-E17B-48DE-A6AB-0C4E62D4ADD4";
shapes = (
{
closed = 1;
nodes = (
(26,0,l),
(640,343,l),
(646,371,l),
(178,714,l),
(159,714,l),
(150,674,l),
(221,622,l),
(214,658,l),
(90,69,l),
(110,105,l),
(18,53,l),
(7,0,l)
);
},
{
closed = 1;
nodes = (
(357,324,o),
(374,340,o),
(374,362,cs),
(374,384,o),
(357,399,o),
(336,399,cs),
(315,399,o),
(298,384,o),
(298,362,cs),
(298,340,o),
(315,324,o),
(336,324,cs)
);
},
{
closed = 1;
nodes = (
(256,632,l),
(235,614,l),
(601,347,l),
(603,376,l),
(133,114,l),
(142,94,l)
);
}
);
width = 656;
}
);
metricLeft = "po-canadian";
metricRight = "o-canadian";
note = uni15CE;
unicode = 5582;
},
{
color = 9;
glyphname = "raCarrier-canadian";
lastChange = "2023-01-13 15:29:21 +0000";
layers = (
{
layerId = "DE93BBBF-E17B-48DE-A6AB-0C4E62D4ADD4";
shapes = (
{
closed = 1;
nodes = (
(545,0,l),
(555,46,l),
(482,99,l),
(490,60,l),
(613,640,l),
(592,605,l),
(685,657,l),
(697,714,l),
(677,714,l),
(64,371,l),
(58,343,l),
(526,0,l)
);
},
{
closed = 1;
nodes = (
(464,111,l),
(114,368,l),
(113,338,l),
(565,591,l),
(555,610,l),
(445,92,l)
);
}
);
width = 656;
}
);
metricLeft = "=|o-canadian";
metricRight = "=|po-canadian";
note = uni15CF;
unicode = 5583;
},
{
color = 9;
glyphname = "wuCarrier-canadian";
lastChange = "2023-01-13 15:29:21 +0000";
layers = (
{
layerId = "DE93BBBF-E17B-48DE-A6AB-0C4E62D4ADD4";
shapes = (
{
closed = 1;
nodes = (
(323,0,l),
(778,694,l),
(783,714,l),
(724,714,l),
(344,121,l),
(357,120,l),
(483,714,l),
(429,714,l),
(303,119,l),
(317,119,l),
(186,714,l),
(137,714,l),
(132,694,l),
(293,0,l)
);
}
);
width = 719;
}
);
metricLeft = "e-canadian";
metricRight = "e-canadian";
note = uni15D0;
unicode = 5584;
},
{
color = 9;
glyphname = "woCarrier-canadian";
lastChange = "2023-01-13 15:29:21 +0000";
layers = (
{
layerId = "DE93BBBF-E17B-48DE-A6AB-0C4E62D4ADD4";
shapes = (
{
closed = 1;
nodes = (
(43,0,l),
(423,593,l),
(410,594,l),
(284,0,l),
(338,0,l),
(464,595,l),
(450,595,l),
(581,0,l),
(630,0,l),
(634,20,l),
(474,714,l),
(444,714,l),
(-12,20,l),
(-16,0,l)
);
}
);
width = 718;
}
);
metricLeft = "e-canadian";
metricRight = "e-canadian";
note = uni15D1;
unicode = 5585;
},
{
color = 9;
glyphname = "weCarrier-canadian";
lastChange = "2023-01-13 15:28:21 +0000";
layers = (
{
layerId = "DE93BBBF-E17B-48DE-A6AB-0C4E62D4ADD4";
shapes = (
{
closed = 1;
nodes = (
(48,0,l),
(662,343,l),
(668,371,l),
(200,714,l),
(180,714,l),
(170,667,l),
(567,377,l),
(571,389,l),
(112,389,l),
(101,338,l),
(565,338,l),
(565,349,l),
(41,58,l),
(29,0,l)
);
}
);
width = 678;
}
);
metricRight = "o-canadian";
note = uni15D2;
unicode = 5586;
},
{
color = 9;
glyphname = "weeCarrier-canadian";
lastChange = "2023-01-13 15:28:21 +0000";
layers = (
{
layerId = "DE93BBBF-E17B-48DE-A6AB-0C4E62D4ADD4";
shapes = (
{
closed = 1;
nodes = (
(48,0,l),
(662,343,l),
(668,371,l),
(200,714,l),
(181,714,l),
(171,671,l),
(580,373,l),
(585,386,l),
(236,386,l),
(254,472,l),
(214,472,l),
(196,386,l),
(111,386,l),
(102,342,l),
(186,342,l),
(168,256,l),
(208,256,l),
(226,342,l),
(580,342,l),
(578,353,l),
(40,54,l),
(29,0,l)
);
}
);
width = 678;
}
);
metricLeft = "weCarrier-canadian";
metricRight = "o-canadian";
note = uni15D3;
unicode = 5587;
},
{
color = 9;
glyphname = "wiCarrier-canadian";
lastChange = "2023-01-13 15:28:21 +0000";
layers = (
{
layerId = "DE93BBBF-E17B-48DE-A6AB-0C4E62D4ADD4";
shapes = (
{
closed = 1;
nodes = (
(48,0,l),
(662,343,l),
(668,371,l),
(200,714,l),
(181,714,l),
(171,671,l),
(576,376,l),
(584,386,l),
(301,386,l),
(293,410,o),
(270,427,o),
(243,427,cs),
(216,427,o),
(194,410,o),
(186,386,c),
(111,386,l),
(102,344,l),
(186,344,l),
(195,321,o),
(217,303,o),
(243,303,cs),
(270,303,o),
(292,321,o),
(300,344,c),
(579,344,l),
(575,351,l),
(40,54,l),
(29,0,l)
);
}
);
width = 678;
}
);
metricLeft = "weCarrier-canadian";
metricRight = "o-canadian";
note = uni15D4;
unicode = 5588;
},
{
color = 9;
glyphname = "waCarrier-canadian";
lastChange = "2023-01-13 15:29:21 +0000";
layers = (
{
layerId = "DE93BBBF-E17B-48DE-A6AB-0C4E62D4ADD4";
shapes = (
{
closed = 1;
nodes = (
(545,0,l),
(555,47,l),
(158,337,l),
(154,325,l),
(614,325,l),
(625,376,l),
(161,376,l),
(161,365,l),
(684,656,l),
(697,714,l),
(677,714,l),
(64,371,l),
(58,343,l),
(525,0,l)
);
}
);
width = 677;
}
);
metricLeft = "=|o-canadian";
metricRight = "=|weCarrier-canadian";
note = uni15D5;
unicode = 5589;
},
{
color = 9;
glyphname = "hwuCarrier-canadian";
lastChange = "2023-01-13 15:29:21 +0000";
layers = (
{
layerId = "DE93BBBF-E17B-48DE-A6AB-0C4E62D4ADD4";
shapes = (
{
closed = 1;
nodes = (
(323,0,l),
(778,694,l),
(783,714,l),
(727,714,l),
(570,471,l),
(592,483,l),
(429,483,l),
(478,714,l),
(433,714,l),
(384,483,l),
(220,483,l),
(237,472,l),
(183,714,l),
(137,714,l),
(132,694,l),
(293,0,l)
);
},
{
closed = 1;
nodes = (
(318,100,l),
(239,457,l),
(228,443,l),
(378,443,l),
(305,99,l)
);
},
{
closed = 1;
nodes = (
(417,443,l),
(568,443,l),
(563,456,l),
(334,101,l),
(344,97,l)
);
}
);
width = 719;
}
);
metricLeft = "e-canadian";
metricRight = "e-canadian";
note = uni15D6;
unicode = 5590;
},
{
color = 9;
glyphname = "hwoCarrier-canadian";
lastChange = "2023-01-13 15:29:21 +0000";
layers = (
{
layerId = "DE93BBBF-E17B-48DE-A6AB-0C4E62D4ADD4";
shapes = (
{
closed = 1;
nodes = (
(40,0,l),
(197,243,l),
(175,231,l),
(338,231,l),
(289,0,l),
(334,0,l),
(383,231,l),
(547,231,l),
(530,242,l),
(584,0,l),
(630,0,l),
(634,20,l),
(474,714,l),
(444,714,l),
(-12,20,l),
(-16,0,l)
);
},
{
closed = 1;
nodes = (
(433,613,l),
(423,617,l),
(350,271,l),
(199,271,l),
(204,258,l)
);
},
{
closed = 1;
nodes = (
(539,271,l),
(389,271,l),
(461,615,l),
(449,614,l),
(528,257,l)
);
}
);
width = 718;
}
);
metricLeft = "e-canadian";
metricRight = "e-canadian";
note = uni15D7;
unicode = 5591;
},
{
color = 9;
glyphname = "hweCarrier-canadian";
lastChange = "2023-01-13 15:28:21 +0000";
layers = (
{
layerId = "DE93BBBF-E17B-48DE-A6AB-0C4E62D4ADD4";
shapes = (
{
closed = 1;
nodes = (
(48,0,l),
(662,343,l),
(668,371,l),
(200,714,l),
(180,714,l),
(171,672,l),
(308,573,l),
(268,387,l),
(111,387,l),
(101,341,l),
(259,341,l),
(219,154,l),
(40,54,l),
(28,0,l)
);
},
{
closed = 1;
nodes = (
(297,344,l),
(569,344,l),
(261,174,l)
);
},
{
closed = 1;
nodes = (
(341,552,l),
(571,384,l),
(306,384,l)
);
}
);
width = 678;
}
);
metricLeft = "weCarrier-canadian";
metricRight = "o-canadian";
note = uni15D8;
unicode = 5592;
},
{
color = 9;
glyphname = "hweeCarrier-canadian";
lastChange = "2023-01-13 15:28:21 +0000";
layers = (
{
layerId = "DE93BBBF-E17B-48DE-A6AB-0C4E62D4ADD4";
shapes = (
{
closed = 1;
nodes = (
(48,0,l),
(662,343,l),
(668,371,l),
(200,714,l),
(180,714,l),
(172,673,l),
(318,567,l),
(280,384,l),
(219,384,l),
(237,471,l),
(201,471,l),
(183,384,l),
(110,384,l),
(102,344,l),
(174,344,l),
(156,258,l),
(192,258,l),
(210,344,l),
(271,344,l),
(232,159,l),
(40,53,l),
(28,0,l)
);
},
{
closed = 1;
nodes = (
(307,346,l),
(572,346,l),
(271,178,l)
);
},
{
closed = 1;
nodes = (
(349,547,l),
(574,382,l),
(314,382,l)
);
}
);
width = 678;
}
);
metricLeft = "weCarrier-canadian";
metricRight = "o-canadian";
note = uni15D9;
unicode = 5593;
},
{
color = 9;
glyphname = "hwiCarrier-canadian";
lastChange = "2023-01-13 15:28:21 +0000";
layers = (
{
layerId = "DE93BBBF-E17B-48DE-A6AB-0C4E62D4ADD4";
shapes = (
{
closed = 1;
nodes = (
(48,0,l),
(662,343,l),
(668,371,l),
(200,714,l),
(180,714,l),
(172,673,l),
(319,567,l),
(279,382,l),
(244,382,l),
(238,404,o),
(217,420,o),
(193,420,cs),
(169,420,o),
(149,404,o),
(143,382,c),
(110,382,l),
(102,346,l),
(142,346,l),
(149,324,o),
(170,308,o),
(193,308,cs),
(217,308,o),
(237,324,o),
(244,346,c),
(272,346,l),
(232,159,l),
(40,53,l),
(28,0,l)
);
},
{
closed = 1;
nodes = (
(307,346,l),
(572,346,l),
(271,178,l)
);
},
{
closed = 1;
nodes = (
(349,547,l),
(574,382,l),
(315,382,l)
);
}
);
width = 678;
}
);
metricLeft = "weCarrier-canadian";
metricRight = "o-canadian";
note = uni15DA;
unicode = 5594;
},
{
color = 9;
glyphname = "hwaCarrier-canadian";
lastChange = "2023-01-13 15:29:21 +0000";
layers = (
{
layerId = "DE93BBBF-E17B-48DE-A6AB-0C4E62D4ADD4";
shapes = (
{
closed = 1;
nodes = (
(678,714,l),
(64,371,l),
(58,343,l),
(526,0,l),
(545,0,l),
(554,42,l),
(418,141,l),
(457,327,l),
(614,327,l),
(624,373,l),
(467,373,l),
(507,560,l),
(686,660,l),
(697,714,l)
);
},
{
closed = 1;
nodes = (
(428,370,l),
(156,370,l),
(464,540,l)
);
},
{
closed = 1;
nodes = (
(384,162,l),
(154,330,l),
(420,330,l)
);
}
);
width = 678;
}
);
metricLeft = "=|o-canadian";
metricRight = "=|weCarrier-canadian";
note = uni15DB;
unicode = 5595;
},
{
color = 9;
glyphname = "thuCarrier-canadian";
lastChange = "2023-01-13 15:29:21 +0000";
layers = (
{
layerId = "DE93BBBF-E17B-48DE-A6AB-0C4E62D4ADD4";
shapes = (
{
closed = 1;
nodes = (
(502,-13,o),
(602,82,o),
(644,275,cs),
(737,714,l),
(176,714,l),
(89,304,ls),
(45,100,o),
(137,-13,o),
(329,-13,cs)
);
},
{
closed = 1;
nodes = (
(228,656,l),
(661,656,l),
(581,279,ls),
(547,119,o),
(469,47,o),
(333,47,cs),
(177,47,o),
(115,130,o),
(152,301,cs)
);
}
);
width = 714;
}
);
metricLeft = "te-canadian";
metricRight = "te-canadian";
note = uni15DC;
unicode = 5596;
},
{
color = 9;
glyphname = "thoCarrier-canadian";
lastChange = "2023-01-13 15:28:21 +0000";
layers = (
{
layerId = "DE93BBBF-E17B-48DE-A6AB-0C4E62D4ADD4";
shapes = (
{
closed = 1;
nodes = (
(585,0,l),
(672,410,ls),
(716,614,o),
(624,727,o),
(432,727,cs),
(259,727,o),
(159,632,o),
(117,439,cs),
(24,0,l)
);
},
{
closed = 1;
nodes = (
(180,435,ls),
(214,595,o),
(292,667,o),
(428,667,cs),
(584,667,o),
(646,584,o),
(609,413,cs),
(533,58,l),
(100,58,l)
);
}
);
width = 713;
}
);
metricLeft = "te-canadian";
metricRight = "te-canadian";
note = uni15DD;
unicode = 5597;
},
{
color = 9;
glyphname = "theCarrier-canadian";
lastChange = "2023-01-13 15:28:21 +0000";
layers = (
{
anchors = (
{
name = middle_center_can;
pos = (369,357);
}
);
layerId = "DE93BBBF-E17B-48DE-A6AB-0C4E62D4ADD4";
shapes = (
{
closed = 1;
nodes = (
(244,0,ls),
(564,0,o),
(654,271,o),
(654,449,cs),
(654,617,o),
(557,714,o),
(383,714,cs),
(183,714,l),
(31,0,l)
);
},
{
closed = 1;
nodes = (
(240,679,l),
(216,657,l),
(372,657,ls),
(515,657,o),
(593,583,o),
(593,447,cs),
(593,292,o),
(513,57,o),
(249,57,cs),
(92,57,l),
(103,37,l)
);
}
);
width = 691;
}
);
metricLeft = "nunavuth-canadian";
metricRight = "to-canadian";
note = uni15DE;
unicode = 5598;
},
{
color = 9;
glyphname = "thaCarrier-canadian";
lastChange = "2023-01-13 15:29:21 +0000";
layers = (
{
layerId = "DE93BBBF-E17B-48DE-A6AB-0C4E62D4ADD4";
shapes = (
{
closed = 1;
nodes = (
(555,0,l),
(707,714,l),
(495,714,ls),
(175,714,o),
(85,443,o),
(85,265,cs),
(85,97,o),
(181,0,o),
(356,0,cs)
);
},
{
closed = 1;
nodes = (
(146,422,o),
(226,657,o),
(490,657,cs),
(646,657,l),
(636,677,l),
(499,35,l),
(523,57,l),
(367,57,ls),
(223,57,o),
(146,131,o),
(146,267,cs)
);
}
);
width = 690;
}
);
metricLeft = "=|theCarrier-canadian";
metricRight = "nunavuth-canadian";
note = uni15E1;
unicode = 5601;
},
{
color = 9;
glyphname = "ttuCarrier-canadian";
lastChange = "2023-01-13 15:28:21 +0000";
layers = (
{
layerId = "DE93BBBF-E17B-48DE-A6AB-0C4E62D4ADD4";
shapes = (
{
closed = 1;
nodes = (
(501,-13,o),
(602,79,o),
(644,277,cs),
(737,714,l),
(709,714,l),
(392,514,l),
(440,506,l),
(206,714,l),
(176,714,l),
(88,301,ls),
(45,99,o),
(136,-13,o),
(329,-13,cs)
);
},
{
closed = 1;
nodes = (
(178,47,o),
(116,130,o),
(151,299,cs),
(227,657,l),
(198,649,l),
(397,469,l),
(416,469,l),
(680,638,l),
(660,654,l),
(581,281,ls),
(547,119,o),
(468,47,o),
(329,47,cs)
);
}
);
width = 713;
}
);
metricLeft = "te-canadian";
metricRight = "te-canadian";
note = uni15E2;
unicode = 5602;
},
{
color = 9;
glyphname = "ttoCarrier-canadian";
lastChange = "2023-01-13 15:28:21 +0000";
layers = (
{
layerId = "DE93BBBF-E17B-48DE-A6AB-0C4E62D4ADD4";
shapes = (
{
closed = 1;
nodes = (
(52,0,l),
(369,200,l),
(321,208,l),
(555,0,l),
(585,0,l),
(673,413,ls),
(716,615,o),
(625,727,o),
(432,727,cs),
(260,727,o),
(159,635,o),
(117,437,cs),
(24,0,l)
);
},
{
closed = 1;
nodes = (
(583,667,o),
(645,584,o),
(610,415,cs),
(534,57,l),
(563,65,l),
(364,245,l),
(345,245,l),
(81,76,l),
(101,60,l),
(180,433,ls),
(214,595,o),
(293,667,o),
(432,667,cs)
);
}
);
width = 713;
}
);
metricLeft = "te-canadian";
metricRight = "te-canadian";
note = uni15E3;
unicode = 5603;
},
{
color = 9;
glyphname = "tteCarrier-canadian";
lastChange = "2023-01-13 15:28:21 +0000";
layers = (
{
anchors = (
{
name = middle_center_can;
pos = (421,357);
}
);
layerId = "DE93BBBF-E17B-48DE-A6AB-0C4E62D4ADD4";
shapes = (
{
closed = 1;
nodes = (
(253,0,ls),
(561,0,o),
(664,257,o),
(664,449,cs),
(664,616,o),
(567,714,o),
(394,714,cs),
(176,714,l),
(171,694,l),
(228,333,l),
(234,386,l),
(28,20,l),
(24,0,l)
);
},
{
closed = 1;
nodes = (
(280,347,l),
(284,364,l),
(233,685,l),
(211,657,l),
(381,657,ls),
(526,657,o),
(603,583,o),
(603,447,cs),
(603,293,o),
(524,57,o),
(259,57,cs),
(87,57,l),
(103,32,l)
);
}
);
width = 701;
}
);
metricRight = "theCarrier-canadian";
note = uni15E4;
unicode = 5604;
},
{
color = 9;
glyphname = "ttaCarrier-canadian";
lastChange = "2023-01-13 15:28:21 +0000";
layers = (
{
layerId = "DE93BBBF-E17B-48DE-A6AB-0C4E62D4ADD4";
shapes = (
{
closed = 1;
nodes = (
(574,0,l),
(578,20,l),
(522,381,l),
(515,328,l),
(721,694,l),
(725,714,l),
(496,714,ls),
(188,714,o),
(85,457,o),
(85,265,cs),
(85,98,o),
(182,0,o),
(356,0,cs)
);
},
{
closed = 1;
nodes = (
(538,57,l),
(368,57,ls),
(224,57,o),
(147,131,o),
(147,267,cs),
(147,421,o),
(225,657,o),
(490,657,cs),
(662,657,l),
(646,682,l),
(469,367,l),
(465,350,l),
(516,29,l)
);
}
);
width = 701;
}
);
metricLeft = "=|theCarrier-canadian";
metricRight = "=|tteCarrier-canadian";
note = uni15E7;
unicode = 5607;
},
{
color = 9;
glyphname = "puCarrier-canadian";
lastChange = "2023-01-13 15:29:21 +0000";
layers = (
{
layerId = "DE93BBBF-E17B-48DE-A6AB-0C4E62D4ADD4";
shapes = (
{
closed = 1;
nodes = (
(502,-13,o),
(602,82,o),
(644,275,cs),
(737,714,l),
(673,714,l),
(635,535,l),
(202,535,l),
(240,714,l),
(176,714,l),
(89,304,ls),
(45,100,o),
(137,-13,o),
(329,-13,cs)
);
},
{
closed = 1;
nodes = (
(177,47,o),
(115,130,o),
(152,301,cs),
(190,479,l),
(623,479,l),
(581,279,ls),
(547,119,o),
(469,47,o),
(333,47,cs)
);
}
);
width = 714;
}
);
metricLeft = "te-canadian";
metricRight = "te-canadian";
note = uni15E8;
unicode = 5608;
},
{
color = 9;
glyphname = "poCarrier-canadian";
lastChange = "2023-01-13 15:28:21 +0000";
layers = (
{
layerId = "DE93BBBF-E17B-48DE-A6AB-0C4E62D4ADD4";
shapes = (
{
closed = 1;
nodes = (
(88,0,l),
(126,179,l),
(559,179,l),
(521,0,l),
(585,0,l),
(672,410,ls),
(716,614,o),
(624,727,o),
(432,727,cs),
(259,727,o),
(159,632,o),
(117,439,cs),
(24,0,l)
);
},
{
closed = 1;
nodes = (
(180,435,ls),
(214,595,o),
(292,667,o),
(428,667,cs),
(584,667,o),
(646,584,o),
(609,413,cs),
(571,235,l),
(138,235,l)
);
}
);
width = 713;
}
);
metricLeft = "te-canadian";
metricRight = "te-canadian";
note = uni15E9;
unicode = 5609;
},
{
color = 9;
glyphname = "peCarrier-canadian";
lastChange = "2023-01-13 15:28:21 +0000";
layers = (
{
anchors = (
{
name = middle_center_can;
pos = (407,357);
}
);
layerId = "DE93BBBF-E17B-48DE-A6AB-0C4E62D4ADD4";
shapes = (
{
closed = 1;
nodes = (
(248,0,ls),
(567,0,o),
(658,270,o),
(658,449,cs),
(658,617,o),
(561,714,o),
(388,714,cs),
(170,714,l),
(158,657,l),
(251,657,l),
(123,57,l),
(30,57,l),
(18,0,l)
);
},
{
closed = 1;
nodes = (
(320,685,l),
(277,657,l),
(376,657,ls),
(519,657,o),
(596,583,o),
(596,447,cs),
(596,292,o),
(517,57,o),
(253,57,cs),
(150,57,l),
(181,29,l)
);
}
);
width = 695;
}
);
metricRight = "theCarrier-canadian";
note = uni15EA;
unicode = 5610;
},
{
color = 9;
glyphname = "paCarrier-canadian";
lastChange = "2023-01-13 15:28:21 +0000";
layers = (
{
layerId = "DE93BBBF-E17B-48DE-A6AB-0C4E62D4ADD4";
shapes = (
{
closed = 1;
nodes = (
(573,0,l),
(585,57,l),
(492,57,l),
(620,657,l),
(713,657,l),
(725,714,l),
(496,714,ls),
(177,714,o),
(85,444,o),
(85,265,cs),
(85,97,o),
(182,0,o),
(355,0,cs)
);
},
{
closed = 1;
nodes = (
(466,57,l),
(368,57,ls),
(224,57,o),
(147,131,o),
(147,267,cs),
(147,422,o),
(226,657,o),
(490,657,cs),
(594,657,l),
(562,685,l),
(423,29,l)
);
}
);
width = 695;
}
);
metricLeft = "=|theCarrier-canadian";
metricRight = "=|peCarrier-canadian";
note = uni15ED;
unicode = 5613;
},
{
color = 6;
glyphname = "pCarrier-canadian";
lastChange = "2023-01-13 15:28:21 +0000";
layers = (
{
layerId = "DE93BBBF-E17B-48DE-A6AB-0C4E62D4ADD4";
shapes = (
{
closed = 1;
nodes = (
(377,189,l),
(387,234,l),
(251,234,l),
(317,546,l),
(269,546,l),
(203,234,l),
(66,234,l),
(56,189,l)
);
}
);
width = 457;
}
);
metricLeft = "shorthorizontalstrokeFinal-canadian";
metricRight = "shorthorizontalstrokeFinal-canadian";
note = uni15EE;
unicode = 5614;
},
{
color = 9;
glyphname = "guCarrier-canadian";
lastChange = "2023-01-13 15:28:21 +0000";
layers = (
{
anchors = (
{
name = top_center_can;
pos = (534,714);
}
);
layerId = "DE93BBBF-E17B-48DE-A6AB-0C4E62D4ADD4";
shapes = (
{
closed = 1;
nodes = (
(318,-13,o),
(386,39,o),
(425,139,c),
(402,139,l),
(409,44,o),
(469,-13,o),
(563,-13,cs),
(674,-13,o),
(747,59,o),
(776,192,cs),
(887,714,l),
(825,714,l),
(715,195,ls),
(694,97,o),
(641,45,o),
(561,45,cs),
(475,45,o),
(435,107,o),
(457,210,cs),
(564,714,l),
(504,714,l),
(397,211,ls),
(373,102,o),
(318,45,o),
(235,45,cs),
(145,45,o),
(110,104,o),
(134,217,cs),
(240,714,l),
(178,714,l),
(73,222,ls),
(42,74,o),
(98,-13,o),
(226,-13,cs)
);
}
);
width = 865;
}
);
metricRight = "=|";
note = uni15EF;
unicode = 5615;
},
{
color = 9;
glyphname = "goCarrier-canadian";
lastChange = "2023-01-13 15:29:21 +0000";
layers = (
{
layerId = "DE93BBBF-E17B-48DE-A6AB-0C4E62D4ADD4";
shapes = (
{
closed = 1;
nodes = (
(88,0,l),
(198,519,ls),
(219,617,o),
(272,669,o),
(351,669,cs),
(438,669,o),
(478,607,o),
(456,504,cs),
(349,0,l),
(409,0,l),
(516,503,ls),
(539,612,o),
(594,669,o),
(678,669,cs),
(768,669,o),
(802,610,o),
(778,497,cs),
(672,0,l),
(734,0,l),
(839,492,ls),
(870,640,o),
(815,727,o),
(687,727,cs),
(594,727,o),
(527,675,o),
(488,575,c),
(511,575,l),
(504,670,o),
(444,727,o),
(350,727,cs),
(239,727,o),
(165,655,o),
(137,522,cs),
(26,0,l)
);
}
);
width = 864;
}
);
metricLeft = "guCarrier-canadian";
metricRight = "guCarrier-canadian";
note = uni15F0;
unicode = 5616;
},
{
color = 9;
glyphname = "geCarrier-canadian";
lastChange = "2023-01-13 15:29:21 +0000";
layers = (
{
anchors = (
{
name = top_center_can;
pos = (453,714);
}
);
layerId = "DE93BBBF-E17B-48DE-A6AB-0C4E62D4ADD4";
shapes = (
{
closed = 1;
nodes = (
(357,0,ls),
(522,0,o),
(609,84,o),
(609,215,cs),
(609,288,o),
(572,344,o),
(506,362,c),
(503,344,l),
(629,365,o),
(681,459,o),
(681,553,cs),
(681,650,o),
(612,714,o),
(502,714,cs),
(183,714,l),
(171,660,l),
(487,660,ls),
(571,660,o),
(617,619,o),
(617,549,cs),
(617,446,o),
(552,384,o),
(430,384,cs),
(113,384,l),
(101,330,l),
(420,330,ls),
(502,330,o),
(547,290,o),
(547,220,cs),
(547,126,o),
(495,54,o),
(359,54,cs),
(43,54,l),
(31,0,l)
);
}
);
width = 700;
}
);
metricLeft = "nunavuth-canadian";
note = uni15F1;
unicode = 5617;
},
{
color = 9;
glyphname = "geeCarrier-canadian";
lastChange = "2023-01-13 15:29:21 +0000";
layers = (
{
layerId = "DE93BBBF-E17B-48DE-A6AB-0C4E62D4ADD4";
shapes = (
{
closed = 1;
nodes = (
(357,0,ls),
(522,0,o),
(609,84,o),
(609,215,cs),
(609,288,o),
(572,344,o),
(506,362,c),
(503,344,l),
(629,365,o),
(681,459,o),
(681,553,cs),
(681,650,o),
(612,714,o),
(502,714,cs),
(183,714,l),
(171,660,l),
(487,660,ls),
(571,660,o),
(617,619,o),
(617,549,cs),
(617,446,o),
(552,384,o),
(430,384,cs),
(370,384,l),
(389,474,l),
(347,474,l),
(328,384,l),
(113,384,l),
(101,330,l),
(316,330,l),
(298,242,l),
(340,242,l),
(359,330,l),
(420,330,ls),
(502,330,o),
(547,290,o),
(547,220,cs),
(547,126,o),
(495,54,o),
(359,54,cs),
(43,54,l),
(31,0,l)
);
}
);
width = 700;
}
);
metricLeft = "geCarrier-canadian";
metricRight = "geCarrier-canadian";
note = uni15F2;
unicode = 5618;
},
{
color = 9;
glyphname = "giCarrier-canadian";
lastChange = "2023-01-13 15:29:21 +0000";
layers = (
{
layerId = "DE93BBBF-E17B-48DE-A6AB-0C4E62D4ADD4";
shapes = (
{
closed = 1;
nodes = (
(357,0,ls),
(522,0,o),
(609,84,o),
(609,215,cs),
(609,288,o),
(572,344,o),
(506,363,c),
(504,344,l),
(630,365,o),
(681,459,o),
(681,553,cs),
(681,650,o),
(612,714,o),
(502,714,cs),
(183,714,l),
(171,660,l),
(487,660,ls),
(571,660,o),
(617,619,o),
(617,549,cs),
(617,446,o),
(552,384,o),
(430,384,cs),
(386,384,l),
(410,366,l),
(407,399,o),
(378,425,o),
(344,425,cs),
(316,425,o),
(293,408,o),
(284,384,c),
(113,384,l),
(101,330,l),
(285,330,l),
(294,307,o),
(317,290,o),
(344,290,cs),
(378,290,o),
(405,316,o),
(409,348,c),
(383,330,l),
(420,330,ls),
(502,330,o),
(547,290,o),
(547,220,cs),
(547,126,o),
(495,54,o),
(359,54,cs),
(43,54,l),
(31,0,l)
);
}
);
width = 700;
}
);
metricLeft = "geCarrier-canadian";
metricRight = "geCarrier-canadian";
note = uni15F3;
unicode = 5619;
},
{
color = 9;
glyphname = "gaCarrier-canadian";
lastChange = "2023-01-13 15:29:21 +0000";
layers = (
{
anchors = (
{
name = top_center_can;
pos = (466,714);
}
);
layerId = "DE93BBBF-E17B-48DE-A6AB-0C4E62D4ADD4";
shapes = (
{
closed = 1;
nodes = (
(566,0,l),
(577,54,l),
(261,54,ls),
(177,54,o),
(131,95,o),
(131,165,cs),
(131,268,o),
(197,330,o),
(318,330,cs),
(637,330,l),
(648,384,l),
(329,384,ls),
(246,384,o),
(202,424,o),
(202,494,cs),
(202,588,o),
(253,660,o),
(389,660,cs),
(706,660,l),
(717,714,l),
(391,714,ls),
(227,714,o),
(139,630,o),
(139,499,cs),
(139,426,o),
(177,370,o),
(242,352,c),
(245,370,l),
(119,349,o),
(67,255,o),
(67,161,cs),
(67,64,o),
(136,0,o),
(247,0,cs)
);
}
);
width = 702;
}
);
metricLeft = "=|geCarrier-canadian";
metricRight = "=|geCarrier-canadian";
note = uni15F4;
unicode = 5620;
},
{
color = 9;
glyphname = "khuCarrier-canadian";
lastChange = "2023-01-13 15:28:21 +0000";
layers = (
{
layerId = "DE93BBBF-E17B-48DE-A6AB-0C4E62D4ADD4";
shapes = (
{
closed = 1;
nodes = (
(316,-13,o),
(383,36,o),
(421,131,c),
(404,132,l),
(411,43,o),
(471,-13,o),
(563,-13,cs),
(674,-13,o),
(747,59,o),
(776,192,cs),
(887,714,l),
(178,714,l),
(73,222,ls),
(42,74,o),
(98,-13,o),
(226,-13,cs)
);
},
{
closed = 1;
nodes = (
(145,45,o),
(110,104,o),
(134,217,cs),
(228,658,l),
(492,658,l),
(397,211,ls),
(373,102,o),
(318,45,o),
(235,45,cs)
);
},
{
closed = 1;
nodes = (
(475,45,o),
(435,107,o),
(457,210,cs),
(552,658,l),
(813,658,l),
(715,195,ls),
(694,97,o),
(641,45,o),
(561,45,cs)
);
}
);
width = 865;
}
);
metricLeft = "guCarrier-canadian";
metricRight = "guCarrier-canadian";
note = uni15F5;
unicode = 5621;
},
{
color = 9;
glyphname = "khoCarrier-canadian";
lastChange = "2023-01-13 15:29:21 +0000";
layers = (
{
layerId = "DE93BBBF-E17B-48DE-A6AB-0C4E62D4ADD4";
shapes = (
{
closed = 1;
nodes = (
(734,0,l),
(839,492,ls),
(870,640,o),
(815,727,o),
(687,727,cs),
(597,727,o),
(530,678,o),
(492,583,c),
(509,582,l),
(501,671,o),
(442,727,o),
(350,727,cs),
(239,727,o),
(165,655,o),
(137,522,cs),
(26,0,l)
);
},
{
closed = 1;
nodes = (
(198,519,ls),
(219,617,o),
(272,669,o),
(351,669,cs),
(438,669,o),
(477,607,o),
(456,504,cs),
(360,56,l),
(100,56,l)
);
},
{
closed = 1;
nodes = (
(516,503,ls),
(539,612,o),
(594,669,o),
(678,669,cs),
(768,669,o),
(802,610,o),
(778,497,cs),
(684,56,l),
(421,56,l)
);
}
);
width = 864;
}
);
metricLeft = "guCarrier-canadian";
metricRight = "guCarrier-canadian";
note = uni15F6;
unicode = 5622;
},
{
color = 9;
glyphname = "kheCarrier-canadian";
lastChange = "2023-01-13 15:29:21 +0000";
layers = (
{
layerId = "DE93BBBF-E17B-48DE-A6AB-0C4E62D4ADD4";
shapes = (
{
closed = 1;
nodes = (
(360,0,ls),
(525,0,o),
(613,84,o),
(613,216,cs),
(613,289,o),
(575,344,o),
(508,362,c),
(506,344,l),
(635,365,o),
(684,462,o),
(684,553,cs),
(684,650,o),
(615,714,o),
(504,714,cs),
(183,714,l),
(31,0,l)
);
},
{
closed = 1;
nodes = (
(165,331,l),
(423,331,ls),
(505,331,o),
(550,291,o),
(550,220,cs),
(550,126,o),
(498,54,o),
(362,54,cs),
(106,54,l)
);
},
{
closed = 1;
nodes = (
(236,660,l),
(490,660,ls),
(574,660,o),
(620,619,o),
(620,549,cs),
(620,447,o),
(556,384,o),
(433,384,cs),
(177,384,l)
);
}
);
width = 704;
}
);
metricLeft = "nunavuth-canadian";
metricRight = "geCarrier-canadian";
note = uni15F7;
unicode = 5623;
},
{
color = 9;
glyphname = "kheeCarrier-canadian";
lastChange = "2023-01-13 15:29:21 +0000";
layers = (
{
layerId = "DE93BBBF-E17B-48DE-A6AB-0C4E62D4ADD4";
shapes = (
{
closed = 1;
nodes = (
(360,0,ls),
(525,0,o),
(613,84,o),
(613,216,cs),
(613,289,o),
(575,344,o),
(508,362,c),
(506,344,l),
(635,365,o),
(684,462,o),
(684,553,cs),
(684,650,o),
(615,714,o),
(504,714,cs),
(183,714,l),
(31,0,l)
);
},
{
closed = 1;
nodes = (
(165,331,l),
(331,331,l),
(312,239,l),
(357,239,l),
(379,345,l),
(358,331,l),
(423,331,ls),
(505,331,o),
(550,291,o),
(550,220,cs),
(550,126,o),
(498,54,o),
(362,54,cs),
(106,54,l)
);
},
{
closed = 1;
nodes = (
(407,476,l),
(362,476,l),
(343,384,l),
(177,384,l),
(236,660,l),
(490,660,ls),
(574,660,o),
(620,619,o),
(620,549,cs),
(620,447,o),
(556,384,o),
(433,384,cs),
(369,384,l),
(385,370,l)
);
}
);
width = 704;
}
);
metricLeft = "nunavuth-canadian";
metricRight = "geCarrier-canadian";
note = uni15F8;
unicode = 5624;
},
{
color = 9;
glyphname = "khiCarrier-canadian";
lastChange = "2023-01-13 15:29:21 +0000";
layers = (
{
layerId = "DE93BBBF-E17B-48DE-A6AB-0C4E62D4ADD4";
shapes = (
{
closed = 1;
nodes = (
(360,0,ls),
(525,0,o),
(613,84,o),
(613,216,cs),
(613,287,o),
(576,342,o),
(511,362,c),
(506,344,l),
(635,365,o),
(684,462,o),
(684,553,cs),
(684,650,o),
(615,714,o),
(504,714,cs),
(183,714,l),
(31,0,l)
);
},
{
closed = 1;
nodes = (
(166,332,l),
(298,332,l),
(308,308,o),
(331,290,o),
(358,290,cs),
(393,290,o),
(420,317,o),
(424,351,c),
(385.002,331.992,l),
(424,332,ls),
(506,332,o),
(550,291,o),
(550,221,cs),
(550,126,o),
(498,54,o),
(362,54,cs),
(106,54,l)
);
},
{
closed = 1;
nodes = (
(490,660,ls),
(574,660,o),
(620,619,o),
(620,549,cs),
(620,446,o),
(557,383,o),
(434,383,cs),
(389,383,l),
(424,364,l),
(421,399,o),
(393,425,o),
(358,425,cs),
(323,425,o),
(295,398,o),
(293,364,c),
(317,383,l),
(177,383,l),
(236,660,l)
);
}
);
width = 704;
}
);
metricLeft = "nunavuth-canadian";
metricRight = "geCarrier-canadian";
note = uni15F9;
unicode = 5625;
},
{
color = 9;
glyphname = "khaCarrier-canadian";
lastChange = "2023-01-13 15:28:21 +0000";
layers = (
{
layerId = "DE93BBBF-E17B-48DE-A6AB-0C4E62D4ADD4";
shapes = (
{
closed = 1;
nodes = (
(568,0,l),
(720,714,l),
(391,714,ls),
(226,714,o),
(139,630,o),
(139,498,cs),
(139,425,o),
(177,370,o),
(243,352,c),
(244,370,l),
(116,349,o),
(67,252,o),
(67,161,cs),
(67,64,o),
(136,0,o),
(247,0,cs)
);
},
{
closed = 1;
nodes = (
(176,54,o),
(130,95,o),
(130,165,cs),
(130,267,o),
(195,330,o),
(318,330,cs),
(574,330,l),
(515,54,l),
(260,54,ls)
);
},
{
closed = 1;
nodes = (
(246,383,o),
(201,423,o),
(201,494,cs),
(201,588,o),
(254,660,o),
(389,660,cs),
(645,660,l),
(586,383,l),
(328,383,ls)
);
}
);
width = 703;
}
);
metricLeft = "=|geCarrier-canadian";
metricRight = "nunavuth-canadian";
note = uni15FA;
unicode = 5626;
},
{
color = 9;
glyphname = "kkuCarrier-canadian";
lastChange = "2023-01-13 15:28:21 +0000";
layers = (
{
layerId = "DE93BBBF-E17B-48DE-A6AB-0C4E62D4ADD4";
shapes = (
{
closed = 1;
nodes = (
(314,-13,o),
(382,35,o),
(421,131,c),
(404,132,l),
(411,44,o),
(469,-13,o),
(563,-13,cs),
(674,-13,o),
(747,58,o),
(776,192,cs),
(887,714,l),
(857,714,l),
(514,537,l),
(501,471,l),
(834,641,l),
(813,662,l),
(715,195,ls),
(694,97,o),
(641,45,o),
(561,45,cs),
(470,45,o),
(436,113,o),
(457,210,cs),
(564,714,l),
(504,714,l),
(397,211,ls),
(373,100,o),
(316,45,o),
(235,45,cs),
(145,45,o),
(110,103,o),
(134,217,cs),
(229,665,l),
(199,653,l),
(464,478,l),
(476,537,l),
(208,714,l),
(178,714,l),
(73,222,ls),
(42,73,o),
(99,-13,o),
(226,-13,cs)
);
}
);
width = 865;
}
);
metricLeft = "guCarrier-canadian";
metricRight = "guCarrier-canadian";
note = uni15FB;
unicode = 5627;
},
{
color = 9;
glyphname = "kkoCarrier-canadian";
lastChange = "2023-01-13 15:29:21 +0000";
layers = (
{
layerId = "DE93BBBF-E17B-48DE-A6AB-0C4E62D4ADD4";
shapes = (
{
closed = 1;
nodes = (
(55,0,l),
(398,177,l),
(411,243,l),
(79,73,l),
(99,52,l),
(198,519,ls),
(219,617,o),
(271,669,o),
(351,669,cs),
(442,669,o),
(476,601,o),
(456,504,cs),
(348,0,l),
(408,0,l),
(515,503,ls),
(539,614,o),
(596,669,o),
(678,669,cs),
(767,669,o),
(802,611,o),
(778,497,cs),
(683,49,l),
(713,61,l),
(448,236,l),
(436,177,l),
(704,0,l),
(734,0,l),
(839,492,ls),
(871,641,o),
(813,727,o),
(687,727,cs),
(598,727,o),
(530,679,o),
(491,583,c),
(509,582,l),
(501,670,o),
(443,727,o),
(349,727,cs),
(239,727,o),
(166,656,o),
(137,522,cs),
(26,0,l)
);
}
);
width = 864;
}
);
metricLeft = "guCarrier-canadian";
metricRight = "guCarrier-canadian";
note = uni15FC;
unicode = 5628;
},
{
color = 9;
glyphname = "kkeCarrier-canadian";
lastChange = "2023-01-13 15:28:21 +0000";
layers = (
{
layerId = "DE93BBBF-E17B-48DE-A6AB-0C4E62D4ADD4";
shapes = (
{
closed = 1;
nodes = (
(375,0,ls),
(539,0,o),
(627,84,o),
(627,215,cs),
(627,288,o),
(590,344,o),
(521,363,c),
(520,344,l),
(649,365,o),
(699,461,o),
(699,553,cs),
(699,651,o),
(630,714,o),
(518,714,cs),
(181,714,l),
(176,694,l),
(224,384,l),
(116,384,l),
(104,330,l),
(210,330,l),
(33,20,l),
(29,0,l)
);
},
{
closed = 1;
nodes = (
(276,330,l),
(438,330,ls),
(520,330,o),
(564,290,o),
(564,220,cs),
(564,127,o),
(513,54,o),
(377,54,cs),
(89,54,l),
(106,30,l)
);
},
{
closed = 1;
nodes = (
(239,688,l),
(216,660,l),
(504,660,ls),
(589,660,o),
(635,619,o),
(635,549,cs),
(635,445,o),
(569,384,o),
(447,384,cs),
(286,384,l)
);
}
);
width = 718;
}
);
metricRight = "geCarrier-canadian";
note = uni15FD;
unicode = 5629;
},
{
color = 9;
glyphname = "kkeeCarrier-canadian";
lastChange = "2023-01-13 15:28:21 +0000";
layers = (
{
layerId = "DE93BBBF-E17B-48DE-A6AB-0C4E62D4ADD4";
shapes = (
{
closed = 1;
nodes = (
(375,0,ls),
(539,0,o),
(627,84,o),
(627,215,cs),
(627,288,o),
(590,344,o),
(521,363,c),
(520,344,l),
(649,365,o),
(699,461,o),
(699,553,cs),
(699,651,o),
(630,714,o),
(518,714,cs),
(181,714,l),
(176,694,l),
(224,384,l),
(116,384,l),
(104,330,l),
(210,330,l),
(33,20,l),
(29,0,l)
);
},
{
closed = 1;
nodes = (
(277,332,l),
(366,332,l),
(347,239,l),
(392,239,l),
(415,348,l),
(395,332,l),
(439,332,ls),
(521,332,o),
(564,290,o),
(564,220,cs),
(564,127,o),
(513,54,o),
(377,54,cs),
(89,54,l),
(106,30,l)
);
},
{
closed = 1;
nodes = (
(443,476,l),
(397,476,l),
(378,383,l),
(286,383,l),
(239,688,l),
(216,660,l),
(504,660,ls),
(589,660,o),
(635,619,o),
(635,549,cs),
(635,445,o),
(569,383,o),
(448,383,cs),
(406,383,l),
(420,369,l)
);
}
);
width = 718;
}
);
metricLeft = "kkeCarrier-canadian";
metricRight = "geCarrier-canadian";
note = uni15FE;
unicode = 5630;
},
{
color = 9;
glyphname = "kkiCarrier-canadian";
lastChange = "2023-01-13 15:28:21 +0000";
layers = (
{
layerId = "DE93BBBF-E17B-48DE-A6AB-0C4E62D4ADD4";
shapes = (
{
closed = 1;
nodes = (
(375,0,ls),
(539,0,o),
(627,84,o),
(627,215,cs),
(627,288,o),
(590,344,o),
(521,363,c),
(520,344,l),
(649,365,o),
(699,461,o),
(699,553,cs),
(699,651,o),
(630,714,o),
(518,714,cs),
(181,714,l),
(176,694,l),
(224,384,l),
(116,384,l),
(104,330,l),
(210,330,l),
(33,20,l),
(29,0,l)
);
},
{
closed = 1;
nodes = (
(277,332,l),
(330,332,l),
(339,308,o),
(362,290,o),
(390,290,cs),
(423,290,o),
(449,315,o),
(453,347,c),
(413,332,l),
(439,332,ls),
(521,332,o),
(564,290,o),
(564,220,cs),
(564,127,o),
(513,54,o),
(377,54,cs),
(89,54,l),
(106,30,l)
);
},
{
closed = 1;
nodes = (
(451,400,o),
(423,425,o),
(389,425,cs),
(361,425,o),
(338,407,o),
(329,382,c),
(286,382,l),
(239,688,l),
(216,660,l),
(504,660,ls),
(589,660,o),
(635,619,o),
(635,549,cs),
(635,445,o),
(569,382,o),
(448,382,cs),
(414,382,l),
(454,367,l)
);
}
);
width = 718;
}
);
metricLeft = "kkeCarrier-canadian";
metricRight = "geCarrier-canadian";
note = uni15FF;
unicode = 5631;
},
{
color = 9;
glyphname = "kkaCarrier-canadian";
lastChange = "2023-01-13 15:29:21 +0000";
layers = (
{
layerId = "DE93BBBF-E17B-48DE-A6AB-0C4E62D4ADD4";
shapes = (
{
closed = 1;
nodes = (
(585,0,l),
(590,20,l),
(542,330,l),
(651,330,l),
(662,384,l),
(556,384,l),
(733,694,l),
(737,714,l),
(391,714,ls),
(227,714,o),
(139,630,o),
(139,499,cs),
(139,426,o),
(176,370,o),
(245,351,c),
(246,370,l),
(117,349,o),
(67,253,o),
(67,161,cs),
(67,63,o),
(136,0,o),
(248,0,cs)
);
},
{
closed = 1;
nodes = (
(550,54,l),
(262,54,ls),
(177,54,o),
(131,95,o),
(131,165,cs),
(131,269,o),
(197,330,o),
(319,330,cs),
(480,330,l),
(528,26,l)
);
},
{
closed = 1;
nodes = (
(246,384,o),
(202,424,o),
(202,494,cs),
(202,587,o),
(253,660,o),
(389,660,cs),
(677,660,l),
(660,684,l),
(490,384,l),
(329,384,ls)
);
}
);
width = 718;
}
);
metricLeft = "=|geCarrier-canadian";
metricRight = "=|kkeCarrier-canadian";
note = uni1600;
unicode = 5632;
},
{
color = 6;
glyphname = "kkCarrier-canadian";
lastChange = "2023-01-13 15:28:21 +0000";
layers = (
{
layerId = "DE93BBBF-E17B-48DE-A6AB-0C4E62D4ADD4";
shapes = (
{
closed = 1;
nodes = (
(392,546,l),
(193,234,l),
(228,234,l),
(161,546,l),
(119,546,l),
(116,534,l),
(195,189,l),
(211,189,l),
(437,534,l),
(440,546,l)
);
}
);
width = 431;
}
);
note = uni1601;
unicode = 5633;
},
{
color = 9;
glyphname = "nuCarrier-canadian";
lastChange = "2023-01-13 15:28:21 +0000";
layers = (
{
layerId = "DE93BBBF-E17B-48DE-A6AB-0C4E62D4ADD4";
shapes = (
{
closed = 1;
nodes = (
(495,-13,o),
(604,84,o),
(641,262,cs),
(651,309,l),
(587,309,l),
(578,266,ls),
(548,121,o),
(464,46,o),
(335,46,cs),
(185,46,o),
(118,141,o),
(152,305,cs),
(240,714,l),
(176,714,l),
(89,305,ls),
(48,112,o),
(143,-13,o),
(331,-13,cs)
);
}
);
width = 710;
}
);
metricLeft = "te-canadian";
note = uni1602;
unicode = 5634;
},
{
color = 9;
glyphname = "noCarrier-canadian";
lastChange = "2023-01-13 15:28:21 +0000";
layers = (
{
layerId = "DE93BBBF-E17B-48DE-A6AB-0C4E62D4ADD4";
shapes = (
{
closed = 1;
nodes = (
(582,0,l),
(669,409,ls),
(710,602,o),
(615,727,o),
(427,727,cs),
(263,727,o),
(154,630,o),
(117,452,cs),
(107,405,l),
(171,405,l),
(180,448,ls),
(210,593,o),
(294,668,o),
(423,668,cs),
(573,668,o),
(640,573,o),
(605,409,cs),
(518,0,l)
);
}
);
width = 710;
}
);
metricLeft = "=|nuCarrier-canadian";
metricRight = "te-canadian";
note = uni1603;
unicode = 5635;
},
{
color = 9;
glyphname = "neCarrier-canadian";
lastChange = "2023-01-13 15:28:21 +0000";
layers = (
{
anchors = (
{
name = middle_center_can;
pos = (322,357);
}
);
layerId = "DE93BBBF-E17B-48DE-A6AB-0C4E62D4ADD4";
shapes = (
{
closed = 1;
nodes = (
(250,0,ls),
(560,0,o),
(654,263,o),
(654,448,cs),
(654,617,o),
(556,714,o),
(382,714,cs),
(157,714,l),
(145,656,l),
(374,656,ls),
(515,656,o),
(591,582,o),
(591,446,cs),
(591,297,o),
(520,58,o),
(257,58,cs),
(236,58,l),
(224,0,l)
);
}
);
width = 691;
}
);
metricRight = "theCarrier-canadian";
note = uni1604;
unicode = 5636;
},
{
color = 9;
glyphname = "naCarrier-canadian";
lastChange = "2023-01-13 15:29:21 +0000";
layers = (
{
layerId = "DE93BBBF-E17B-48DE-A6AB-0C4E62D4ADD4";
shapes = (
{
closed = 1;
nodes = (
(582,0,l),
(595,58,l),
(366,58,ls),
(224,58,o),
(148,132,o),
(148,268,cs),
(148,417,o),
(219,656,o),
(482,656,cs),
(503,656,l),
(515,714,l),
(489,714,ls),
(180,714,o),
(85,451,o),
(85,266,cs),
(85,97,o),
(183,0,o),
(357,0,cs)
);
}
);
width = 692;
}
);
metricLeft = "=|theCarrier-canadian";
metricRight = "=|neCarrier-canadian";
note = uni1607;
unicode = 5639;
},
{
color = 9;
glyphname = "muCarrier-canadian";
lastChange = "2023-01-13 15:28:21 +0000";
layers = (
{
layerId = "DE93BBBF-E17B-48DE-A6AB-0C4E62D4ADD4";
shapes = (
{
closed = 1;
nodes = (
(316,-13,o),
(386,37,o),
(425,139,c),
(402,139,l),
(409,46,o),
(467,-13,o),
(563,-13,cs),
(674,-13,o),
(747,59,o),
(776,192,cs),
(820,402,l),
(757,402,l),
(713,195,ls),
(693,97,o),
(640,45,o),
(562,45,cs),
(471,45,o),
(437,113,o),
(458,209,cs),
(498,402,l),
(437,402,l),
(396,211,ls),
(372,100,o),
(316,45,o),
(235,45,cs),
(146,45,o),
(111,102,o),
(136,217,cs),
(241,714,l),
(178,714,l),
(73,222,ls),
(42,73,o),
(99,-13,o),
(226,-13,cs)
);
}
);
width = 865;
}
);
metricLeft = "guCarrier-canadian";
metricRight = "=|";
note = uni1608;
unicode = 5640;
},
{
color = 9;
glyphname = "moCarrier-canadian";
lastChange = "2023-01-13 15:28:21 +0000";
layers = (
{
layerId = "DE93BBBF-E17B-48DE-A6AB-0C4E62D4ADD4";
shapes = (
{
closed = 1;
nodes = (
(735,0,l),
(839,492,ls),
(871,641,o),
(814,727,o),
(687,727,cs),
(596,727,o),
(527,677,o),
(488,575,c),
(511,575,l),
(504,668,o),
(446,727,o),
(350,727,cs),
(239,727,o),
(166,655,o),
(137,522,cs),
(92,312,l),
(156,312,l),
(200,519,ls),
(220,617,o),
(273,669,o),
(351,669,cs),
(442,669,o),
(476,601,o),
(455,505,cs),
(414,312,l),
(476,312,l),
(517,503,ls),
(541,614,o),
(597,669,o),
(678,669,cs),
(767,669,o),
(802,612,o),
(777,497,cs),
(672,0,l)
);
}
);
width = 865;
}
);
metricLeft = "=|muCarrier-canadian";
metricRight = "guCarrier-canadian";
note = uni1609;
unicode = 5641;
},
{
color = 9;
glyphname = "meCarrier-canadian";
lastChange = "2023-01-13 15:28:21 +0000";
layers = (
{
layerId = "DE93BBBF-E17B-48DE-A6AB-0C4E62D4ADD4";
shapes = (
{
closed = 1;
nodes = (
(358,0,ls),
(523,0,o),
(610,84,o),
(610,215,cs),
(610,288,o),
(573,344,o),
(507,362,c),
(504,344,l),
(631,365,o),
(682,459,o),
(682,553,cs),
(682,650,o),
(613,714,o),
(503,714,cs),
(157,714,l),
(146,660,l),
(488,660,ls),
(572,660,o),
(618,619,o),
(618,549,cs),
(618,446,o),
(553,384,o),
(431,384,cs),
(318,384,l),
(307,330,l),
(421,330,ls),
(503,330,o),
(548,290,o),
(548,220,cs),
(548,126,o),
(496,54,o),
(360,54,cs),
(248,54,l),
(237,0,l)
);
}
);
width = 701;
}
);
metricLeft = "neCarrier-canadian";
metricRight = "geCarrier-canadian";
note = uni160A;
unicode = 5642;
},
{
color = 9;
glyphname = "meeCarrier-canadian";
lastChange = "2023-01-13 15:28:21 +0000";
layers = (
{
layerId = "DE93BBBF-E17B-48DE-A6AB-0C4E62D4ADD4";
shapes = (
{
closed = 1;
nodes = (
(358,0,ls),
(523,0,o),
(610,84,o),
(610,215,cs),
(610,288,o),
(573,344,o),
(507,362,c),
(504,344,l),
(631,365,o),
(682,459,o),
(682,553,cs),
(682,650,o),
(613,714,o),
(503,714,cs),
(157,714,l),
(146,660,l),
(488,660,ls),
(572,660,o),
(618,619,o),
(618,549,cs),
(618,446,o),
(553,383,o),
(431,383,cs),
(363,383,l),
(382,474,l),
(336,474,l),
(287,241,l),
(333,241,l),
(352,331,l),
(422,331,ls),
(503,331,o),
(548,290,o),
(548,220,cs),
(548,126,o),
(496,54,o),
(360,54,cs),
(248,54,l),
(237,0,l)
);
}
);
width = 701;
}
);
metricLeft = "neCarrier-canadian";
metricRight = "geCarrier-canadian";
note = uni160B;
unicode = 5643;
},
{
color = 9;
glyphname = "miCarrier-canadian";
lastChange = "2023-01-13 15:29:21 +0000";
layers = (
{
layerId = "DE93BBBF-E17B-48DE-A6AB-0C4E62D4ADD4";
shapes = (
{
closed = 1;
nodes = (
(358,0,ls),
(521,0,o),
(603,80,o),
(609,204,cs),
(613,282,o),
(576,342,o),
(507,362,c),
(504,344,l),
(626,364,o),
(677,452,o),
(681,541,cs),
(687,644,o),
(617,714,o),
(503,714,cs),
(157,714,l),
(146,660,l),
(488,660,ls),
(574,660,o),
(620,617,o),
(618,545,cs),
(616,442,o),
(551,383,o),
(431,383,cs),
(367,383,l),
(401,364,l),
(399,400,o),
(370,426,o),
(335,426,cs),
(298,426,o),
(269,396,o),
(269,359,cs),
(269,323,o),
(298,292,o),
(335,292,cs),
(369,292,o),
(396,317,o),
(401,350,c),
(366,331,l),
(421,331,ls),
(505,331,o),
(550,290,o),
(547,216,cs),
(545,122,o),
(493,54,o),
(360,54,cs),
(248,54,l),
(237,0,l)
);
}
);
width = 700;
}
);
metricLeft = "neCarrier-canadian";
metricRight = "geCarrier-canadian";
note = uni160C;
unicode = 5644;
},
{
color = 9;
glyphname = "maCarrier-canadian";
lastChange = "2023-01-13 15:29:21 +0000";
layers = (
{
layerId = "DE93BBBF-E17B-48DE-A6AB-0C4E62D4ADD4";
shapes = (
{
closed = 1;
nodes = (
(593,0,l),
(605,54,l),
(261,54,ls),
(177,54,o),
(131,95,o),
(131,165,cs),
(131,268,o),
(197,330,o),
(318,330,cs),
(431,330,l),
(443,384,l),
(329,384,ls),
(246,384,o),
(202,424,o),
(202,494,cs),
(202,588,o),
(253,660,o),
(389,660,cs),
(501,660,l),
(513,714,l),
(391,714,ls),
(227,714,o),
(139,630,o),
(139,499,cs),
(139,426,o),
(177,370,o),
(242,352,c),
(245,370,l),
(119,349,o),
(67,255,o),
(67,161,cs),
(67,64,o),
(136,0,o),
(247,0,cs)
);
}
);
width = 702;
}
);
metricLeft = "=|geCarrier-canadian";
metricRight = "=|neCarrier-canadian";
note = uni160D;
unicode = 5645;
},
{
color = 9;
glyphname = "yuCarrier-canadian";
lastChange = "2023-01-13 15:28:21 +0000";
layers = (
{
layerId = "DE93BBBF-E17B-48DE-A6AB-0C4E62D4ADD4";
shapes = (
{
closed = 1;
nodes = (
(533,-13,o),
(648,107,o),
(705,376,cs),
(744,564,o),
(724,727,o),
(573,727,cs),
(432,727,o),
(381,574,o),
(381,474,cs),
(381,382,o),
(430,326,o),
(514,326,cs),
(529,326,o),
(542,328,o),
(560,334,c),
(571,385,l),
(558,381,o),
(543,379,o),
(529,379,cs),
(469,379,o),
(438,414,o),
(438,478,cs),
(438,544,o),
(468,673,o),
(569,673,cs),
(678,673,o),
(677,544,o),
(646,387,cs),
(598,147,o),
(509,47,o),
(339,47,cs),
(171,47,o),
(119,149,o),
(154,309,cs),
(240,714,l),
(176,714,l),
(90,309,ls),
(51,122,o),
(127,-13,o),
(336,-13,cs)
);
}
);
width = 753;
}
);
metricLeft = "te-canadian";
metricRight = "te-canadian";
note = uni160E;
unicode = 5646;
},
{
color = 9;
glyphname = "yoCarrier-canadian";
lastChange = "2023-01-13 15:28:21 +0000";
layers = (
{
layerId = "DE93BBBF-E17B-48DE-A6AB-0C4E62D4ADD4";
shapes = (
{
closed = 1;
nodes = (
(368,-13,o),
(420,140,o),
(420,240,cs),
(420,332,o),
(371,388,o),
(286,388,cs),
(272,388,o),
(259,386,o),
(241,380,c),
(230,329,l),
(242,333,o),
(257,335,o),
(272,335,cs),
(332,335,o),
(363,300,o),
(363,236,cs),
(363,170,o),
(333,41,o),
(232,41,cs),
(123,41,o),
(123,170,o),
(155,327,cs),
(202,567,o),
(292,667,o),
(461,667,cs),
(630,667,o),
(681,565,o),
(647,405,cs),
(561,0,l),
(625,0,l),
(711,405,ls),
(750,592,o),
(674,727,o),
(465,727,cs),
(268,727,o),
(152,607,o),
(96,338,cs),
(56,150,o),
(77,-13,o),
(227,-13,cs)
);
}
);
width = 753;
}
);
metricLeft = "te-canadian";
metricRight = "te-canadian";
note = uni160F;
unicode = 5647;
},
{
color = 9;
glyphname = "yeCarrier-canadian";
lastChange = "2023-01-13 15:28:21 +0000";
layers = (
{
layerId = "DE93BBBF-E17B-48DE-A6AB-0C4E62D4ADD4";
shapes = (
{
closed = 1;
nodes = (
(541,-13,o),
(654,239,o),
(654,432,cs),
(654,610,o),
(551,714,o),
(367,714,cs),
(184,714,l),
(172,656,l),
(357,656,ls),
(509,656,o),
(590,575,o),
(590,430,cs),
(590,278,o),
(514,43,o),
(299,43,cs),
(185,43,o),
(120,98,o),
(120,188,cs),
(120,264,o),
(161,362,o),
(248,362,cs),
(305,362,o),
(337,325,o),
(337,263,cs),
(337,224,o),
(327,185,o),
(312,149,c),
(364,149,l),
(381,190,o),
(392,230,o),
(392,271,cs),
(392,359,o),
(338,414,o),
(250,414,cs),
(130,414,o),
(62,298,o),
(62,184,cs),
(62,65,o),
(151,-13,o),
(296,-13,cs)
);
}
);
width = 694;
}
);
metricRight = "theCarrier-canadian";
note = uni1610;
unicode = 5648;
},
{
color = 9;
glyphname = "yeeCarrier-canadian";
lastChange = "2023-01-13 15:29:21 +0000";
layers = (
{
layerId = "DE93BBBF-E17B-48DE-A6AB-0C4E62D4ADD4";
shapes = (
{
closed = 1;
nodes = (
(541,-13,o),
(655,241,o),
(655,435,cs),
(655,610,o),
(551,714,o),
(369,714,cs),
(185,714,l),
(173,656,l),
(358,656,ls),
(510,656,o),
(591,575,o),
(591,431,cs),
(591,289,o),
(520,43,o),
(300,43,cs),
(186,43,o),
(121,96,o),
(121,187,cs),
(121,259,o),
(161,362,o),
(252,362,cs),
(325,362,o),
(339,299,o),
(324,229,cs),
(313,180,l),
(357,180,l),
(429,520,l),
(386,520,l),
(341,311,l),
(349,310,l),
(350,376,o),
(312,414,o),
(246,414,cs),
(125,414,o),
(63,289,o),
(63,184,cs),
(63,65,o),
(151,-13,o),
(298,-13,cs)
);
}
);
width = 694;
}
);
metricRight = "theCarrier-canadian";
metricWidth = "yeCarrier-canadian";
note = uni1611;
unicode = 5649;
},
{
color = 9;
glyphname = "yiCarrier-canadian";
lastChange = "2023-01-13 15:28:21 +0000";
layers = (
{
layerId = "DE93BBBF-E17B-48DE-A6AB-0C4E62D4ADD4";
shapes = (
{
closed = 1;
nodes = (
(525,-13,o),
(653,212,o),
(653,435,cs),
(653,610,o),
(549,714,o),
(367,714,cs),
(184,714,l),
(172,656,l),
(357,656,ls),
(509,656,o),
(589,575,o),
(589,431,cs),
(589,249,o),
(496,43,o),
(299,43,cs),
(184,43,o),
(119,97,o),
(119,184,cs),
(119,266,o),
(164,339,o),
(265,336,c),
(246,355,l),
(247,321,o),
(275,295,o),
(309,295,cs),
(344,295,o),
(371,323,o),
(371,358,cs),
(371,393,o),
(344,419,o),
(308,419,cs),
(283,419,o),
(261,404,o),
(253,383,c),
(129,379,o),
(61,291,o),
(61,179,cs),
(61,64,o),
(150,-13,o),
(296,-13,cs)
);
}
);
width = 694;
}
);
metricRight = "theCarrier-canadian";
metricWidth = "yeCarrier-canadian";
note = uni1612;
unicode = 5650;
},
{
color = 9;
glyphname = "yaCarrier-canadian";
lastChange = "2023-01-13 15:28:21 +0000";
layers = (
{
layerId = "DE93BBBF-E17B-48DE-A6AB-0C4E62D4ADD4";
shapes = (
{
closed = 1;
nodes = (
(558,0,l),
(570,58,l),
(384,58,ls),
(233,58,o),
(152,139,o),
(152,284,cs),
(152,436,o),
(228,671,o),
(443,671,cs),
(556,671,o),
(622,616,o),
(622,526,cs),
(622,450,o),
(581,352,o),
(493,352,cs),
(437,352,o),
(404,389,o),
(404,451,cs),
(404,490,o),
(415,529,o),
(429,565,c),
(377,565,l),
(360,524,o),
(350,484,o),
(350,443,cs),
(350,355,o),
(403,300,o),
(492,300,cs),
(611,300,o),
(680,416,o),
(680,530,cs),
(680,649,o),
(591,727,o),
(446,727,cs),
(201,727,o),
(88,475,o),
(88,282,cs),
(88,104,o),
(191,0,o),
(374,0,cs)
);
}
);
width = 694;
}
);
metricLeft = "=|theCarrier-canadian";
metricRight = "=|yeCarrier-canadian";
note = uni1613;
unicode = 5651;
},
{
color = 9;
glyphname = "juCarrier-canadian";
lastChange = "2023-01-13 15:28:21 +0000";
layers = (
{
layerId = "DE93BBBF-E17B-48DE-A6AB-0C4E62D4ADD4";
shapes = (
{
closed = 1;
nodes = (
(535,-13,o),
(642,112,o),
(642,257,cs),
(642,351,o),
(587,414,o),
(498,414,cs),
(381,414,o),
(325,311,o),
(315,203,cs),
(312,184,o),
(311,165,o),
(311,149,c),
(364,149,l),
(363,161,o),
(364,177,o),
(367,197,cs),
(375,281,o),
(412,362,o),
(495,362,cs),
(552,362,o),
(585,321,o),
(585,256,cs),
(585,142,o),
(508,43,o),
(367,43,cs),
(228,43,o),
(148,118,o),
(148,247,cs),
(148,468,o),
(326,656,o),
(631,656,cs),
(721,656,l),
(733,714,l),
(175,714,l),
(163,657,l),
(508,657,l),
(573,682,l),
(284,680,o),
(84,496,o),
(84,249,cs),
(84,91,o),
(191,-13,o),
(361,-13,cs)
);
}
);
width = 714;
}
);
metricRight = "=|yeCarrier-canadian";
note = uni1614;
unicode = 5652;
},
{
color = 9;
glyphname = "juSayisi-canadian";
lastChange = "2023-01-13 15:29:21 +0000";
layers = (
{
anchors = (
{
name = top_center_can;
pos = (474,714);
}
);
layerId = "DE93BBBF-E17B-48DE-A6AB-0C4E62D4ADD4";
shapes = (
{
closed = 1;
nodes = (
(546,-13,o),
(654,195,o),
(657,377,cs),
(661,568,o),
(538,681,o),
(310,685,c),
(388,657,l),
(726,657,l),
(738,714,l),
(179,714,l),
(167,656,l),
(257,656,ls),
(485,656,o),
(598,561,o),
(595,383,cs),
(593,241,o),
(525,43,o),
(305,43,cs),
(182,43,o),
(117,99,o),
(118,191,cs),
(118,274,o),
(167,362,o),
(248,362,cs),
(304,362,o),
(335,325,o),
(334,261,cs),
(334,225,o),
(323,181,o),
(309,149,c),
(361,149,l),
(381,192,o),
(387,236,o),
(388,268,cs),
(390,358,o),
(338,414,o),
(250,414,cs),
(136,414,o),
(63,304,o),
(61,189,cs),
(58,67,o),
(146,-13,o),
(303,-13,cs)
);
}
);
width = 711;
}
);
metricLeft = "yeCarrier-canadian";
metricRight = "=|juCarrier-canadian";
note = uni1615;
unicode = 5653;
},
{
color = 9;
glyphname = "joCarrier-canadian";
lastChange = "2023-01-13 15:29:21 +0000";
layers = (
{
layerId = "DE93BBBF-E17B-48DE-A6AB-0C4E62D4ADD4";
shapes = (
{
closed = 1;
nodes = (
(587,0,l),
(599,57,l),
(253,57,l),
(189,32,l),
(478,34,o),
(677,218,o),
(677,465,cs),
(677,623,o),
(570,727,o),
(401,727,cs),
(227,727,o),
(120,602,o),
(120,457,cs),
(120,363,o),
(175,300,o),
(264,300,cs),
(380,300,o),
(437,403,o),
(447,511,cs),
(450,530,o),
(451,549,o),
(450,565,c),
(398,565,l),
(398,553,o),
(398,537,o),
(395,517,cs),
(387,433,o),
(349,352,o),
(267,352,cs),
(209,352,o),
(177,393,o),
(177,458,cs),
(177,572,o),
(254,671,o),
(395,671,cs),
(533,671,o),
(613,596,o),
(613,467,cs),
(613,246,o),
(436,58,o),
(131,58,cs),
(41,58,l),
(29,0,l)
);
}
);
width = 713;
}
);
metricLeft = "yeCarrier-canadian";
metricRight = "=|juCarrier-canadian";
note = uni1616;
unicode = 5654;
},
{
color = 9;
glyphname = "jeCarrier-canadian";
lastChange = "2023-01-13 15:29:21 +0000";
layers = (
{
layerId = "DE93BBBF-E17B-48DE-A6AB-0C4E62D4ADD4";
shapes = (
{
closed = 1;
nodes = (
(662,-13,o),
(709,319,o),
(709,453,cs),
(709,629,o),
(630,727,o),
(478,727,cs),
(338,727,o),
(237,639,o),
(178,465,c),
(190,448,l),
(247,714,l),
(183,714,l),
(31,0,l),
(95,0,l),
(158,297,ls),
(210,544,o),
(313,668,o),
(467,668,cs),
(590,668,o),
(648,595,o),
(648,451,cs),
(648,363,o),
(619,41,o),
(464,41,cs),
(406,41,o),
(373,79,o),
(373,145,cs),
(373,223,o),
(408,335,o),
(522,335,cs),
(539,335,o),
(553,333,o),
(566,329,c),
(577,380,l),
(560,386,o),
(541,388,o),
(519,388,cs),
(369,388,o),
(316,246,o),
(316,142,cs),
(316,47,o),
(370,-13,o),
(459,-13,cs)
);
}
);
width = 759;
}
);
metricLeft = "nunavuth-canadian";
metricRight = "te-canadian";
note = uni1617;
unicode = 5655;
},
{
color = 9;
glyphname = "jeeCarrier-canadian";
lastChange = "2023-01-13 15:29:21 +0000";
layers = (
{
layerId = "DE93BBBF-E17B-48DE-A6AB-0C4E62D4ADD4";
shapes = (
{
closed = 1;
nodes = (
(661,-13,o),
(709,319,o),
(709,452,cs),
(709,629,o),
(630,727,o),
(478,727,cs),
(337,727,o),
(237,639,o),
(178,464,c),
(190,448,l),
(247,714,l),
(183,714,l),
(31,0,l),
(95,0,l),
(158,295,ls),
(210,544,o),
(313,668,o),
(467,668,cs),
(590,668,o),
(648,594,o),
(648,451,cs),
(648,355,o),
(617,41,o),
(457,41,cs),
(394,41,o),
(359,81,o),
(359,150,cs),
(359,221,o),
(388,326,o),
(485,340,c),
(465,245,l),
(505,245,l),
(552,470,l),
(512,470,l),
(494,383,l),
(360,366,o),
(316,235,o),
(316,141,cs),
(316,47,o),
(370,-13,o),
(460,-13,cs)
);
}
);
width = 759;
}
);
metricLeft = "nunavuth-canadian";
metricRight = "jeCarrier-canadian";
note = uni1618;
unicode = 5656;
},
{
color = 9;
glyphname = "jiCarrier-canadian";
lastChange = "2023-01-13 15:29:21 +0000";
layers = (
{
layerId = "DE93BBBF-E17B-48DE-A6AB-0C4E62D4ADD4";
shapes = (
{
closed = 1;
nodes = (
(661,-13,o),
(709,319,o),
(709,452,cs),
(709,629,o),
(630,727,o),
(478,727,cs),
(337,727,o),
(237,639,o),
(178,464,c),
(190,448,l),
(247,714,l),
(183,714,l),
(31,0,l),
(95,0,l),
(158,295,ls),
(210,544,o),
(313,668,o),
(467,668,cs),
(590,668,o),
(648,594,o),
(648,451,cs),
(648,355,o),
(617,41,o),
(457,41,cs),
(394,41,o),
(359,81,o),
(359,150,cs),
(359,210,o),
(380,295,o),
(448,325,c),
(456,308,o),
(474,295,o),
(496,295,cs),
(531,295,o),
(556,323,o),
(556,358,cs),
(556,393,o),
(530,419,o),
(495,419,cs),
(462,419,o),
(437,394,o),
(435,361,c),
(345,324,o),
(316,219,o),
(316,141,cs),
(316,47,o),
(370,-13,o),
(460,-13,cs)
);
}
);
width = 759;
}
);
metricLeft = "nunavuth-canadian";
metricRight = "jeCarrier-canadian";
note = uni1619;
unicode = 5657;
},
{
color = 9;
glyphname = "jiSayisi-canadian";
lastChange = "2023-01-13 15:29:21 +0000";
layers = (
{
layerId = "DE93BBBF-E17B-48DE-A6AB-0C4E62D4ADD4";
shapes = (
{
closed = 1;
nodes = (
(634,-13,o),
(731,349,o),
(731,532,cs),
(731,659,o),
(681,727,o),
(584,727,cs),
(440,727,o),
(387,569,o),
(387,471,cs),
(387,379,o),
(438,326,o),
(515,326,cs),
(535,326,o),
(555,329,o),
(566,334,c),
(578,386,l),
(566,381,o),
(551,379,o),
(535,379,cs),
(476,379,o),
(443,410,o),
(443,476,cs),
(443,533,o),
(473,673,o),
(580,673,cs),
(642,673,o),
(671,629,o),
(671,537,cs),
(671,390,o),
(597,46,o),
(359,46,cs),
(159,46,o),
(148,250,o),
(186,428,cs),
(247,714,l),
(183,714,l),
(31,0,l),
(95,0,l),
(166,340,l),
(152,352,l),
(113,170,o),
(159,-13,o),
(361,-13,cs)
);
}
);
width = 761;
}
);
metricLeft = "nunavuth-canadian";
metricRight = "jeCarrier-canadian";
note = uni161A;
unicode = 5658;
},
{
color = 9;
glyphname = "jaCarrier-canadian";
lastChange = "2023-01-13 15:28:21 +0000";
layers = (
{
anchors = (
{
name = top_center_can;
pos = (472,714);
}
);
layerId = "DE93BBBF-E17B-48DE-A6AB-0C4E62D4ADD4";
shapes = (
{
closed = 1;
nodes = (
(471,-12,o),
(571,75,o),
(630,250,c),
(618,267,l),
(562,0,l),
(625,0,l),
(777,714,l),
(713,714,l),
(650,417,ls),
(598,171,o),
(495,46,o),
(341,46,cs),
(219,46,o),
(160,119,o),
(160,264,cs),
(160,351,o),
(190,673,o),
(344,673,cs),
(403,673,o),
(436,635,o),
(436,570,cs),
(436,491,o),
(400,379,o),
(286,379,cs),
(270,379,o),
(256,381,o),
(242,386,c),
(232,334,l),
(249,328,o),
(267,326,o),
(289,326,cs),
(440,326,o),
(492,469,o),
(492,573,cs),
(492,668,o),
(439,727,o),
(349,727,cs),
(147,727,o),
(98,395,o),
(98,261,cs),
(98,86,o),
(179,-12,o),
(330,-12,cs)
);
}
);
width = 760;
}
);
metricLeft = "=|jeCarrier-canadian";
metricRight = "nunavuth-canadian";
note = uni161B;
unicode = 5659;
},
{
color = 9;
glyphname = "jjuCarrier-canadian";
lastChange = "2023-01-13 15:28:21 +0000";
layers = (
{
layerId = "DE93BBBF-E17B-48DE-A6AB-0C4E62D4ADD4";
shapes = (
{
closed = 1;
nodes = (
(519,-13,o),
(627,110,o),
(627,257,cs),
(627,351,o),
(571,414,o),
(481,414,cs),
(390,414,o),
(328,354,o),
(304,240,cs),
(296,208,o),
(293,176,o),
(293,149,c),
(346,149,l),
(346,173,o),
(348,200,o),
(355,231,cs),
(374,316,o),
(415,362,o),
(477,362,cs),
(536,362,o),
(570,320,o),
(570,255,cs),
(570,140,o),
(489,43,o),
(352,43,cs),
(220,43,o),
(147,118,o),
(147,252,cs),
(147,445,o),
(258,656,o),
(562,656,cs),
(699,656,l),
(711,714,l),
(574,714,ls),
(434,714,o),
(330,678,o),
(254,622,c),
(172,727,l),
(120,686,l),
(205,579,l),
(115,489,o),
(84,361,o),
(84,256,cs),
(84,91,o),
(183,-13,o),
(348,-13,cs)
);
}
);
width = 699;
}
);
metricRight = "=|yeCarrier-canadian";
note = uni161C;
unicode = 5660;
},
{
color = 9;
glyphname = "jjoCarrier-canadian";
lastChange = "2023-01-13 15:28:21 +0000";
layers = (
{
layerId = "DE93BBBF-E17B-48DE-A6AB-0C4E62D4ADD4";
shapes = (
{
closed = 1;
nodes = (
(627,28,l),
(542,135,l),
(632,225,o),
(663,353,o),
(663,458,cs),
(663,623,o),
(564,727,o),
(399,727,cs),
(228,727,o),
(120,604,o),
(120,457,cs),
(120,363,o),
(176,300,o),
(266,300,cs),
(357,300,o),
(419,360,o),
(443,474,cs),
(451,506,o),
(454,538,o),
(454,565,c),
(402,565,l),
(401,541,o),
(399,514,o),
(392,483,cs),
(373,398,o),
(332,352,o),
(270,352,cs),
(211,352,o),
(177,394,o),
(177,459,cs),
(177,574,o),
(258,671,o),
(395,671,cs),
(527,671,o),
(600,596,o),
(600,462,cs),
(600,269,o),
(489,58,o),
(185,58,cs),
(48,58,l),
(36,0,l),
(173,0,ls),
(313,0,o),
(417,36,o),
(493,92,c),
(575,-13,l)
);
}
);
width = 699;
}
);
metricLeft = "yeCarrier-canadian";
metricRight = "=|jjuCarrier-canadian";
note = uni161D;
unicode = 5661;
},
{
color = 9;
glyphname = "jjeCarrier-canadian";
lastChange = "2023-01-13 15:29:21 +0000";
layers = (
{
layerId = "DE93BBBF-E17B-48DE-A6AB-0C4E62D4ADD4";
shapes = (
{
closed = 1;
nodes = (
(666,-13,o),
(714,320,o),
(714,453,cs),
(714,633,o),
(630,727,o),
(468,727,cs),
(382,727,o),
(307,699,o),
(247,639,c),
(176,726,l),
(127,685,l),
(204,590,l),
(164,536,o),
(135,464,o),
(115,373,cs),
(36,0,l),
(100,0,l),
(178,368,ls),
(220,567,o),
(317,668,o),
(464,668,cs),
(592,668,o),
(653,598,o),
(653,451,cs),
(653,364,o),
(623,41,o),
(469,41,cs),
(410,41,o),
(377,79,o),
(377,145,cs),
(377,224,o),
(413,335,o),
(527,335,cs),
(547,335,o),
(560,333,o),
(571,329,c),
(581,380,l),
(567,386,o),
(548,388,o),
(527,388,cs),
(375,388,o),
(321,246,o),
(321,142,cs),
(321,47,o),
(374,-13,o),
(464,-13,cs)
);
}
);
width = 764;
}
);
metricRight = "jeCarrier-canadian";
note = uni161E;
unicode = 5662;
},
{
color = 9;
glyphname = "jjeeCarrier-canadian";
lastChange = "2023-01-13 15:29:21 +0000";
layers = (
{
layerId = "DE93BBBF-E17B-48DE-A6AB-0C4E62D4ADD4";
shapes = (
{
closed = 1;
nodes = (
(666,-13,o),
(714,320,o),
(714,453,cs),
(714,633,o),
(630,727,o),
(468,727,cs),
(382,727,o),
(307,699,o),
(247,639,c),
(176,726,l),
(127,685,l),
(204,590,l),
(164,536,o),
(135,464,o),
(115,373,cs),
(36,0,l),
(100,0,l),
(178,368,ls),
(220,567,o),
(317,668,o),
(464,668,cs),
(592,668,o),
(653,598,o),
(653,451,cs),
(653,362,o),
(624,41,o),
(462,41,cs),
(400,41,o),
(363,81,o),
(363,151,cs),
(363,225,o),
(392,324,o),
(484,340,c),
(464,245,l),
(504,245,l),
(551,469,l),
(511,469,l),
(493,381,l),
(365,364,o),
(321,237,o),
(321,142,cs),
(321,47,o),
(374,-13,o),
(464,-13,cs)
);
}
);
width = 764;
}
);
metricLeft = "jjeCarrier-canadian";
metricRight = "jeCarrier-canadian";
note = uni161F;
unicode = 5663;
},
{
color = 9;
glyphname = "jjiCarrier-canadian";
lastChange = "2023-01-13 15:29:21 +0000";
layers = (
{
layerId = "DE93BBBF-E17B-48DE-A6AB-0C4E62D4ADD4";
shapes = (
{
closed = 1;
nodes = (
(626,-13,o),
(682,202,o),
(705,363,cs),
(735,595,o),
(652,727,o),
(467,727,cs),
(378,727,o),
(304,697,o),
(246,640,c),
(176,726,l),
(127,685,l),
(204,591,l),
(164,536,o),
(134,463,o),
(115,373,cs),
(36,0,l),
(100,0,l),
(178,368,ls),
(220,567,o),
(317,668,o),
(464,667.995,cs),
(609,668,o),
(669,567,o),
(644,368,cs),
(626,242,o),
(593,41,o),
(462,41,cs),
(391,41,o),
(357,93,o),
(367,182,cs),
(373,244,o),
(395,305,o),
(454,326,c),
(462,308,o),
(481,295,o),
(503,295,cs),
(539,295,o),
(564,324,o),
(564,358,cs),
(564,393,o),
(538,419,o),
(503,419,cs),
(469,419,o),
(446,393,o),
(443,363,c),
(367,335,o),
(333,258,o),
(325,179,cs),
(311,62,o),
(365,-13,o),
(464,-13,cs)
);
}
);
width = 759;
}
);
metricLeft = "jjeCarrier-canadian";
metricRight = "jeCarrier-canadian";
note = uni1620;
unicode = 5664;
},
{
color = 9;
glyphname = "jjaCarrier-canadian";
lastChange = "2023-01-13 15:29:21 +0000";
layers = (
{
layerId = "DE93BBBF-E17B-48DE-A6AB-0C4E62D4ADD4";
shapes = (
{
closed = 1;
nodes = (
(430,-13,o),
(506,15,o),
(566,75,c),
(636,-12,l),
(686,29,l),
(608,124,l),
(648,178,o),
(678,250,o),
(697,341,cs),
(776,714,l),
(713,714,l),
(635,346,ls),
(592,147,o),
(495,46,o),
(348,46,cs),
(221,46,o),
(160,116,o),
(160,263,cs),
(160,350,o),
(189,673,o),
(344,673,cs),
(402,673,o),
(435,635,o),
(435,569,cs),
(435,490,o),
(399,379,o),
(286,379,cs),
(266,379,o),
(252,381,o),
(242,385,c),
(231,334,l),
(245,328,o),
(264,326,o),
(285,326,cs),
(438,326,o),
(492,468,o),
(492,572,cs),
(492,667,o),
(438,727,o),
(348,727,cs),
(146,727,o),
(98,394,o),
(98,261,cs),
(98,81,o),
(183,-13,o),
(345,-13,cs)
);
}
);
width = 765;
}
);
metricLeft = "=|jeCarrier-canadian";
metricRight = "=|jjeCarrier-canadian";
note = uni1621;
unicode = 5665;
},
{
color = 9;
glyphname = "luCarrier-canadian";
lastChange = "2023-01-13 15:29:21 +0000";
layers = (
{
layerId = "DE93BBBF-E17B-48DE-A6AB-0C4E62D4ADD4";
shapes = (
{
closed = 1;
nodes = (
(500,-13,o),
(602,82,o),
(643,275,cs),
(736,714,l),
(672,714,l),
(580,281,ls),
(546,122,o),
(468,46,o),
(339,46,cs),
(212,46,o),
(145,120,o),
(145,245,cs),
(145,420,o),
(255,652,o),
(476,661,c),
(488,714,l),
(166,714,l),
(155,660,l),
(366,660,l),
(406,676,l),
(199,653,o),
(81,425,o),
(81,242,cs),
(81,86,o),
(175,-13,o),
(336,-13,cs)
);
}
);
width = 713;
}
);
metricRight = "te-canadian";
note = uni1622;
unicode = 5666;
},
{
color = 9;
glyphname = "loCarrier-canadian";
lastChange = "2023-01-13 15:28:21 +0000";
layers = (
{
layerId = "DE93BBBF-E17B-48DE-A6AB-0C4E62D4ADD4";
shapes = (
{
closed = 1;
nodes = (
(88,0,l),
(180,433,ls),
(214,592,o),
(291,668,o),
(421,668,cs),
(548,668,o),
(615,594,o),
(615,469,cs),
(615,294,o),
(505,62,o),
(284,53,c),
(272,0,l),
(594,0,l),
(605,54,l),
(394,54,l),
(354,38,l),
(561,61,o),
(679,289,o),
(679,472,cs),
(679,628,o),
(585,727,o),
(423,727,cs),
(260,727,o),
(158,632,o),
(117,439,cs),
(24,0,l)
);
}
);
width = 712;
}
);
metricLeft = "te-canadian";
metricRight = "=|luCarrier-canadian";
note = uni1623;
unicode = 5667;
},
{
color = 9;
glyphname = "leCarrier-canadian";
lastChange = "2023-01-13 15:28:21 +0000";
layers = (
{
anchors = (
{
name = middle_center_can;
pos = (368,358);
}
);
layerId = "DE93BBBF-E17B-48DE-A6AB-0C4E62D4ADD4";
shapes = (
{
closed = 1;
nodes = (
(240,0,ls),
(556,0,o),
(651,262,o),
(651,459,cs),
(651,623,o),
(571,727,o),
(435,727,cs),
(323,727,o),
(234,654,o),
(186,523,c),
(196,523,l),
(237,714,l),
(179,714,l),
(112,399,l),
(166,399,l),
(208,571,o),
(299,668,o),
(419,668,cs),
(527,668,o),
(587,589,o),
(587,456,cs),
(587,287,o),
(504,58,o),
(248,58,cs),
(40,58,l),
(27,0,l)
);
}
);
width = 687;
}
);
metricRight = "theCarrier-canadian";
note = uni1624;
unicode = 5668;
},
{
color = 9;
glyphname = "laCarrier-canadian";
lastChange = "2023-01-13 15:29:21 +0000";
layers = (
{
layerId = "DE93BBBF-E17B-48DE-A6AB-0C4E62D4ADD4";
shapes = (
{
closed = 1;
nodes = (
(557,0,l),
(569,58,l),
(379,58,ls),
(224,58,o),
(150,130,o),
(150,271,cs),
(150,416,o),
(226,668,o),
(429,668,cs),
(557,668,o),
(618,563,o),
(588,399,c),
(642,399,l),
(709,714,l),
(651,714,l),
(607,508,l),
(617,507,l),
(621,643,o),
(548,727,o),
(423,727,cs),
(186,727,o),
(86,445,o),
(86,270,cs),
(86,97,o),
(182,0,o),
(370,0,cs)
);
}
);
width = 688;
}
);
metricLeft = "=|theCarrier-canadian";
metricRight = "=|leCarrier-canadian";
note = uni1627;
unicode = 5671;
},
{
color = 1;
glyphname = "dluCarrier-canadian";
lastChange = "2023-01-13 15:28:21 +0000";
layers = (
{
layerId = "DE93BBBF-E17B-48DE-A6AB-0C4E62D4ADD4";
shapes = (
{
closed = 1;
nodes = (
(581,-13,o),
(664,265,o),
(664,421,cs),
(664,563,o),
(594,659,o),
(474,680,c),
(490,664,l),
(724,664,l),
(706,577,l),
(756,577,l),
(803,800,l),
(754,800,l),
(735,714,l),
(424,714,l),
(412,661,l),
(539,648,o),
(604,567,o),
(604,433,cs),
(604,308,o),
(544,46,o),
(320,46,cs),
(179,46,o),
(117,137,o),
(151,298,cs),
(240,714,l),
(176,714,l),
(88,302,ls),
(47,107,o),
(135,-13,o),
(317,-13,cs)
);
}
);
width = 745;
}
);
metricLeft = "te-canadian";
note = uni1628;
unicode = 5672;
},
{
color = 9;
glyphname = "dloCarrier-canadian";
lastChange = "2023-01-13 15:29:21 +0000";
layers = (
{
layerId = "DE93BBBF-E17B-48DE-A6AB-0C4E62D4ADD4";
shapes = (
{
closed = 1;
nodes = (
(615,-86,l),
(663,137,l),
(613,137,l),
(595,51,l),
(393,51,l),
(385,44,l),
(570,74,o),
(679,293,o),
(679,472,cs),
(679,628,o),
(585,727,o),
(423,727,cs),
(260,727,o),
(158,632,o),
(117,439,cs),
(24,0,l),
(88,0,l),
(180,433,ls),
(214,592,o),
(291,668,o),
(421,668,cs),
(548,668,o),
(615,594,o),
(615,469,cs),
(615,294,o),
(505,62,o),
(284,53,c),
(272,0,l),
(584,0,l),
(566,-86,l)
);
}
);
width = 746;
}
);
metricLeft = "te-canadian";
metricRight = "dluCarrier-canadian";
note = uni1629;
unicode = 5673;
},
{
color = 9;
glyphname = "dleCarrier-canadian";
lastChange = "2023-01-13 15:28:21 +0000";
layers = (
{
anchors = (
{
name = middle_center_can;
pos = (378,358);
}
);
layerId = "DE93BBBF-E17B-48DE-A6AB-0C4E62D4ADD4";
shapes = (
{
closed = 1;
nodes = (
(251,0,ls),
(567,0,o),
(662,262,o),
(662,459,cs),
(662,623,o),
(581,727,o),
(446,727,cs),
(332,727,o),
(234,648,o),
(184,510,c),
(194,510,l),
(239,728,l),
(323,728,l),
(333,776,l),
(123,776,l),
(112,728,l),
(193,728,l),
(123,399,l),
(177,399,l),
(219,571,o),
(310,668,o),
(430,668,cs),
(538,668,o),
(598,589,o),
(598,456,cs),
(598,287,o),
(514,58,o),
(259,58,cs),
(50,58,l),
(38,0,l)
);
}
);
width = 698;
}
);
metricRight = "theCarrier-canadian";
note = uni162A;
unicode = 5674;
},
{
color = 9;
glyphname = "dlaCarrier-canadian";
lastChange = "2023-01-13 15:29:21 +0000";
layers = (
{
layerId = "DE93BBBF-E17B-48DE-A6AB-0C4E62D4ADD4";
shapes = (
{
closed = 1;
nodes = (
(557,0,l),
(569,58,l),
(379,58,ls),
(224,58,o),
(150,130,o),
(150,271,cs),
(150,416,o),
(226,668,o),
(429,668,cs),
(557,668,o),
(618,563,o),
(588,399,c),
(642,399,l),
(712,728,l),
(791,728,l),
(801,776,l),
(591,776,l),
(582,728,l),
(662,728,l),
(615,506,l),
(624,505,l),
(628,643,o),
(548,727,o),
(423,727,cs),
(186,727,o),
(86,445,o),
(86,270,cs),
(86,97,o),
(182,0,o),
(370,0,cs)
);
}
);
width = 697;
}
);
metricLeft = "=|theCarrier-canadian";
metricRight = "=|dleCarrier-canadian";
note = uni162D;
unicode = 5677;
},
{
color = 9;
glyphname = "lhuCarrier-canadian";
lastChange = "2023-01-13 15:28:21 +0000";
layers = (
{
layerId = "DE93BBBF-E17B-48DE-A6AB-0C4E62D4ADD4";
shapes = (
{
closed = 1;
nodes = (
(615,-13,o),
(708,238,o),
(708,424,cs),
(708,552,o),
(655,644,o),
(558,679,c),
(575,659,l),
(775,659,l),
(787,714,l),
(537,714,l),
(525,661,l),
(605,631,o),
(647,552,o),
(647,441,cs),
(647,288,o),
(581,46,o),
(366,46,cs),
(232,46,o),
(156,127,o),
(156,265,cs),
(156,402,o),
(225,621,o),
(405,661,c),
(416,714,l),
(166,714,l),
(154,659,l),
(360,659,l),
(385,685,l),
(177,644,o),
(92,422,o),
(92,261,cs),
(92,93,o),
(194,-13,o),
(365,-13,cs)
);
}
);
width = 753;
}
);
metricLeft = "luCarrier-canadian";
metricRight = "=|";
note = uni162E;
unicode = 5678;
},
{
color = 9;
glyphname = "lhoCarrier-canadian";
lastChange = "2023-01-13 15:28:21 +0000";
layers = (
{
layerId = "DE93BBBF-E17B-48DE-A6AB-0C4E62D4ADD4";
shapes = (
{
closed = 1;
nodes = (
(264,0,l),
(276,53,l),
(196,83,o),
(154,162,o),
(154,273,cs),
(154,426,o),
(220,668,o),
(435,668,cs),
(569,668,o),
(645,587,o),
(645,449,cs),
(645,312,o),
(576,93,o),
(396,53,c),
(385,0,l),
(635,0,l),
(647,55,l),
(441,55,l),
(416,29,l),
(624,70,o),
(709,292,o),
(709,453,cs),
(709,621,o),
(607,727,o),
(436,727,cs),
(186,727,o),
(93,476,o),
(93,290,cs),
(93,162,o),
(146,70,o),
(243,35,c),
(226,55,l),
(26,55,l),
(14,0,l)
);
}
);
width = 753;
}
);
metricLeft = "luCarrier-canadian";
metricRight = "=|";
note = uni162F;
unicode = 5679;
},
{
color = 9;
glyphname = "lheCarrier-canadian";
lastChange = "2023-01-13 15:29:21 +0000";
layers = (
{
anchors = (
{
name = middle_center_can;
pos = (387,357);
}
);
layerId = "DE93BBBF-E17B-48DE-A6AB-0C4E62D4ADD4";
shapes = (
{
closed = 1;
nodes = (
(584,-13,o),
(682,265,o),
(682,451,cs),
(682,619,o),
(594,727,o),
(448,727,cs),
(338,727,o),
(248,663,o),
(200,550,c),
(206,549,l),
(241,714,l),
(184,714,l),
(124,434,l),
(178,434,l),
(222,585,o),
(313,668,o),
(430,668,cs),
(551,668,o),
(618,587,o),
(618,449,cs),
(618,294,o),
(541,46,o),
(339.009,46.005,cs),
(210,46,o),
(129,143,o),
(145,280,c),
(91,280,l),
(32,0,l),
(89,0,l),
(130,194,l),
(120,192,l),
(128,68,o),
(218,-13,o),
(346,-13,cs)
);
}
);
width = 720;
}
);
metricLeft = "nunavuth-canadian";
metricRight = "theCarrier-canadian";
note = uni1630;
unicode = 5680;
},
{
color = 9;
glyphname = "lhaCarrier-canadian";
lastChange = "2023-01-13 15:29:21 +0000";
layers = (
{
layerId = "DE93BBBF-E17B-48DE-A6AB-0C4E62D4ADD4";
shapes = (
{
closed = 1;
nodes = (
(428,-13,o),
(519,51,o),
(567,164,c),
(561,165,l),
(525,0,l),
(583,0,l),
(642,280,l),
(588,280,l),
(545,129,o),
(453,46,o),
(336,46,cs),
(216,46,o),
(149,127,o),
(149,265,cs),
(149,420,o),
(225,668,o),
(427,668,cs),
(556,668,o),
(637,571,o),
(621,434,c),
(675,434,l),
(734,714,l),
(676.993,714,l),
(636,520,l),
(647,522,l),
(638,646,o),
(549,727,o),
(421,727,cs),
(182,727,o),
(85,449,o),
(85,263,cs),
(85,95,o),
(173,-13,o),
(318,-13,cs)
);
}
);
width = 718;
}
);
metricLeft = "=|theCarrier-canadian";
metricRight = "nunavuth-canadian";
note = uni1633;
unicode = 5683;
},
{
color = 9;
glyphname = "tlhuCarrier-canadian";
lastChange = "2023-01-13 15:28:21 +0000";
layers = (
{
layerId = "DE93BBBF-E17B-48DE-A6AB-0C4E62D4ADD4";
shapes = (
{
closed = 1;
nodes = (
(615,-13,o),
(708,238,o),
(708,424,cs),
(708,549,o),
(662,643,o),
(565,679,c),
(566,663,l),
(766,663,l),
(748,577,l),
(797,577,l),
(844,800,l),
(795,800,l),
(777,714,l),
(537,714,l),
(525,661,l),
(605,631,o),
(647,552,o),
(647,441,cs),
(647,288,o),
(581,46,o),
(366,46,cs),
(232,46,o),
(156,127,o),
(156,265,cs),
(156,402,o),
(225,621,o),
(405,661,c),
(416,714,l),
(166,714,l),
(154,659,l),
(361,659,l),
(377,682,l),
(166,637,o),
(92,411,o),
(92,261,cs),
(92,93,o),
(194,-13,o),
(365,-13,cs)
);
}
);
width = 775;
}
);
metricLeft = "lhuCarrier-canadian";
note = uni1634;
unicode = 5684;
},
{
color = 9;
glyphname = "tlhoCarrier-canadian";
lastChange = "2023-01-13 15:28:21 +0000";
layers = (
{
layerId = "DE93BBBF-E17B-48DE-A6AB-0C4E62D4ADD4";
shapes = (
{
closed = 1;
nodes = (
(29,-86,l),
(47,0,l),
(287,0,l),
(298,53,l),
(218,83,o),
(177,162,o),
(177,273,cs),
(177,426,o),
(243,668,o),
(458,668,cs),
(591,668,o),
(667,587,o),
(667,449,cs),
(667,312,o),
(599,93,o),
(419,53,c),
(407,0,l),
(657,0,l),
(669,55,l),
(462,55,l),
(446,32,l),
(658,77,o),
(731,303,o),
(731,453,cs),
(731,621,o),
(629,727,o),
(459,727,cs),
(209,727,o),
(115,476,o),
(115,290,cs),
(115,165,o),
(161,71,o),
(258,35,c),
(258,51,l),
(58,51,l),
(76,137,l),
(26,137,l),
(-21,-86,l)
);
}
);
width = 775;
}
);
metricLeft = "=|tlhuCarrier-canadian";
metricRight = "lhuCarrier-canadian";
note = uni1635;
unicode = 5685;
},
{
color = 9;
glyphname = "tlheCarrier-canadian";
lastChange = "2023-01-13 15:28:21 +0000";
layers = (
{
anchors = (
{
name = middle_center_can;
pos = (393,357);
}
);
layerId = "DE93BBBF-E17B-48DE-A6AB-0C4E62D4ADD4";
shapes = (
{
closed = 1;
nodes = (
(591,-13,o),
(688,265,o),
(688,451,cs),
(688,619,o),
(600,727,o),
(455,727,cs),
(337,727,o),
(242,656,o),
(191,532,c),
(203,540,l),
(243,728,l),
(323,728,l),
(334,776,l),
(123,776,l),
(112,728,l),
(193,728,l),
(131,434,l),
(185,434,l),
(228,585,o),
(320,668,o),
(437,668,cs),
(557,668,o),
(625,587,o),
(625,449,cs),
(625,294,o),
(548,46,o),
(346,46,cs),
(217,46,o),
(136,143,o),
(152,280,c),
(98,280,l),
(39,0,l),
(96,0,l),
(137,194,l),
(126,192,l),
(135,68,o),
(224,-13,o),
(353,-13,cs)
);
}
);
width = 726;
}
);
metricLeft = "dleCarrier-canadian";
metricRight = "theCarrier-canadian";
note = uni1636;
unicode = 5686;
},
{
color = 9;
glyphname = "tlhaCarrier-canadian";
lastChange = "2023-01-13 15:29:21 +0000";
layers = (
{
layerId = "DE93BBBF-E17B-48DE-A6AB-0C4E62D4ADD4";
shapes = (
{
closed = 1;
nodes = (
(428,-13,o),
(519,51,o),
(567,164,c),
(561,165,l),
(526,0,l),
(583,0,l),
(643,280,l),
(589,280,l),
(545,129,o),
(454,46,o),
(336,46,cs),
(216,46,o),
(149,127,o),
(149,265,cs),
(149,420,o),
(225,668,o),
(427,668,cs),
(556,668,o),
(637,571,o),
(621,434,c),
(675,434,l),
(738,728,l),
(818,728,l),
(829,776,l),
(618,776,l),
(608,728,l),
(688,728,l),
(643,518,l),
(651,519,l),
(641,647,o),
(550,727,o),
(421,727,cs),
(182,727,o),
(85,449,o),
(85,263,cs),
(85,95,o),
(173,-13,o),
(318,-13,cs)
);
}
);
width = 725;
}
);
metricLeft = "=|theCarrier-canadian";
metricRight = "=|dleCarrier-canadian";
note = uni1639;
unicode = 5689;
},
{
color = 9;
glyphname = "tluCarrier-canadian";
lastChange = "2023-01-13 15:28:21 +0000";
layers = (
{
layerId = "DE93BBBF-E17B-48DE-A6AB-0C4E62D4ADD4";
shapes = (
{
closed = 1;
nodes = (
(326,-13,o),
(384,32,o),
(422,126,c),
(405,126,l),
(413,39,o),
(470,-13,o),
(559,-13,cs),
(762,-13,o),
(819,279,o),
(819,427,cs),
(819,554,o),
(770,639,o),
(679,672,c),
(666,664,l),
(879,664,l),
(860,577,l),
(910,577,l),
(957,800,l),
(908,800,l),
(889,714,l),
(594,714,l),
(582,661,l),
(700,648,o),
(758,576,o),
(758,440,cs),
(758,320,o),
(714,45,o),
(558,45,cs),
(473,45,o),
(437,107,o),
(460,215,cs),
(480,309,l),
(419,309,l),
(400,217,ls),
(375,101,o),
(329,45,o),
(251,45,cs),
(178,45,o),
(141,93,o),
(141,192,cs),
(141,312,o),
(201,657,o),
(461,661,c),
(472,714,l),
(166,714,l),
(155,659,l),
(349,659,l),
(338,668,l),
(147,607,o),
(78,342,o),
(78,189,cs),
(78,60,o),
(136,-13,o),
(242,-13,cs)
);
}
);
width = 888;
}
);
metricRight = "tlhuCarrier-canadian";
note = uni163A;
unicode = 5690;
},
{
color = 1;
glyphname = "tloCarrier-canadian";
lastChange = "2023-01-13 15:29:21 +0000";
layers = (
{
layerId = "DE93BBBF-E17B-48DE-A6AB-0C4E62D4ADD4";
shapes = (
{
closed = 1;
nodes = (
(769,-86,l),
(817,137,l),
(767,137,l),
(749,51,l),
(559,51,l),
(570,43,l),
(765,101,o),
(837,369,o),
(837,525,cs),
(837,654,o),
(778,727,o),
(672,727,cs),
(588,727,o),
(530,681,o),
(492,586,c),
(509,585,l),
(502,674,o),
(445,727,o),
(355,727,cs),
(153,727,o),
(95,435,o),
(95,287,cs),
(95,163,o),
(143,79,o),
(230,45,c),
(245,54,l),
(26,54,l),
(14,0,l),
(321,0,l),
(332,53,l),
(215,66,o),
(156,138,o),
(156,274,cs),
(156,394,o),
(200,669,o),
(357,669,cs),
(441,669,o),
(477,607,o),
(454,499,cs),
(435,405,l),
(496,405,l),
(515,497,ls),
(539,613,o),
(586,669,o),
(663,669,cs),
(736,669,o),
(773,621,o),
(773,522,cs),
(773,402,o),
(714,57,o),
(453,53,c),
(442,0,l),
(738,0,l),
(720,-86,l)
);
}
);
width = 889;
}
);
metricLeft = "tluCarrier-canadian";
metricRight = "tlhuCarrier-canadian";
note = uni163B;
unicode = 5691;
},
{
color = 9;
glyphname = "tleCarrier-canadian";
lastChange = "2023-01-13 15:29:21 +0000";
layers = (
{
anchors = (
{
name = middle_center_can;
pos = (304,357);
}
);
layerId = "DE93BBBF-E17B-48DE-A6AB-0C4E62D4ADD4";
shapes = (
{
closed = 1;
nodes = (
(532,-13,o),
(641,75,o),
(641,215,cs),
(641,293,o),
(596,352,o),
(525,363,c),
(521,349,l),
(635,359,o),
(712,444,o),
(712,550,cs),
(712,655,o),
(621,727,o),
(478,727,cs),
(346,727,o),
(247,664,o),
(196,548,c),
(202,537,l),
(242,728,l),
(323,728,l),
(333,776,l),
(123,776,l),
(112,728,l),
(193,728,l),
(130,434,l),
(184,434,l),
(222,593,o),
(313,669,o),
(462,669,cs),
(579,669,o),
(648,620,o),
(648,541,cs),
(648,438,o),
(566,385,o),
(455,385,cs),
(412,385,l),
(400,330,l),
(442,330,ls),
(529,330,o),
(579,289,o),
(579,219,cs),
(579,109,o),
(496,45,o),
(375,45,cs),
(217,45,o),
(130,135,o),
(151,280,c),
(97,280,l),
(38,0,l),
(96,0,l),
(138,198,l),
(124,186,l),
(130,65,o),
(231,-13,o),
(381,-13,cs)
);
}
);
width = 732;
}
);
metricLeft = "dleCarrier-canadian";
metricRight = "geCarrier-canadian";
note = uni163C;
unicode = 5692;
},
{
color = 9;
glyphname = "tlaCarrier-canadian";
lastChange = "2023-01-13 15:29:21 +0000";
layers = (
{
layerId = "DE93BBBF-E17B-48DE-A6AB-0C4E62D4ADD4";
shapes = (
{
closed = 1;
nodes = (
(423,-13,o),
(516,40,o),
(571,138,c),
(565,151,l),
(532,0,l),
(590,0,l),
(650,280,l),
(596,280,l),
(558,121,o),
(467,45,o),
(318,45,cs),
(201,45,o),
(132,94,o),
(132,173,cs),
(132,276,o),
(213,329,o),
(325,329,cs),
(368,329,l),
(380,384,l),
(338,384,ls),
(251,384,o),
(201,425,o),
(201,495,cs),
(201,605,o),
(284,669,o),
(406,669,cs),
(563,669,o),
(650,579,o),
(629,434,c),
(683,434,l),
(744,728,l),
(824,728,l),
(835,776,l),
(624,776,l),
(614,728,l),
(695,728,l),
(651,522,l),
(659,531,l),
(648,651,o),
(547,727,o),
(399,727,cs),
(248,727,o),
(139,639,o),
(139,499,cs),
(139,423,o),
(182,366,o),
(249,353,c),
(252,364,l),
(143,351,o),
(68,268,o),
(68,164,cs),
(68,59,o),
(158,-13,o),
(302,-13,cs)
);
}
);
width = 731;
}
);
metricLeft = "=|geCarrier-canadian";
metricRight = "=|dleCarrier-canadian";
note = uni163F;
unicode = 5695;
},
{
color = 9;
glyphname = "zuCarrier-canadian";
lastChange = "2023-01-13 15:29:21 +0000";
layers = (
{
layerId = "DE93BBBF-E17B-48DE-A6AB-0C4E62D4ADD4";
shapes = (
{
closed = 1;
nodes = (
(551,-13,o),
(681,117,o),
(681,309,cs),
(681,404,o),
(643,490,o),
(643,558,cs),
(643,620,o),
(677,658,o),
(741,658,cs),
(773,658,l),
(784,714,l),
(742,714,ls),
(640,714,o),
(582,661,o),
(582,560,cs),
(582,483,o),
(619,403,o),
(619,312,cs),
(619,155,o),
(520,46,o),
(351,46,cs),
(216,46,o),
(134,109,o),
(134,208,cs),
(134,363,o),
(314,497,o),
(314,621,cs),
(314,678,o),
(273,714,o),
(205,714,cs),
(163,714,l),
(151,658,l),
(186,658,ls),
(231,658,o),
(252,643,o),
(252,612,cs),
(252,514,o),
(71,377,o),
(71,202,cs),
(71,74,o),
(176,-13,o),
(343,-13,cs)
);
}
);
width = 748;
}
);
metricRight = "=|";
note = uni1640;
unicode = 5696;
},
{
color = 9;
glyphname = "zoCarrier-canadian";
lastChange = "2023-01-13 15:29:21 +0000";
layers = (
{
layerId = "DE93BBBF-E17B-48DE-A6AB-0C4E62D4ADD4";
shapes = (
{
closed = 1;
nodes = (
(53,0,ls),
(156,0,o),
(213,53,o),
(213,154,cs),
(213,231,o),
(176,311,o),
(176,402,cs),
(176,559,o),
(275,668,o),
(445,668,cs),
(579,668,o),
(661,605,o),
(661,506,cs),
(661,351,o),
(482,217,o),
(482,93,cs),
(482,36,o),
(522,0,o),
(591,0,cs),
(633,0,l),
(644,56,l),
(609,56,ls),
(564,56,o),
(544,71,o),
(544,102,cs),
(544,200,o),
(725,337,o),
(725,512,cs),
(725,640,o),
(619,727,o),
(452,727,cs),
(244,727,o),
(114,597,o),
(114,405,cs),
(114,310,o),
(153,224,o),
(153,156,cs),
(153,94,o),
(118,56,o),
(54,56,cs),
(23,56,l),
(11,0,l)
);
}
);
width = 748;
}
);
metricLeft = "zuCarrier-canadian";
metricRight = "zuCarrier-canadian";
note = uni1641;
unicode = 5697;
},
